<svg width="149" height="115" viewBox="0 0 149 115" fill="none" xmlns="http://www.w3.org/2000/svg">
<g clip-path="url(#clip0_2316_73)">
<path d="M66.9916 68.2149L61.33 64.1406L51.8858 70.9328L63.3853 79.2056L66.9916 68.2149ZM74.5281 73.634L65.0844 80.4292L74.5281 87.2206L83.9664 80.4292L74.5281 73.634ZM54.7971 59.4397H69.8548L35.2326 34.533L43.3146 51.1842L54.7971 59.4397ZM70.5982 57.2266L73.4784 48.4584L25.106 13.6616L33.1871 30.3161L70.5982 57.2266ZM43.7869 24.356L31.9637 0L26.2603 11.7496L43.7869 24.356ZM87.7204 64.1406L82.0609 68.2149L85.67 79.2056L97.1653 70.9328L87.7204 64.1406ZM79.1984 59.4397H94.2557L105.738 51.1842L113.817 34.533L79.1984 59.4397ZM123.947 13.6616L75.5765 48.4584L78.4526 57.2266L115.864 30.3161L123.947 13.6616ZM122.792 11.7496L117.089 0L105.263 24.356L122.792 11.7496Z" fill="black"/>
<path d="M69.2818 65.779C69.2818 62.9121 71.6312 60.5844 74.5305 60.5844C75.9216 60.586 77.2553 61.1338 78.2389 62.1076C79.2226 63.0815 79.7759 64.4018 79.7775 65.779C79.7775 68.6495 77.4237 70.975 74.5305 70.975C73.1386 70.975 71.8036 70.4276 70.8193 69.4532C69.835 68.4788 69.2819 67.1571 69.2818 65.779ZM0 104.096H3.79641V110.077C3.79641 110.734 3.85669 111.211 4.09779 111.614C4.57998 112.434 5.54393 112.658 6.31254 112.658C7.30685 112.658 7.87924 112.315 8.1353 112.076C8.78248 111.48 8.79833 110.525 8.79833 110.018V104.097H12.5947V109.615C12.5947 110.853 12.5653 112.15 11.9775 113.046C10.8173 114.835 8.01519 115 6.32794 115C3.96272 115 2.62217 114.671 1.82364 114.195C0.166314 113.389 0.00088615 111.718 0.00088615 110.868V104.096L0 104.096ZM13.6093 111.882H17.0744V114.626H13.6093V111.882ZM22.8784 106.811C22.8784 106.96 22.9232 107.094 22.9989 107.184C23.255 107.512 24.3245 107.75 24.9123 107.87L27.0963 108.332C27.5635 108.422 28.0153 108.527 28.4676 108.705C29.8834 109.227 30.3361 110.271 30.3361 111.226C30.3331 111.868 30.1393 112.496 29.7787 113.03C28.8895 114.358 27.0967 114.94 24.2343 114.94C23.1648 114.94 21.0406 114.851 19.7907 113.747C18.8716 112.941 18.7357 111.972 18.6759 111.495L22.427 111.39C22.5625 112.076 23.2704 112.598 24.7772 112.598C25.1692 112.598 25.7262 112.553 26.1028 112.345C26.3589 112.196 26.6304 111.897 26.6304 111.539C26.6304 111.047 26.2238 110.838 25.9225 110.734C25.4552 110.585 23.0601 110.166 22.5321 110.047C22.1197 109.96 21.7125 109.851 21.3126 109.719C20.906 109.57 19.2029 108.973 19.2029 107.049C19.2029 106.258 19.5347 105.527 20.0617 104.99C21.2518 103.768 23.3914 103.648 24.5661 103.648C25.8617 103.648 27.1429 103.827 27.805 104.051C29.7937 104.677 30.0501 106.154 30.1557 106.721L26.4196 106.93C26.329 106.586 26.1481 105.96 24.5511 105.96C24.0535 105.96 22.8784 106.035 22.8784 106.811ZM31.5742 111.882H35.0393V114.626H31.5742V111.882ZM48.8716 110.585H46.4013L47.6213 107.02L48.8716 110.585ZM40.8569 114.626H45.0304L45.6027 112.911H49.6706L50.243 114.626H54.3865L49.7758 104.096H45.4373L40.8569 114.626ZM59.6102 104.096V114.626H55.7984V104.096H59.6102ZM66.2527 106.483H69.4169C69.7029 106.483 70.0944 106.512 70.3958 106.782C70.592 106.961 70.6673 107.214 70.6673 107.453C70.6673 108.392 69.7029 108.407 69.1151 108.407H66.2527V106.483ZM62.4413 114.626H66.2527V110.793H68.2866L70.4706 114.626H74.6894L72.0228 110.42C72.4746 110.301 73.1979 110.151 73.8002 109.436C74.2375 108.914 74.4786 108.182 74.4786 107.437C74.4786 106.377 73.9964 105.349 73.2278 104.767C72.3391 104.125 71.1939 104.11 70.2603 104.095H62.4409L62.4413 114.626ZM80.3745 104.096H90.7994V106.468H84.1859V108.481H90.2569V110.838H84.1859V114.626H80.3741L80.3745 104.096ZM99.3359 106.05C101.942 106.08 102.455 108.198 102.455 109.346C102.455 110.405 102.048 111.778 100.873 112.359C100.406 112.598 99.8635 112.658 99.3359 112.658C97.0314 112.658 96.1418 110.973 96.1418 109.347C96.1418 107.9 96.9408 106.02 99.3359 106.05ZM99.1098 103.708C97.2263 103.738 94.6957 104.081 93.2042 106.17C92.5254 107.124 92.224 108.288 92.224 109.466C92.224 110.674 92.5104 111.688 93.2332 112.643C94.0168 113.702 95.5386 114.999 99.2444 114.999C101.172 114.999 102.89 114.732 104.337 113.597C104.848 113.209 105.27 112.733 105.602 112.18C106.129 111.315 106.371 110.301 106.371 109.317C106.371 107.512 105.512 105.304 103.071 104.321C101.852 103.827 100.435 103.694 99.1098 103.708ZM112.308 106.483H115.472C115.758 106.483 116.15 106.512 116.451 106.782C116.647 106.961 116.722 107.214 116.722 107.453C116.722 108.392 115.758 108.407 115.171 108.407H112.308V106.483ZM108.496 114.626H112.308V110.793H114.342L116.526 114.626H120.744L118.077 110.42C118.53 110.301 119.253 110.151 119.855 109.436C120.293 108.914 120.533 108.182 120.533 107.437C120.533 106.377 120.051 105.349 119.283 104.767C118.394 104.125 117.249 104.11 116.316 104.095H108.496V114.626ZM126.289 109.362C126.289 110.957 127.237 112.613 129.422 112.613C130.25 112.613 131.018 112.36 131.577 111.912C132.073 111.509 132.224 111.167 132.345 110.852L135.975 111.225C135.854 111.613 135.719 112.001 135.372 112.538C134.122 114.447 131.681 114.984 129.346 114.984C128.306 114.984 127.282 114.894 126.303 114.596C124.118 113.925 122.311 112.269 122.311 109.376C122.311 107.333 123.395 103.648 129.451 103.648C134.618 103.648 135.433 105.975 135.779 106.975L132.254 107.601C132.104 107.302 131.922 106.899 131.365 106.542C130.792 106.184 130.084 106.064 129.542 106.064C127.826 106.064 126.289 107.123 126.289 109.361L126.289 109.362ZM148.85 104.096V106.468H141.452V108.183H148.292V110.569H141.437V112.24H148.999V114.626H137.641V104.096H148.85Z" fill="black"/>
</g>
<defs>
<clipPath id="clip0_2316_73">
<rect width="149" height="115" fill="white"/>
</clipPath>
</defs>
</svg>
