<svg width="293" height="66" viewBox="0 0 293 66" fill="none" xmlns="http://www.w3.org/2000/svg">
<g clip-path="url(#clip0_2316_116)">
<path d="M117.026 26.3851C116.392 25.446 115.547 24.6666 114.559 24.1086C113.464 23.4773 112.216 23.1553 110.951 23.1773C109.644 23.1218 108.34 23.3513 107.131 23.8499C106.037 24.3107 105.055 24.9986 104.249 25.8677C103.436 26.7577 102.818 27.8059 102.432 28.9461C102.008 30.1869 101.797 31.49 101.809 32.8007C101.797 34.1113 102.008 35.4145 102.432 36.6552C102.818 37.7954 103.436 38.8436 104.249 39.7336C105.055 40.6027 106.037 41.2906 107.131 41.7515C108.338 42.2494 109.641 42.479 110.947 42.4241C112.212 42.446 113.46 42.1241 114.555 41.4928C115.543 40.9347 116.387 40.1554 117.021 39.2163L119.825 41.3375C118.714 42.6775 117.314 43.7492 115.728 44.472C114.228 45.1384 112.61 45.499 110.968 45.5327C109.143 45.5926 107.324 45.2847 105.621 44.6273C104.091 44.0303 102.703 43.1229 101.545 41.9627C100.408 40.8062 99.5322 39.4217 98.9748 37.9012C98.3813 36.2681 98.0882 34.5418 98.1095 32.805C98.0882 31.0682 98.3813 29.3418 98.9748 27.7087C99.5322 26.1883 100.408 24.8037 101.545 23.6473C102.703 22.487 104.091 21.5796 105.621 20.9827C107.324 20.3253 109.143 20.0173 110.968 20.0773C112.61 20.111 114.228 20.4716 115.728 21.1379C117.315 21.859 118.717 22.9292 119.829 24.2681L117.026 26.3851Z" fill="black"/>
<path d="M141.188 30.0585V29.4376C141.188 25.264 139.111 23.1772 134.958 23.1772C132.209 23.1433 129.551 24.1618 127.533 26.0229L125.456 23.5912C127.741 21.2457 131.168 20.0729 135.737 20.0729C136.89 20.0694 138.037 20.2439 139.137 20.5903C140.184 20.9093 141.15 21.4473 141.971 22.1683C142.793 22.9113 143.448 23.8194 143.892 24.8329C144.405 26.0432 144.653 27.3484 144.619 28.6615V39.4749C144.619 40.4062 144.662 41.3806 144.749 42.3981C144.836 43.4157 144.931 44.2521 145.035 44.9075H141.712C141.608 44.3326 141.53 43.6945 141.478 42.9931C141.426 42.2918 141.4 41.6192 141.4 40.9753H141.296C140.453 42.4411 139.223 43.6488 137.74 44.4677C136.18 45.2175 134.461 45.5813 132.73 45.5283C131.676 45.5338 130.627 45.3886 129.614 45.0972C128.646 44.8217 127.738 44.3652 126.941 43.752C126.165 43.1522 125.528 42.3935 125.071 41.5272C124.583 40.571 124.34 39.5086 124.366 38.4358C124.366 36.4698 124.877 34.9262 125.898 33.8052C126.95 32.664 128.27 31.8016 129.74 31.2959C131.33 30.7334 132.989 30.3854 134.672 30.2611C136.42 30.1232 138.021 30.0542 139.475 30.0542L141.188 30.0585ZM139.423 32.8524C138.558 32.8524 137.476 32.8955 136.178 32.9817C134.918 33.0631 133.67 33.2712 132.453 33.6026C131.335 33.8914 130.292 34.4114 129.389 35.1289C128.97 35.4718 128.636 35.9077 128.415 36.4017C128.195 36.8957 128.093 37.4342 128.117 37.9745C128.098 38.6872 128.268 39.3924 128.611 40.0182C128.934 40.5819 129.388 41.0608 129.935 41.4151C130.497 41.7815 131.122 42.0443 131.778 42.1912C132.45 42.3462 133.138 42.4243 133.829 42.424C134.942 42.4501 136.049 42.2384 137.074 41.8031C137.956 41.4187 138.742 40.8467 139.379 40.1272C140.016 39.4078 140.487 38.5582 140.76 37.6382C141.055 36.6595 141.201 35.6421 141.193 34.6201V32.8524H139.423Z" fill="black"/>
<path d="M165.934 26.1685C165.454 25.2133 164.74 24.3945 163.857 23.7886C162.914 23.1865 161.809 22.8856 160.69 22.9262C160.087 22.9279 159.486 22.9973 158.899 23.1332C158.322 23.2595 157.77 23.4779 157.263 23.7799C156.794 24.058 156.395 24.4383 156.095 24.8923C155.79 25.3898 155.64 25.9657 155.662 26.5479C155.662 27.6977 156.06 28.5255 156.856 29.0314C157.969 29.6717 159.179 30.1261 160.439 30.3766L163.9 31.2044C165.509 31.536 166.982 32.3375 168.132 33.5068C168.687 34.077 169.123 34.7522 169.413 35.4927C169.702 36.2331 169.841 37.0239 169.819 37.8183C169.854 38.9893 169.584 40.1493 169.036 41.1857C168.516 42.1149 167.787 42.9118 166.907 43.5139C165.987 44.1345 164.961 44.5817 163.879 44.8332C162.746 45.1132 161.584 45.258 160.417 45.2644C158.609 45.2851 156.818 44.9236 155.16 44.2037C153.457 43.415 152.022 42.1471 151.033 40.5562L153.992 38.5384C154.649 39.6108 155.547 40.5169 156.614 41.1857C157.75 41.8626 159.055 42.2035 160.378 42.1687C161.077 42.168 161.774 42.0899 162.455 41.9359C163.107 41.7888 163.73 41.5353 164.298 41.1857C164.824 40.8689 165.268 40.435 165.596 39.9181C165.932 39.3745 166.104 38.7456 166.089 38.1072C166.129 37.5899 166.023 37.0719 165.785 36.6107C165.547 36.1495 165.185 35.7631 164.74 35.4944C163.719 34.9122 162.616 34.485 161.469 34.2268L158.146 33.4507C157.73 33.3473 157.168 33.1748 156.458 32.9334C155.716 32.6749 155.016 32.3088 154.382 31.8468C153.686 31.337 153.097 30.6952 152.651 29.9584C152.142 29.0887 151.89 28.0932 151.924 27.0869C151.898 25.9548 152.157 24.8343 152.677 23.8274C153.159 22.9179 153.854 22.1372 154.702 21.5509C155.58 20.9506 156.554 20.5044 157.583 20.2315C158.666 19.9399 159.784 19.7949 160.906 19.8004C162.534 19.786 164.145 20.1213 165.631 20.7834C167.119 21.4722 168.314 22.6635 169.006 24.1464L165.934 26.1685Z" fill="black"/>
<path d="M178.491 33.4772C178.583 34.6562 178.875 35.811 179.357 36.8919C180.273 38.9614 181.943 40.6072 184.03 41.4967C185.096 41.9507 186.245 42.1797 187.404 42.1693C189.08 42.2152 190.734 41.7748 192.164 40.9017C193.38 40.1651 194.415 39.1662 195.192 37.9784L197.84 40.1342C196.577 41.808 194.93 43.1562 193.038 44.0663C191.271 44.8635 189.352 45.2695 187.413 45.2563C185.696 45.2722 183.992 44.9468 182.403 44.2992C180.909 43.6925 179.557 42.7854 178.431 41.6346C177.305 40.4692 176.415 39.0992 175.809 37.599C175.157 35.9883 174.831 34.2653 174.848 32.5286C174.831 30.7944 175.148 29.0731 175.783 27.4582C176.374 25.9561 177.256 24.5848 178.379 23.4226C179.486 22.2848 180.81 21.3789 182.273 20.7581C183.799 20.1124 185.443 19.7866 187.101 19.8009C188.797 19.7789 190.478 20.12 192.029 20.8012C193.418 21.41 194.665 22.2997 195.69 23.414C196.692 24.5269 197.46 25.8288 197.948 27.2427C198.474 28.7477 198.738 30.3314 198.727 31.925V33.4772H178.491ZM195.002 30.6833C195.002 28.3838 194.31 26.5155 192.925 25.0783C191.541 23.6411 189.602 22.9225 187.11 22.9225C186.005 22.922 184.91 23.1419 183.891 23.5692C182.886 23.9768 181.963 24.561 181.165 25.2938C180.398 26.0032 179.765 26.8444 179.296 27.7773C178.843 28.6791 178.61 29.6748 178.617 30.6833H195.002Z" fill="black"/>
<path d="M219.293 23.7981H212.284V38.078C212.264 38.8195 212.352 39.56 212.543 40.2769C212.663 40.7661 212.901 41.2189 213.235 41.5962C213.544 41.9053 213.929 42.1283 214.352 42.2429C214.817 42.3679 215.297 42.4288 215.779 42.424C216.394 42.4203 217.006 42.3333 217.597 42.1653C218.197 42.0054 218.777 41.7799 219.327 41.4927L219.483 44.6488C218.023 45.2645 216.447 45.5586 214.862 45.5111C214.171 45.5068 213.482 45.42 212.811 45.2524C212.096 45.0768 211.43 44.7406 210.864 44.2694C210.236 43.737 209.737 43.0691 209.406 42.3162C208.987 41.2821 208.792 40.1712 208.835 39.0567V23.7981H203.717V20.6938H208.857V13.86H212.284V20.6938H219.293V23.7981Z" fill="black"/>
<path d="M227.043 33.7319C227.134 34.911 227.427 36.0658 227.908 37.1467C228.824 39.2162 230.494 40.862 232.581 41.7514C233.647 42.2055 234.796 42.4345 235.956 42.424C237.632 42.4699 239.285 42.0296 240.715 41.1564C241.931 40.4199 242.966 39.421 243.744 38.2332L246.391 40.389C245.128 42.0628 243.482 43.411 241.589 44.3211C239.822 45.1183 237.903 45.5243 235.964 45.5111C234.247 45.527 232.544 45.2016 230.954 44.5539C229.46 43.9472 228.108 43.0402 226.982 41.8894C225.857 40.724 224.967 39.3539 224.36 37.8538C223.709 36.243 223.382 34.52 223.4 32.7834C223.382 31.0492 223.699 29.3278 224.334 27.713C224.925 26.2109 225.807 24.8395 226.93 23.6774C228.037 22.5396 229.361 21.6337 230.824 21.0129C232.351 20.3671 233.994 20.0413 235.653 20.0557C237.349 20.0276 239.031 20.3629 240.585 21.0387C241.974 21.6475 243.22 22.5373 244.245 23.6515C245.248 24.7645 246.016 26.0664 246.504 27.4802C247.03 28.9853 247.293 30.5689 247.283 32.1625V33.7147L227.043 33.7319ZM243.545 30.9381C243.545 28.6386 242.852 26.7702 241.468 25.333C240.083 23.8959 238.145 23.1773 235.653 23.1773C234.547 23.1768 233.453 23.3967 232.434 23.824C231.429 24.2316 230.506 24.8157 229.708 25.5486C228.94 26.258 228.307 27.0992 227.839 28.0321C227.38 28.9295 227.14 29.9222 227.138 30.9294L243.545 30.9381Z" fill="black"/>
<path d="M261.102 31.9685L252.275 20.6895H256.948L263.698 29.7437L270.136 20.6895H274.393L265.934 31.9685L276.106 44.9031H271.434L263.282 34.301L255.442 44.9031H251.081L261.102 31.9685Z" fill="black"/>
<path d="M294.109 23.7981H287.091V38.078C287.072 38.8195 287.159 39.56 287.351 40.2769C287.481 40.7694 287.731 41.2225 288.078 41.5962C288.387 41.9053 288.772 42.1283 289.194 42.2429C289.66 42.3679 290.14 42.4288 290.622 42.424C291.237 42.4203 291.848 42.3333 292.439 42.1653C293.039 42.0054 293.62 41.7799 294.17 41.4927L294.325 44.6488C292.865 45.2645 291.289 45.5586 289.705 45.5111C289.013 45.5068 288.325 45.42 287.654 45.2524C286.938 45.0768 286.272 44.7406 285.707 44.2694C285.077 43.7375 284.577 43.0695 284.244 42.3162C283.825 41.2821 283.63 40.1712 283.673 39.0567V23.7981H278.533V20.6938H283.673V13.86H287.091V20.6938H294.101L294.109 23.7981Z" fill="black"/>
<path d="M38.7516 61.0022L1.18799 39.6171L39.3393 17.6841L76.8962 39.0693L38.7516 61.0022Z" fill="#DEDDDD"/>
<path d="M38.7516 52.1501L1.18799 30.7649L39.3393 8.85864L76.8962 30.2438L38.7516 52.1501Z" fill="#DEDDDD"/>
<path d="M38.7516 43.2981L1.18799 21.913L39.0759 0L76.8894 21.4253L38.7516 43.2981Z" fill="#DEDDDD"/>
<path d="M37.8984 43.108L1.07796 22.1437C1.07796 22.1437 -1.34745 24.816 1.07796 27.4883L37.8713 48.3991C38.0859 48.5109 38.3247 48.5693 38.5672 48.5693C38.8097 48.5693 39.0486 48.5109 39.2631 48.3991L76.7861 27.0206V21.676L39.2901 43.0545C39.0849 43.1875 38.8469 43.2628 38.6017 43.2722C38.3566 43.2816 38.1134 43.2249 37.8984 43.108V43.108Z" fill="#84ACDB"/>
<path d="M38.0082 51.6892L1.18783 30.7316C1.18783 30.7316 -1.23759 33.4039 1.18783 36.0762L37.9812 56.9871C38.1963 57.0972 38.4349 57.1547 38.6771 57.1547C38.9193 57.1547 39.1579 57.0972 39.373 56.9871L76.896 35.6086V30.2706L39.4 51.6491C39.1935 51.7801 38.9549 51.853 38.7097 51.8601C38.4646 51.8671 38.2221 51.8081 38.0082 51.6892Z" fill="#84ACDB"/>
<path d="M38.0082 60.5345L1.18783 39.5702C1.18783 39.5702 -1.23759 42.2425 1.18783 44.9149L37.9812 65.8324C38.1963 65.9425 38.4349 66 38.6771 66C38.9193 66 39.1579 65.9425 39.373 65.8324L76.896 44.4539V39.1093L39.4 60.4878C39.1926 60.6157 38.9548 60.6874 38.7104 60.6956C38.4661 60.7039 38.2239 60.6483 38.0082 60.5345V60.5345Z" fill="#84ACDB"/>
<path d="M19.1522 26.9035L17.4902 26.0016L47.1222 8.87878L48.9396 9.92767L19.1522 26.9035Z" fill="#787979"/>
<path d="M12.4569 23.4496L10.7949 22.5477L40.4201 5.43152L42.2375 6.47372L12.4569 23.4496Z" fill="#787979"/>
<path d="M25.0096 30.4109L23.3477 29.5089L52.9796 12.3861L54.797 13.435L25.0096 30.4109Z" fill="#787979"/>
<path d="M31.036 33.9718L29.374 33.0699L58.9993 15.9537L60.8166 16.9959L31.036 33.9718Z" fill="#787979"/>
<path d="M37.2314 37.566L35.4546 36.6374L60.4114 22.3004L62.2288 23.3426L37.2314 37.566Z" fill="#787979"/>
</g>
<defs>
<clipPath id="clip0_2316_116">
<rect width="293" height="66" fill="white"/>
</clipPath>
</defs>
</svg>
