<svg width="164" height="42" viewBox="0 0 164 42" fill="none" xmlns="http://www.w3.org/2000/svg">
<g clip-path="url(#clip0_2316_78)">
<path d="M57.9321 19.9769C57.9321 16.423 59.1874 13.4077 61.7251 10.9038C64.2629 8.39996 67.3191 7.1615 70.9211 7.1615V12.6538C68.629 12.6538 66.7188 13.5423 65.1634 15.3461C64.0446 16.6384 63.4988 18.2807 63.4988 19.95V33.4115H57.9321V19.9769Z" fill="#54565A"/>
<path d="M155.677 0.053833V33.4654H150.11V0.053833H155.677Z" fill="#54565A"/>
<path d="M22.6761 11.1731C20.111 8.6423 17.0002 7.37691 13.3436 7.37691C10.4784 7.37691 7.94061 8.1846 5.73029 9.74614V7.29614H0.163574V20.3808V33.4654V41.9192H5.81216V31.0692C7.99519 32.6038 10.5057 33.3577 13.3436 33.3577C17.0002 33.3577 20.111 32.0923 22.6761 29.5615C25.2411 27.0308 26.5236 23.9615 26.5236 20.3538C26.5236 16.7461 25.2411 13.7038 22.6761 11.1731ZM17.928 26.2769C16.891 27.1115 15.6358 27.6231 14.2987 27.7577C11.4607 28.0538 9.14128 27.1115 7.34028 24.9038C6.49435 23.8808 5.97589 22.6423 5.83945 21.3231C5.53928 18.5231 6.49435 16.2346 8.73196 14.4577C9.7689 13.6231 11.0241 13.1115 12.3612 12.9769C15.1992 12.6808 17.5186 13.6231 19.3196 15.8308C20.1656 16.8538 20.684 18.0923 20.8205 19.4115C21.1206 22.2115 20.1383 24.5 17.928 26.2769Z" fill="#54565A"/>
<path d="M54.8757 20.3001C54.8757 16.6924 53.5932 13.6231 51.0281 11.0654C48.463 8.53467 45.3522 7.26929 41.6957 7.26929C38.0391 7.26929 34.9283 8.53467 32.3632 11.0654C29.7982 13.5962 28.5156 16.6924 28.5156 20.3001C28.5156 23.9077 29.7982 26.977 32.3632 29.5347C34.9283 32.0654 38.0664 33.3308 41.7229 33.3308C44.479 33.3308 46.9349 32.6039 49.0634 31.1501V33.4116H54.9303L54.8757 21.3501V20.3001ZM49.0634 22.0231C48.7905 23.127 48.081 24.5539 47.0441 25.577C45.5705 27.0308 43.7422 27.7847 41.6411 27.7577C39.6218 27.7308 37.6843 26.9231 36.2927 25.4962C34.7918 23.9616 34.0823 22.1039 34.1642 19.9231C34.2461 18.227 34.9283 16.6116 36.0744 15.3462C37.5752 13.7308 39.4035 12.8962 41.5592 12.8693C43.5785 12.8424 45.5432 13.5962 46.9895 14.9962C48.081 16.0462 49.0088 17.5539 49.118 18.5231C49.3908 19.5731 49.4181 20.8116 49.0634 22.0231Z" fill="#54565A"/>
<path d="M157.997 30.4231C157.997 29.8577 158.133 29.3462 158.379 28.8885C158.624 28.4039 159.006 28.0539 159.443 27.7577C159.907 27.4885 160.398 27.3539 160.944 27.3539C161.462 27.3539 161.981 27.4885 162.417 27.7577C162.881 28.027 163.236 28.4039 163.481 28.8885C163.727 29.3731 163.863 29.8847 163.863 30.4231C163.863 30.9616 163.727 31.5 163.481 31.9577C163.236 32.4423 162.854 32.7923 162.417 33.0885C161.981 33.3847 161.462 33.4923 160.916 33.4923C160.371 33.4923 159.879 33.3577 159.416 33.0885C158.952 32.8193 158.597 32.4423 158.351 31.9577C158.106 31.5 157.997 30.9885 157.997 30.4231ZM163.4 30.4231C163.4 29.9654 163.29 29.5347 163.099 29.1577C162.881 28.7808 162.608 28.4577 162.226 28.2154C161.844 27.9731 161.435 27.8654 160.971 27.8654C160.534 27.8654 160.125 27.9731 159.743 28.2154C159.361 28.4308 159.061 28.7539 158.842 29.1308C158.624 29.5347 158.515 29.9654 158.515 30.4231C158.515 30.8808 158.624 31.3116 158.842 31.7154C159.061 32.1193 159.361 32.4154 159.743 32.6577C160.125 32.9 160.534 33.0077 160.971 33.0077C161.408 33.0077 161.817 32.9 162.199 32.6577C162.581 32.4154 162.881 32.1193 163.099 31.7154C163.29 31.3116 163.4 30.8808 163.4 30.4231ZM160.343 30.7462V32.1193H159.716V28.6193H160.889C161.326 28.6193 161.653 28.7 161.871 28.8885C162.117 29.077 162.226 29.3462 162.226 29.6693C162.226 29.9923 162.062 30.2347 161.735 30.4231C161.926 30.5039 162.035 30.6116 162.117 30.7731C162.199 30.9347 162.226 31.1231 162.226 31.3385C162.226 31.5539 162.226 31.7154 162.253 31.8231C162.253 31.9039 162.281 31.9847 162.308 32.0654V32.1462H161.653C161.626 32.0654 161.599 31.7962 161.599 31.3385C161.599 31.1231 161.544 30.9885 161.462 30.8808C161.38 30.8 161.217 30.7462 160.998 30.7462H160.343ZM160.343 30.1808H160.944C161.135 30.1808 161.298 30.127 161.435 30.0462C161.571 29.9654 161.626 29.8308 161.626 29.6962C161.626 29.5077 161.571 29.3731 161.489 29.2923C161.38 29.2116 161.217 29.1847 160.944 29.1577H160.371L160.343 30.1808Z" fill="#54565A"/>
<path d="M113.545 20.3269L103.285 8.23845C102.166 6.94614 100.174 6.81153 98.8913 7.91537C97.5815 9.01922 97.4451 10.9846 98.5639 12.25L105.686 20.3538L98.5639 28.4577C97.4451 29.75 97.6088 31.6885 98.8913 32.7923C100.201 33.8961 102.166 33.7346 103.285 32.4692L113.545 20.3269Z" fill="#881554"/>
<path d="M90.5139 25.1731C89.1768 27.0847 86.9392 28.2693 84.5106 28.2693C81.3179 28.2693 78.5073 26.0347 77.3339 22.6423H97.2267L97.3086 22.1308C97.445 21.2693 97.445 20.8116 97.445 20.0577C97.445 12.7885 91.6327 7.08081 84.2104 7.08081C76.9792 7.08081 71.3306 13.0039 71.3306 20.5693C71.3306 27.5154 77.4158 33.5731 84.3469 33.5731C89.7772 33.5731 94.5525 30.2616 96.5718 25.1462L90.5139 25.1731ZM84.3196 12.4385C87.867 12.4385 90.9232 14.9423 91.5236 18.2539H77.1702C77.8524 14.6462 81.2906 12.4385 84.3196 12.4385Z" fill="#54565A"/>
<path d="M140.887 25.1731C139.55 27.0847 137.312 28.2693 134.884 28.2693C131.691 28.2693 128.88 26.0347 127.707 22.6423H147.6L147.682 22.1308C147.818 21.2693 147.818 20.8116 147.818 20.0577C147.818 12.7885 142.006 7.08081 134.583 7.08081C127.352 7.08081 121.704 13.0039 121.704 20.5693C121.704 27.5154 127.789 33.5731 134.72 33.5731C140.15 33.5731 144.926 30.2616 146.945 25.1462L140.887 25.1731ZM134.693 12.4385C138.24 12.4385 141.296 14.9423 141.897 18.2539H127.543C128.225 14.6462 131.664 12.4385 134.693 12.4385Z" fill="#54565A"/>
<path d="M120.23 7.88842C118.921 6.78457 116.956 6.94611 115.837 8.21149L111.389 13.3269L115.455 18.1192L120.585 12.223C121.677 10.9576 121.513 8.99226 120.23 7.88842Z" fill="#54565A"/>
<path d="M120.558 28.2962L115.482 22.4539L111.417 27.2462L115.81 32.3077C116.929 33.6 118.921 33.7346 120.203 32.6308C121.54 31.5539 121.677 29.5885 120.558 28.2962Z" fill="#54565A"/>
</g>
<defs>
<clipPath id="clip0_2316_78">
<rect width="164" height="42" fill="white"/>
</clipPath>
</defs>
</svg>
