<svg width="263" height="61" viewBox="0 0 263 61" fill="none" xmlns="http://www.w3.org/2000/svg">
<path d="M45.3396 0H15.1132C6.7664 0 0 6.7664 0 15.1132V45.3396C0 53.6864 6.7664 60.4528 15.1132 60.4528H45.3396C53.6864 60.4528 60.4528 53.6864 60.4528 45.3396V15.1132C60.4528 6.7664 53.6864 0 45.3396 0Z" fill="#D0281E"/>
<g filter="url(#filter0_d_2316_139)">
<path d="M31.9974 46.5794C33.06 46.5794 34.1423 46.5203 35.2443 46.4022C36.3464 46.2842 37.4188 46.1169 38.4618 45.9004C39.5048 45.684 40.4887 45.4577 41.4136 45.2215C42.3385 44.9854 43.1355 44.7492 43.8046 44.5131V15.4084C42.9781 15.2116 42.1319 15.0739 41.266 14.9951C40.4001 14.9164 39.5933 14.8771 38.8455 14.8771C38.0584 14.8771 37.2417 14.9164 36.3955 14.9951C35.5494 15.0739 34.6933 15.2116 33.8275 15.4084V37.783C33.6701 37.8224 33.4142 37.8617 33.06 37.9011C32.7058 37.9404 32.1942 37.9601 31.5251 37.9601C29.9114 37.9601 28.711 37.5272 27.9239 36.6613C27.1368 35.7955 26.7432 34.1818 26.7432 31.8204V15.4084C25.9167 15.2116 25.0705 15.0739 24.2046 14.9951C23.3388 14.9164 22.532 14.8771 21.7842 14.8771C20.997 14.8771 20.1804 14.9164 19.3342 14.9951C18.488 15.0739 17.632 15.2116 16.7661 15.4084V32.6469C16.7661 35.7167 17.1794 38.1667 18.0059 39.9968C18.8324 41.827 19.9442 43.2241 21.3414 44.1884C22.7386 45.1526 24.3621 45.7922 26.2119 46.1071C28.0616 46.4219 29.9902 46.5794 31.9974 46.5794Z" fill="white"/>
</g>
<path d="M31.9974 46.5794C33.06 46.5794 34.1423 46.5203 35.2443 46.4022C36.3464 46.2842 37.4188 46.1169 38.4618 45.9004C39.5048 45.684 40.4887 45.4577 41.4136 45.2215C42.3385 44.9854 43.1355 44.7492 43.8046 44.5131V15.4084C42.9781 15.2116 42.1319 15.0739 41.266 14.9951C40.4001 14.9164 39.5933 14.8771 38.8455 14.8771C38.0584 14.8771 37.2417 14.9164 36.3955 14.9951C35.5494 15.0739 34.6933 15.2116 33.8275 15.4084V37.783C33.6701 37.8224 33.4142 37.8617 33.06 37.9011C32.7058 37.9404 32.1942 37.9601 31.5251 37.9601C29.9114 37.9601 28.711 37.5272 27.9239 36.6613C27.1368 35.7955 26.7432 34.1818 26.7432 31.8204V15.4084C25.9167 15.2116 25.0705 15.0739 24.2046 14.9951C23.3388 14.9164 22.532 14.8771 21.7842 14.8771C20.997 14.8771 20.1804 14.9164 19.3342 14.9951C18.488 15.0739 17.632 15.2116 16.7661 15.4084V32.6469C16.7661 35.7167 17.1794 38.1667 18.0059 39.9968C18.8324 41.827 19.9442 43.2241 21.3414 44.1884C22.7386 45.1526 24.3621 45.7922 26.2119 46.1071C28.0616 46.4219 29.9902 46.5794 31.9974 46.5794Z" fill="white"/>
<path d="M91.5087 41.5424C92.9445 41.5424 94.3236 41.4101 95.646 41.1456C96.9684 40.8812 98.0326 40.6104 98.8386 40.3333V21.5552C97.9318 21.404 97.0377 21.3285 96.1561 21.3285C95.2996 21.3285 94.418 21.404 93.5112 21.5552V36.8573C92.8815 37.0336 92.1007 37.1218 91.1687 37.1218C90.4886 37.1218 89.8967 37.0399 89.3929 36.8762C88.8891 36.7124 88.4672 36.4354 88.1272 36.0449C87.7871 35.6545 87.5352 35.1256 87.3715 34.4581C87.2078 33.7906 87.1259 32.9404 87.1259 31.9077V21.5552C86.2191 21.404 85.3249 21.3285 84.4433 21.3285C83.5617 21.3285 82.6675 21.404 81.7607 21.5552V32.0588C81.7607 34.1495 82.0252 35.8245 82.5542 37.084C83.0831 38.3434 83.7947 39.3006 84.6889 39.9555C85.5831 40.6104 86.6221 41.0386 87.806 41.2401C88.9899 41.4416 90.2241 41.5424 91.5087 41.5424ZM111.391 41.5424C113.129 41.5424 114.691 41.2968 116.076 40.8056C117.462 40.3144 118.633 39.6154 119.59 38.7086C120.547 37.8019 121.278 36.6998 121.782 35.4026C122.285 34.1054 122.537 32.6382 122.537 31.0009C122.537 29.3133 122.336 27.8523 121.933 26.6181C121.53 25.3838 120.976 24.3574 120.27 23.5388C119.565 22.7201 118.728 22.1093 117.758 21.7063C116.788 21.3033 115.736 21.1018 114.603 21.1018C113.469 21.1018 112.462 21.3222 111.58 21.763C110.699 22.2038 110.069 22.7642 109.691 23.4443V13.4696C108.784 13.3185 107.89 13.2429 107.008 13.2429C106.152 13.2429 105.27 13.3185 104.364 13.4696V40.4467C104.842 40.623 105.371 40.7804 105.951 40.9189C106.53 41.0575 107.134 41.1708 107.764 41.259C108.394 41.3472 109.017 41.4164 109.634 41.4668C110.252 41.5172 110.837 41.5424 111.391 41.5424ZM111.694 37.084C111.341 37.084 110.995 37.0714 110.655 37.0462C110.314 37.021 109.993 36.958 109.691 36.8573V29.7541C109.691 28.3183 110.012 27.2667 110.655 26.5992C111.297 25.9317 112.122 25.598 113.129 25.598C114.515 25.598 115.497 26.0702 116.076 27.0148C116.656 27.9594 116.945 29.3385 116.945 31.152C116.945 33.1923 116.479 34.6911 115.547 35.6482C114.615 36.6054 113.331 37.084 111.694 37.084ZM136.677 41.5424C139.145 41.5424 141.362 41.1645 143.327 40.4089C143.301 39.6028 143.188 38.8472 142.987 38.1419C142.785 37.4366 142.546 36.8321 142.269 36.3283C141.463 36.6306 140.613 36.8636 139.718 37.0273C138.824 37.191 137.949 37.2729 137.092 37.2729C135.531 37.2729 134.271 36.9328 133.314 36.2528C132.357 35.5727 131.828 34.477 131.727 32.9656H144.271C144.322 32.6886 144.366 32.317 144.403 31.851C144.441 31.385 144.46 30.9128 144.46 30.4342C144.46 29.1244 144.271 27.8964 143.893 26.7503C143.516 25.6042 142.955 24.6156 142.212 23.7844C141.469 22.9531 140.568 22.2982 139.511 21.8197C138.453 21.3411 137.244 21.1018 135.883 21.1018C134.322 21.1018 132.955 21.3726 131.784 21.9141C130.613 22.4557 129.63 23.1924 128.837 24.1244C128.043 25.0564 127.445 26.1521 127.042 27.4115C126.639 28.671 126.438 30.0186 126.438 31.4543C126.438 32.9153 126.633 34.2628 127.023 35.4971C127.414 36.7313 128.018 37.7956 128.837 38.6898C129.656 39.5839 130.713 40.2829 132.011 40.7867C133.308 41.2905 134.863 41.5424 136.677 41.5424ZM139.397 29.2251H131.765C131.891 27.9405 132.281 26.9455 132.936 26.2403C133.591 25.535 134.548 25.1823 135.808 25.1823C136.916 25.1823 137.779 25.5539 138.396 26.2969C139.013 27.04 139.347 28.0161 139.397 29.2251ZM152.101 41.3157C152.529 41.3157 152.97 41.3031 153.423 41.2779C153.877 41.2527 154.33 41.2023 154.784 41.1268V31.8321C154.784 30.472 154.941 29.414 155.256 28.6584C155.571 27.9027 155.967 27.336 156.446 26.9581C156.925 26.5803 157.428 26.3473 157.957 26.2592C158.486 26.171 158.965 26.1269 159.393 26.1269H160.017C160.357 26.1269 160.665 26.1521 160.942 26.2025C161.043 25.7491 161.112 25.2705 161.15 24.7667C161.188 24.263 161.207 23.797 161.207 23.3688C161.207 23.0161 161.194 22.6761 161.169 22.3486C161.144 22.0212 161.106 21.7315 161.056 21.4796C160.904 21.4292 160.665 21.3914 160.338 21.3663C160.01 21.3411 159.721 21.3285 159.469 21.3285C158.26 21.3285 157.252 21.637 156.446 22.2542C155.64 22.8713 154.96 23.5703 154.406 24.3511C154.381 24.1748 154.349 23.9544 154.311 23.6899C154.274 23.4254 154.229 23.1609 154.179 22.8965C154.129 22.632 154.072 22.3801 154.009 22.1408C153.946 21.9015 153.877 21.7189 153.801 21.593C153.449 21.5174 153.09 21.4544 152.724 21.404C152.359 21.3537 151.988 21.3285 151.61 21.3285C151.207 21.3285 150.835 21.3474 150.495 21.3851C150.155 21.4229 149.796 21.4796 149.418 21.5552V41.1268C149.897 41.2023 150.357 41.2527 150.797 41.2779C151.238 41.3031 151.673 41.3157 152.101 41.3157ZM169.754 41.5424C171.089 41.5424 172.286 41.3723 173.344 41.0323C174.402 40.6922 175.302 40.2263 176.045 39.6343C176.788 39.0424 177.355 38.3434 177.745 37.5374C178.136 36.7313 178.331 35.8623 178.331 34.9303C178.331 34.0236 178.218 33.2553 177.991 32.6256C177.764 31.9959 177.449 31.4669 177.046 31.0387C176.643 30.6105 176.159 30.2516 175.592 29.9619C175.025 29.6722 174.389 29.4266 173.684 29.2251L171.53 28.5828C170.9 28.3813 170.416 28.1672 170.076 27.9405C169.735 27.7138 169.565 27.3234 169.565 26.7692C169.565 26.1899 169.805 25.768 170.283 25.5035C170.762 25.239 171.429 25.1068 172.286 25.1068C173.092 25.1068 173.86 25.2012 174.591 25.3901C175.321 25.5791 175.989 25.7995 176.593 26.0513C176.87 25.5224 177.109 24.9053 177.311 24.2C177.512 23.4947 177.638 22.8146 177.689 22.1597C176.706 21.8071 175.737 21.5426 174.78 21.3663C173.822 21.1899 172.853 21.1018 171.87 21.1018C169.502 21.1018 167.632 21.6433 166.259 22.7264C164.887 23.8096 164.2 25.3083 164.2 27.2226C164.2 28.8095 164.597 29.9997 165.39 30.7931C166.184 31.5866 167.286 32.1848 168.696 32.5878L171.039 33.2679C171.694 33.4694 172.204 33.7024 172.569 33.9669C172.934 34.2314 173.117 34.6659 173.117 35.2704C173.117 35.6986 172.997 36.0449 172.758 36.3094C172.519 36.5739 172.223 36.788 171.87 36.9517C171.518 37.1155 171.133 37.2288 170.718 37.2918C170.302 37.3548 169.918 37.3862 169.565 37.3862C168.759 37.3862 167.985 37.3044 167.242 37.1406C166.499 36.9769 165.712 36.7313 164.88 36.4039C164.578 37.0588 164.333 37.7326 164.144 38.4253C163.955 39.118 163.835 39.8043 163.785 40.4844C164.314 40.686 164.805 40.8497 165.258 40.9756C165.712 41.1016 166.171 41.2086 166.637 41.2968C167.103 41.3849 167.588 41.4479 168.092 41.4857C168.596 41.5235 169.15 41.5424 169.754 41.5424ZM192.244 41.5424C194.712 41.5424 196.929 41.1645 198.894 40.4089C198.869 39.6028 198.755 38.8472 198.554 38.1419C198.352 37.4366 198.113 36.8321 197.836 36.3283C197.03 36.6306 196.18 36.8636 195.285 37.0273C194.391 37.191 193.516 37.2729 192.66 37.2729C191.098 37.2729 189.838 36.9328 188.881 36.2528C187.924 35.5727 187.395 34.477 187.294 32.9656H199.838C199.889 32.6886 199.933 32.317 199.971 31.851C200.008 31.385 200.027 30.9128 200.027 30.4342C200.027 29.1244 199.838 27.8964 199.46 26.7503C199.083 25.6042 198.522 24.6156 197.779 23.7844C197.036 22.9531 196.136 22.2982 195.078 21.8197C194.02 21.3411 192.811 21.1018 191.451 21.1018C189.889 21.1018 188.522 21.3726 187.351 21.9141C186.18 22.4557 185.197 23.1924 184.404 24.1244C183.611 25.0564 183.012 26.1521 182.609 27.4115C182.206 28.671 182.005 30.0186 182.005 31.4543C182.005 32.9153 182.2 34.2628 182.59 35.4971C182.981 36.7313 183.585 37.7956 184.404 38.6898C185.223 39.5839 186.281 40.2829 187.578 40.7867C188.875 41.2905 190.43 41.5424 192.244 41.5424ZM194.964 29.2251H187.332C187.458 27.9405 187.849 26.9455 188.503 26.2403C189.158 25.535 190.116 25.1823 191.375 25.1823C192.483 25.1823 193.346 25.5539 193.963 26.2969C194.58 27.04 194.914 28.0161 194.964 29.2251ZM219.608 41.3157C220.489 41.3157 221.383 41.2401 222.29 41.089V28.6206C222.29 26.0262 221.73 24.1244 220.609 22.9154C219.488 21.7063 217.819 21.1018 215.603 21.1018C214.897 21.1018 214.255 21.1962 213.676 21.3851C213.096 21.5741 212.574 21.8197 212.108 22.1219C211.642 22.4242 211.232 22.7642 210.88 23.1421C210.527 23.5199 210.225 23.8977 209.973 24.2755C209.948 24.0992 209.916 23.8851 209.878 23.6332C209.841 23.3814 209.797 23.1232 209.746 22.8587C209.696 22.5942 209.639 22.3423 209.576 22.103C209.513 21.8637 209.444 21.6811 209.368 21.5552C209.016 21.4796 208.676 21.4229 208.348 21.3851C208.021 21.3474 207.643 21.3285 207.215 21.3285C206.787 21.3285 206.396 21.3474 206.043 21.3851C205.691 21.4229 205.338 21.4796 204.986 21.5552V41.089C205.892 41.2401 206.787 41.3157 207.668 41.3157C208.55 41.3157 209.444 41.2401 210.351 41.089V30.8498C210.351 29.7919 210.464 28.9354 210.691 28.2805C210.917 27.6256 211.213 27.1156 211.579 26.7503C211.944 26.3851 212.353 26.1395 212.807 26.0136C213.26 25.8876 213.701 25.8246 214.129 25.8246C215.162 25.8246 215.886 26.1899 216.302 26.9204C216.717 27.6508 216.925 28.6962 216.925 30.0563V41.089C217.832 41.2401 218.726 41.3157 219.608 41.3157ZM232.727 41.5424C234.062 41.5424 235.258 41.3723 236.316 41.0323C237.374 40.6922 238.275 40.2263 239.018 39.6343C239.761 39.0424 240.328 38.3434 240.718 37.5374C241.108 36.7313 241.304 35.8623 241.304 34.9303C241.304 34.0236 241.19 33.2553 240.964 32.6256C240.737 31.9959 240.422 31.4669 240.019 31.0387C239.616 30.6105 239.131 30.2516 238.564 29.9619C237.998 29.6722 237.362 29.4266 236.656 29.2251L234.503 28.5828C233.873 28.3813 233.388 28.1672 233.048 27.9405C232.708 27.7138 232.538 27.3234 232.538 26.7692C232.538 26.1899 232.777 25.768 233.256 25.5035C233.734 25.239 234.402 25.1068 235.258 25.1068C236.064 25.1068 236.833 25.2012 237.563 25.3901C238.294 25.5791 238.961 25.7995 239.566 26.0513C239.843 25.5224 240.082 24.9053 240.284 24.2C240.485 23.4947 240.611 22.8146 240.661 22.1597C239.679 21.8071 238.709 21.5426 237.752 21.3663C236.795 21.1899 235.825 21.1018 234.843 21.1018C232.475 21.1018 230.605 21.6433 229.232 22.7264C227.859 23.8096 227.173 25.3083 227.173 27.2226C227.173 28.8095 227.57 29.9997 228.363 30.7931C229.156 31.5866 230.258 32.1848 231.669 32.5878L234.012 33.2679C234.666 33.4694 235.177 33.7024 235.542 33.9669C235.907 34.2314 236.09 34.6659 236.09 35.2704C236.09 35.6986 235.97 36.0449 235.731 36.3094C235.491 36.5739 235.195 36.788 234.843 36.9517C234.49 37.1155 234.106 37.2288 233.69 37.2918C233.275 37.3548 232.891 37.3862 232.538 37.3862C231.732 37.3862 230.957 37.3044 230.214 37.1406C229.471 36.9769 228.684 36.7313 227.853 36.4039C227.551 37.0588 227.305 37.7326 227.116 38.4253C226.927 39.118 226.808 39.8043 226.757 40.4844C227.286 40.686 227.777 40.8497 228.231 40.9756C228.684 41.1016 229.144 41.2086 229.61 41.2968C230.076 41.3849 230.561 41.4479 231.064 41.4857C231.568 41.5235 232.122 41.5424 232.727 41.5424ZM255.217 41.5424C257.685 41.5424 259.902 41.1645 261.866 40.4089C261.841 39.6028 261.728 38.8472 261.526 38.1419C261.325 37.4366 261.085 36.8321 260.808 36.3283C260.002 36.6306 259.152 36.8636 258.258 37.0273C257.364 37.191 256.489 37.2729 255.632 37.2729C254.07 37.2729 252.811 36.9328 251.854 36.2528C250.897 35.5727 250.368 34.477 250.267 32.9656H262.811C262.861 32.6886 262.905 32.317 262.943 31.851C262.981 31.385 263 30.9128 263 30.4342C263 29.1244 262.811 27.8964 262.433 26.7503C262.055 25.6042 261.495 24.6156 260.752 23.7844C260.009 22.9531 259.108 22.2982 258.05 21.8197C256.992 21.3411 255.783 21.1018 254.423 21.1018C252.861 21.1018 251.495 21.3726 250.324 21.9141C249.152 22.4557 248.17 23.1924 247.377 24.1244C246.583 25.0564 245.985 26.1521 245.582 27.4115C245.179 28.671 244.977 30.0186 244.977 31.4543C244.977 32.9153 245.173 34.2628 245.563 35.4971C245.953 36.7313 246.558 37.7956 247.377 38.6898C248.195 39.5839 249.253 40.2829 250.55 40.7867C251.848 41.2905 253.403 41.5424 255.217 41.5424ZM257.937 29.2251H250.305C250.431 27.9405 250.821 26.9455 251.476 26.2403C252.131 25.535 253.088 25.1823 254.348 25.1823C255.456 25.1823 256.319 25.5539 256.936 26.2969C257.553 27.04 257.887 28.0161 257.937 29.2251Z" fill="black"/>
<defs>
<filter id="filter0_d_2316_139" x="16.7661" y="14.8771" width="31.0386" height="35.7023" filterUnits="userSpaceOnUse" color-interpolation-filters="sRGB">
<feFlood flood-opacity="0" result="BackgroundImageFix"/>
<feColorMatrix in="SourceAlpha" type="matrix" values="0 0 0 0 0 0 0 0 0 0 0 0 0 0 0 0 0 0 127 0" result="hardAlpha"/>
<feOffset dx="4" dy="4"/>
<feColorMatrix type="matrix" values="0 0 0 0 0 0 0 0 0 0 0 0 0 0 0 0 0 0 0.1 0"/>
<feBlend mode="normal" in2="BackgroundImageFix" result="effect1_dropShadow_2316_139"/>
<feBlend mode="normal" in="SourceGraphic" in2="effect1_dropShadow_2316_139" result="shape"/>
</filter>
</defs>
</svg>
