<svg width="463" height="106" viewBox="0 0 463 106" xmlns="http://www.w3.org/2000/svg" xmlns:xlink="http://www.w3.org/1999/xlink"><title>logo</title><g id="Portfolio" stroke="none" stroke-width="1" fill="none" fill-rule="evenodd"><g id="logo" fill-rule="nonzero"><path d="M62.9147909 61.5577524C62.9147909 60.9952142 62.1915275 60.6335825 62.1915275 60.6335825L55.1597999 56.6154524C53.3114601 57.7003475 17.3090148 78.5142612 14.0945108 80.1215132 13.5006643 80.3244368 12.8722 80.4064104 12.246171 80.362601 11.7305052 80.3834736 11.2314627 80.1779855 10.8800068 79.8000628 10.3644086 79.1655639 10.093522 78.3671611 10.116562 77.54991V2.33051543C7.55749024 3.63319134 5.07553705 5.08211536 2.68302145 6.67009588 1.05206261 8.07751518.137840004 10.1418888.191780822 12.295478c0 .7232634000000004.0 75.05866929999999.0 81.04568309999999C.102940409 94.2649509.376702793 95.1870979.955225531 95.9127643 1.34664403 96.2757912 1.86869989 96.4643114 2.40175235 96.4351212 3.38133959 96.3562386 4.3298041 96.0538296 5.17426208 95.5511326 5.73680029 95.2296822 60.785182 63.9686304 62.3120714 62.6426475 62.6802609 62.4031591 62.9059669 61.9968882 62.9147909 61.5577524z" id="Path" fill="#d13446"/><path d="M86.7824834 57.2181719C86.2601265 56.9369028 34.8682432 26.8411087 32.979722 26.1580266 32.7274871 26.1102047 32.4685122 26.1102047 32.2162773 26.1580266 31.946439 26.1463623 31.6840759 26.2483924 31.4930139 26.4392957 31.2612712 26.7669654 31.1479094 27.1637319 31.1715635 27.5643721v8.0362601C33.0199033 36.6855274 68.9821673 57.499441 72.0761274 59.3477808 73.3217477 60.0710442 73.9244672 60.8746703 73.9244672 61.7184776 73.9244672 62.5622849 72.1966713 64.0891743 72.0761274 64.1293556L6.90205801 101.497965C7.86640922 102.060503 11.9247206 104.391019 14.5766864 105.516095 15.2963477 105.840346 16.077712 106.004844 16.8670205 105.99846 18.1304253 105.972067 19.3643334 105.611599 20.4431563 104.953557L86.7021208 66.7009588C89.3139053 65.2142507 90.7202509 63.6069987 90.7202509 61.9595654 90.599707 59.2674182 86.8226647 57.2181719 86.7824834 57.2181719z" id="Path" fill="#d13446"/><path d="M15.9428506 69.6743751C15.9428506 70.598545 16.264301 71.000358 16.8268392 71.000358 17.2670098 70.9619459 17.6928155 70.8245892 18.0724595 70.598545L25.1845497 66.9420466c0 0 0-43.074354099999994.0-47.1728468C25.0690658 18.7185283 25.3722315 17.6646667 26.028357 16.8359649 26.3925524 16.4814102 26.8866819 16.2924784 27.3945213 16.313608 28.1624986 16.3618585 28.9071931 16.5962994 29.5643115 16.9966901L90.3988004 52.2356907C90.3988004 51.2713394 90.3988004 47.6148411 90.1978939 44.6414249 90.2478438 41.8923523 88.6727285 39.3721678 86.1797639 38.2124168 85.6172257 37.8106038 26.2292635 3.77704225 20.9655132.843807311 20.1640235.349478593 19.2533246.0597107589 18.3135473 397813293e-22 17.75397-.0245015588 17.2113811.195466928 16.8268392.602719508 16.2160091 1.42532067 15.9041634 2.4317318 15.9428506 3.45559184V69.6743751z" id="Path" fill="#d13446"/><path d="M243.047561 36.9266152C233.524593 36.9266152 228.702837 42.391272 228.702837 52.9991354V67.8260352C228.702837 76.9873718 233.926406 82.4520286 242.645748 82.4520286 246.4713 82.9148347 250.307176 81.6749783 253.138107 79.0606207 255.969039 76.4462632 257.509624 72.7209732 257.352104 68.8707491V66.7009588L248.87385 68.3082109C248.87385 74.7774002 245.217351 75.7015701 243.087742 75.7015701 239.270519 75.7819327 237.261454 73.2906921 237.261454 68.3082109V60.9952142H257.352104V52.9589541C257.716107 49.49243 257.000399 45.9980903 255.302858 42.9538102 252.598475 38.8875105 247.919173 36.5862148 243.047561 36.9266152v0zM248.672943 54.0036679V54.6465687H237.261454V51.3115207C237.261454 46.4495834 239.190156 43.9583427 242.967198 43.9583427 245.538802 43.9583427 248.592581 45.2441444 248.592581 51.3115207L248.672943 54.0036679z" id="Shape" fill="#333f48"/><path d="M446.204216 48.539011C446.417368 45.2239273 445.170244 41.9813973 442.790584 39.6635466 440.410924 37.3456959 437.136704 36.1843187 433.828376 36.4846209 424.466133 36.4846209 418.680026 41.6680086 418.358575 50.3471695v0 0V51.6329711L426.635923 50.2266256C427.238643 45.8468639 429.207526 43.6368923 432.502393 43.6368923 435.79726 43.6368923 437.324149 45.8066826 437.324149 50.1060817V52.275872H436.962517L433.386382 53.9233053C430.467871 55.2104991 427.670752 56.7569835 425.028671 58.5441548 420.236847 61.4805082 417.326766 66.7064654 417.354043 72.3263409 417.085349 74.9828805 417.978755 77.6258041 419.804173 79.574457 421.629591 81.5231099 424.208602 82.5870274 426.877011 82.4922099 430.665416 82.7498313 434.300802 80.9551469 436.399979 77.7909978L437.404512 76.5453775V78.1526295L437.685781 81.7689465H446.686392C446.271701 79.595793 446.043178 77.3912203 446.00331 75.1792132L446.204216 48.539011zM437.283968 59.9505003V71.5227149v0C434.390914 74.6970376 433.265838 75.5408449 430.734416 75.5408449 428.202994 75.5408449 426.113566 73.8532303 426.113566 70.8396328 426.113566 66.5402336 429.086982 63.1248231 436.11871 59.4281434L437.04288 58.9459678 437.283968 59.9505003z" id="Shape" fill="#333f48"/><path d="M132.348078 22.4211657H118.445348V81.8894904H132.348078C136.931304 82.3250325 141.481264 80.7742423 144.844463 77.6302726 147.861173 73.8611801 149.378127 69.1099642 149.10368 64.2900808V39.980394C149.356493 35.1107039 147.747613 30.3271592 144.603375 26.6000209 141.306141 23.514763 136.843327 21.9930166 132.348078 22.4211657zM139.50035 65.0535255C139.50035 71.9245279 137.410922 74.0943181 130.86137 74.0943181H128.169223V30.0957941H130.86137C137.250197 30.0957941 139.50035 32.5066721 139.50035 39.2973119V65.0133442 65.0535255z" id="Shape" fill="#333f48"/><path id="Path" fill="#333f48" d="M166.582546 21.7782649H157.943567V23.8676925 26.077664 30.1761567H166.582546V28.0867291 26.2785705z"/><path id="Path" fill="#333f48" d="M166.582546 37.569516H157.943567V50.146263 69.1520182 81.8894904H166.582546V69.1520182 49.8248126z"/><path d="M213.634849 36.9266152C209.733882 37.0722566 206.073866 38.8512282 203.549343 41.8287338L203.026986 42.3109094 202.625173 41.7081899C199.852663 37.6900599 198.607043 36.9266152 195.472901 36.9266152 191.764836 37.1193036 188.296134 38.8173708 185.86957 41.6278273L184.824857 42.5519972V37.569516H176.185877V81.7689465H185.025763V47.0924842H185.266851C186.929403 45.569418 189.047916 44.6372723 191.294046 44.4405184 192.539666 44.4405184 194.709457 45.0030566 194.709457 48.9810053V82.0903969H203.388617V47.0924842H203.629705C205.194637 45.5499941 207.204538 44.5380161 209.375631 44.1994306 210.982883 44.1994306 212.871404 45.0030566 212.871404 48.8202801V81.9296717H221.550565V46.2084956C221.510384 41.989459 220.14422 36.9266152 213.634849 36.9266152z" id="Path" fill="#333f48"/><path d="M284.233394 36.9266152C280.663924 37.0752667 277.304339 38.6536926 274.911332 41.3063769L273.866619 42.2305468V37.569516H265.187458V81.7689465H273.826437V47.0523029H274.107706C275.743877 45.5275029 277.802847 44.5330347 280.014358 44.1994306 282.224329 44.1994306 283.590493 45.9272265 283.590493 48.7399175V81.8493091H292.14911V46.2084956C292.189292 40.1813005 289.497144 36.9266152 284.233394 36.9266152z" id="Path" fill="#333f48"/><path d="M314.0881 55.3698321C309.226163 51.7936963 307.618911 50.1864443 307.618911 47.8961102 307.618911 45.6769582 309.417889 43.8779801 311.637041 43.8779801 314.289007 43.8779801 316.137347 45.8066826 316.900791 49.3024557L324.454876 48.6193736C322.968168 40.8643826 318.588406 36.9667965 311.476316 36.9667965 304.987214 36.6946525 299.50348 41.7288996 299.221019 48.2175606 299.221019 53.5616736 302.114073 57.4592597 310.230695 63.0444605 315.052452 66.459871 316.53916 68.2680296 316.53916 70.7994515 316.563411 72.0072846 316.083079 73.1705582 315.213725 74.0094093 314.34437 74.8482604 313.164689 75.2867533 311.958491 75.2193945 308.261812 75.2193945 307.016191 73.411236 305.770571 68.3885735L298.296849 70.3172759C299.944283 78.6749864 304.404407 82.371666 312.360304 82.371666 315.667189 82.548288 318.901098 81.3566835 321.302763 79.0766212 323.704429 76.7965588 325.062309 73.6288707 325.057608 70.3172759 325.017414 64.8928003 322.887805 61.9193841 314.0881 55.3698321z" id="Path" fill="#333f48"/><path id="Path" fill="#333f48" d="M340.848846 37.569516H332.169686V44.8825127 67.7456726 81.8894904H340.848846V67.7456726 44.1994306z"/><path id="Path" fill="#333f48" d="M340.848846 21.7782649H332.169686V24.1087803 26.7607461 30.1761567H340.848846V28.5287234 25.1936754z"/><path d="M362.546749 36.8060713C353.546137 36.8060713 348.161843 42.7127224 348.161843 52.5973224V66.861684C348.161843 76.7864653 353.505956 82.9342042 362.466386 82.9342042 371.426816 82.9342042 376.851292 76.9873718 376.851292 66.861684V52.5973224C376.851292 42.6725411 371.507179 36.8060713 362.546749 36.8060713zM367.931043 67.9867604C367.931043 73.009423 366.082703 75.5408449 362.466386 75.5408449 360.015327 75.5408449 357.082092 74.214862 357.082092 67.9867604V51.4722459C357.082092 46.529946 358.930432 43.998524 362.627111 43.998524 366.323791 43.998524 367.931043 46.529946 367.931043 51.4722459V67.9867604z" id="Shape" fill="#333f48"/><path d="M402.44678 36.9266152C398.87731 37.0752667 395.517725 38.6536926 393.124718 41.3063769L392.080005 42.2305468V37.569516H383.400844V81.7689465H392.080005V47.0523029H392.361274C393.997445 45.5275029 396.056414 44.5330347 398.267925 44.1994306 400.477896 44.1994306 401.844061 45.9272265 401.844061 48.7399175V81.8493091H410.402678V46.2084956C410.402678 40.1813005 407.750712 36.9266152 402.44678 36.9266152z" id="Path" fill="#333f48"/><path id="Path" fill="#333f48" d="M455.003921 81.8894904H463V68.4689361 37.167703 22.4211657H455.003921V37.8507851 67.3840409z"/></g></g></svg>