<svg width="361" height="92" viewBox="0 0 361 92" xmlns="http://www.w3.org/2000/svg" xmlns:xlink="http://www.w3.org/1999/xlink"><title>harvard</title><g id="Portfolio" stroke="none" stroke-width="1" fill="none" fill-rule="evenodd"><g id="harvard" transform="translate(1.000000, 1.000000)"><path d="M340.189 10.405C336.543 10.405 331.731 10.766 330.031 10.766 329.022 10.766 325.189 10.63 324.037 10.63V11.576C326.054 11.955 327.149 12.679 327.149 14.525V41.293C327.149 43.192 326.025 44.012 323.95 44.378V45.346C325.103 45.346 328.647 45.188 329.699 45.188 331.385 45.188 335.852 45.48 339.511 45.48 352.219 45.48 360 37.937 360 27.762 360 17.286 352.536 10.406 340.189 10.406V10.405zM189.736 10.495C187.849 10.495 183.037 10.766 181.336 10.766 180.299 10.766 176.654 10.63 175.487 10.63V11.576C177.677 11.942 178.541 12.983 178.541 14.615V41.204C178.541 43.062 177.417 44.012 175.487 44.378V45.346C176.639 45.346 180.357 45.188 181.279 45.188 182.345 45.188 186.12 45.346 187.273 45.346V44.378C185.198 43.934 184.074 42.985 184.074 41.204V29.294C184.665 29.354 185.155 29.432 185.688 29.519 188.339 29.949 189.794 31.161 190.99 32.693 192.892 35.097 196.321 39.97 198.194 42.261 200.384 44.905 202.603 45.908 205.456 45.908 206.753 45.908 208.482 45.721 209.548 45.48V44.738C207.329 44.637 205.197 42.382 203.583 40.393 201.94 38.42 197.791 32.634 196.321 30.915 195.111 29.508 193.929 28.821 193.929 28.821 199.203 27.532 202.661 24.425 202.661 19.793 202.661 13.936 198.021 10.495 189.736 10.495v0zM299.038 10.495C297.136 10.495 292.338 10.766 290.638 10.766 289.601 10.766 285.97 10.63 284.803 10.63V11.576C286.993 11.942 287.872 12.983 287.872 14.615V41.204C287.872 43.062 286.733 44.012 284.803 44.378V45.346C285.955 45.346 289.644 45.188 290.566 45.188 291.647 45.188 295.436 45.346 296.603 45.346V44.378C294.514 43.934 293.376 42.985 293.376 41.204V29.294C293.966 29.354 294.471 29.432 294.989 29.519 297.641 29.949 299.096 31.161 300.292 32.693 302.194 35.097 305.479 39.97 307.366 42.261 309.542 44.905 311.79 45.908 314.614 45.908 315.939 45.908 317.668 45.721 318.734 45.48V44.738C316.501 44.637 314.412 42.382 312.769 40.393 311.141 38.42 307.093 32.634 305.623 30.915 304.413 29.508 303.231 28.821 303.231 28.821 308.505 27.532 311.963 24.425 311.963 19.793 311.963 13.936 307.323 10.495 299.038 10.495v0zM150.301 10.518C150.301 10.518 149.724 12.77 149.263 13.873L138.198 40.55C137.391 42.449 136.181 43.859 133.99 44.378V45.255L139.012 45.188C139.732 45.188 142.744 45.255 143.903 45.255V44.378C141.958 43.859 141.44 43.097 141.44 42.149 141.44 41.529 141.757 40.577 142.009 39.92L144.307 34.224H157.274L159.753 39.897C160.098 40.733 160.401 41.539 160.401 42.261 160.401 43.093 159.868 43.96 158.168 44.378L158.139 45.255C159.436 45.255 163.182 45.188 164.09 45.188 164.997 45.188 168.916 45.255 170.184 45.255V44.378C167.865 43.794 166.942 42.464 166.121 40.617L154.407 13.894C153.946 12.78 153.399 10.518 153.399 10.518H150.301zM260.136 10.518C260.136 10.518 259.574 12.77 259.113 13.873L248.018 40.55C247.226 42.449 246.03 43.859 243.854 44.378L243.84 45.255 248.969 45.188C249.675 45.188 252.6 45.255 253.738 45.255V44.378C251.808 43.859 251.303 43.097 251.303 42.149 251.303 41.529 251.577 40.577 251.851 39.92L254.127 34.224H267.124L269.602 39.897C269.962 40.733 270.236 41.539 270.236 42.261 270.236 43.093 269.717 43.96 268.017 44.378L267.988 45.255C269.256 45.255 273.031 45.188 273.924 45.188 274.818 45.188 278.766 45.255 280.034 45.255V44.378C277.699 43.794 276.806 42.464 275.985 40.617L264.271 13.894C263.81 12.78 263.233 10.518 263.233 10.518H260.136zM91.644 10.63V11.576C93.344 12.02 94.411 12.766 94.411 14.525V41.429C94.411 43.274 93.265 44.012 91.644 44.378V45.255L97.047 45.188C98.085 45.188 101.982 45.255 102.832 45.255V44.378C101.132 43.934 99.994 43.274 99.994 41.429V28.709H120.058V41.429C120.058 43.274 118.934 44.012 117.306 44.378V45.255C118.156 45.255 121.967 45.188 123.004 45.188L128.501 45.255V44.378C126.794 43.934 125.641 43.201 125.641 41.429V14.525C125.641 12.691 126.866 11.955 128.501 11.576V10.63L123.004 10.766C121.967 10.766 118.156 10.63 117.306 10.63V11.576C119.006 11.955 120.058 12.692 120.058 14.525V25.759H99.994V14.525C99.994 12.691 101.211 11.955 102.832 11.576V10.63C101.982 10.63 98.085 10.766 97.047 10.766 96.161 10.766 92.48 10.63 91.644 10.63zM208.554 10.698v.968C210.528 12.11 211.695 13.339 212.458 15.021L226.118 45.503H228.74L241.174 16.146C242.341 13.398 243.638 12.236 245.742 11.666v-.968C244.531 10.698 241.275 10.855 240.497 10.855 239.633 10.855 236.909 10.698 235.8 10.698v.968C237.183 11.944 238.192 12.684 238.192 13.76 238.192 14.734 237.731 16.009 237.053 17.655L228.61 38.007 219.663 17.676C218.712 15.561 218.193 14.447 218.193 13.625 218.193 12.485 219.49 11.883 220.599 11.666v-.968C219.346 10.698 215.657 10.855 214.793 10.855 213.87 10.855 209.778 10.698 208.554 10.698v0zM188.108 12.701C193.8 12.701 196.941 15.573 196.941 20.266 196.941 23.558 194.895 27.29 188.396 27.29 186.797 27.29 185.183 27.226 184.074 27.088V13.061C185.407326 12.8367992 186.756044 12.7164376 188.108 12.701v0zM297.439 12.701C303.13 12.701 306.242 15.573 306.242 20.266 306.242 23.558 304.196 27.29 297.698 27.29 296.099 27.29 294.485 27.226 293.376 27.088V13.061C294.718987 12.8361193 296.077395 12.7157582 297.439 12.701zM338.546 12.701C348.243 12.701 353.92 19.035 353.92 28.056 353.92 36.747 348.517 42.982 338.157 42.982 336.341 42.982 334.007 42.835 332.768 42.622V13.061C334.094 12.835 336.572 12.701 338.546 12.701v0zM150.56 18.577 156.064 31.432H145.402L150.56 18.577zM260.409 18.577 265.899 31.432H255.266L260.409 18.577z" id="Shape" fill="#231f20"/><path d="M37.354.019.078.028.0 29.844C0 66.399 36.661 89.68 37.027 89.911L37.139 89.983C37.24 89.983 37.47 89.817 37.47 89.817 43.706 85.747 74.772 63.705 74.772 30.031V.08C74.693.005 37.354.0171385158 37.354.0171385158" id="Path" fill="#c5112e"/><path d="M.457 29.828V.107H74.84C74.84.107 74.826 4.535 74.826 30.02 74.826 67.678 37.323 89.753 37.323 89.753 37.323 89.753.463 66.576.463 29.828H.457z" id="Path" stroke="#000" stroke-width="1.33"/><path d="M244.791 61.082C241.131 61.082 238.768 62.975 238.768 66.035 238.768 69.479 242.212 70.742 243.897 71.569 246.174 72.693 248.105 73.579 248.105 75.488 248.105 77.325 246.606 78.485 244.258 78.485 243.191 78.485 241.88 78.197 241.045 77.606 240.252 77.073 239.661 76.144 239.402 75.15H238.912L238.941 78.889C240.267 79.054 241.765 79.746 244.286 79.746 248.479 79.746 250.785 77.642 250.785 74.703 250.785 71.591 248.076 70.32 245.598 69.232 243.552 68.335 241.362 67.208 241.362 65.158 241.362 63.715 242.37 62.344 244.762 62.342 246.88 62.342 248.84 63.097 249.488 65.247H249.978L250.021 61.6C248.393 61.678 247.211 61.082 244.791 61.082v0zM181.365 61.105C175.746 61.105 171.884 65.037 171.884 70.515 171.884 75.683 174.91 79.746 181.495 79.746 184.65 79.746 186.523 78.694 187.849 78.846L188.051 74.862H187.546C186.653 77.426 184.593 78.413 181.783 78.413 176.798 78.413 175.011 73.99 175.011 70.425 175.011 66.071 177.244 62.433 181.38 62.433 183.843 62.433 186.206 63.648 187.215 65.99H187.734L187.575 62.005C185.832 62.096 184.132 61.105 181.365 61.105v0zM264.934 61.105C259.314 61.105 255.453 65.037 255.453 70.515 255.453 75.683 258.508 79.746 265.078 79.746 268.219 79.746 270.121 78.694 271.432 78.846L271.619 74.862H271.115C270.222 77.426 268.176 78.413 265.351 78.413 260.381 78.413 258.58 73.99 258.58 70.425 258.58 66.071 260.813 62.433 264.948 62.433 267.383 62.433 269.775 63.648 270.783 65.99H271.302L271.115 62.005C269.386 62.096 267.7 61.105 264.934 61.105v0zM309.34 61.105C303.707 61.105 300.119 65.332 300.119 70.493 300.119 75.683 303.707 79.746 309.34 79.746 314.959 79.746 318.562 75.64 318.562 70.493 318.562 65.306 314.959 61.105 309.34 61.105zM331.86 61.105C326.227 61.105 322.654 65.332 322.654 70.493 322.654 75.683 326.227 79.746 331.86 79.746 337.48 79.746 341.067 75.64 341.067 70.493 341.067 65.306 337.48 61.105 331.86 61.105zM132.261 61.285C131.916 61.424 131.289 61.443 130.95 61.442H119.676V61.96C120.8 62.148 121.268 62.687 121.268 63.537V77.225C121.268 78.183 120.67 78.68 119.676 78.867V79.364L122.738 79.271H128.429C130.367 79.271 131.39 79.278 133.112 79.429L133.609 75.719 133.112 75.604C132.542 76.958 131.887 77.902 129.582 77.902H124.15V70.65H128.047C128.58 70.65 129.257 70.711 129.531 70.786 130.352 70.989 130.669 71.541 130.907 72.247H131.404C131.404 71.649 131.354 70.343 131.354 69.974 131.354 69.608 131.368 68.392 131.404 67.836H130.907C130.749 68.558 130.367 69.032 129.531 69.209 129.243 69.284 128.587 69.322 128.047 69.322H124.15V62.861H128.926C131.138 62.861 131.75 63.769 132.168 64.91H132.665L132.73 61.285H132.261zM146.67 61.308C144.782 61.308 142.434 61.509 141.555 61.509 141.029 61.509 139.048 61.42 138.45 61.42V61.916C139.48 62.107 140.071 62.485 140.071 63.446V77.246C140.071 78.24 139.487 78.651 138.407 78.846V79.343L141.375 79.271C142.246 79.271 144.422 79.429 146.31 79.429 152.851 79.429 156.842 75.524 156.842 70.267 156.842 64.851 153.01 61.308 146.67 61.308v0zM198.799 61.352C198.799 61.352 198.526 62.515 198.281 63.086L192.575 76.864C192.143 77.851 191.537 78.579 190.414 78.846L190.385 79.321 193.036 79.271C193.411 79.271 194.909 79.321 195.5 79.321L195.514 78.846C194.506 78.579 194.246 78.183 194.246 77.693 194.246 77.376 194.405 76.886 194.549 76.547L195.716 73.601H202.43L203.727 76.526C203.914 76.958 204.044 77.376 204.044 77.743 204.044 78.183 203.756 78.615 202.891 78.846L202.862 79.321C203.525 79.321 205.456 79.271 205.917 79.271 206.378 79.271 208.424 79.321 209.072 79.321L209.087 78.846C207.891 78.543 207.444 77.873 206.998 76.908L200.946 63.086C200.701 62.515 200.413 61.352 200.413 61.352H198.799zM276.662 61.42V61.916C277.541 62.142 278.103 62.532 278.103 63.446V77.311C278.103 78.262 277.498 78.651 276.662 78.846V79.321L279.515 79.271C280.048 79.271 282.065 79.321 282.483 79.321V78.846C281.619 78.615 281.028 78.262 281.028 77.311V70.762H291.287V77.311C291.287 78.262 290.71 78.651 289.875 78.846V79.321C290.321 79.321 292.281 79.271 292.828 79.271L295.71 79.321V78.846C294.831 78.615 294.211 78.233 294.211 77.311V63.446C294.211 62.498 294.845 62.107 295.71 61.916V61.42L292.828 61.509C292.281 61.509 290.321 61.42 289.875 61.42V61.916C290.753 62.107 291.287 62.498 291.287 63.446V69.254H281.028V63.446C281.028 62.498 281.647 62.107 282.483 61.916V61.42C282.065 61.42 280.048 61.509 279.515 61.509L276.662 61.42zM161.078 61.442V61.937C162.144 62.165 162.692 62.655 162.692 63.581V77.225C162.692 78.183 162.173 78.665 161.078 78.867V79.364C161.669 79.364 163.729 79.271 164.205 79.271L167.274 79.364V78.867C166.179 78.644 165.646 78.14 165.646 77.225V63.581C165.646 62.619 166.208 62.165 167.274 61.937V61.442C166.669 61.442 164.68 61.509 164.205 61.509L161.078 61.442zM212.458 61.442V61.937C213.525 62.178 214.072 62.655 214.072 63.581V77.225C214.072 78.183 213.539 78.665 212.458 78.867V79.364C213.049 79.364 215.095 79.271 215.571 79.271H221.32C223.25 79.271 224.288 79.278 226.002 79.429L226.492 75.719 226.002 75.604C225.426 76.958 224.749 77.902 222.443 77.902H217.011V63.581C217.011 62.619 217.573 62.178 218.64 61.937V61.442L215.571 61.509 212.458 61.442zm132.773.0V61.937C346.312 62.178 346.86 62.655 346.86 63.581V77.225C346.86 78.183 346.341 78.665 345.231 78.867V79.364C345.851 79.364 347.911 79.271 348.387 79.271H354.121C356.052 79.271 357.075 79.278 358.79 79.429L359.28 75.719 358.79 75.604C358.213 76.958 357.551 77.902 355.245 77.902H349.828V63.581C349.828 62.619 350.375 62.178 351.441 61.937V61.442C350.836 61.443 348.862 61.509 348.387 61.509L345.231 61.442zM93.056 61.465V61.96C94.108 62.135 94.612 62.674 94.54 63.537L93.525 76.843C93.424 77.895 92.862 78.644 91.724 78.91V79.364L94.274 79.321C94.634 79.321 96.176 79.364 96.766 79.364V78.91C95.571 78.579 95.246 77.895 95.282 77.088L96.046 65.27 102.148 79.386H103.185L109.352 65.224 110.123 77.088C110.166 77.895 109.849 78.579 108.653 78.91V79.364C109.244 79.364 111.362 79.321 111.744 79.321L114.827 79.364V78.91C113.689 78.644 113.134 77.995 113.026 76.843L112.083 63.537C112.011 62.652 112.428 62.187 113.495 61.96V61.465C112.781 61.465 111.585 61.509 111.153 61.509 110.75 61.509 109.878 61.465 109.287 61.465L103.366 75.222 97.487 61.465C96.925 61.465 95.967 61.509 95.556 61.509 95.131 61.509 93.755 61.465 93.056 61.465v0zM309.326 62.41C313.533 62.41 315.377 66.33 315.377 70.493 315.377 74.646 313.533 78.442 309.326 78.442 305.133 78.442 303.245 74.646 303.245 70.493 303.245 66.33 305.133 62.41 309.326 62.41zM331.846 62.41C336.039 62.41 337.898 66.33 337.898 70.493 337.898 74.646 336.039 78.442 331.846 78.442 327.653 78.442 325.78 74.646 325.78 70.493 325.78 66.33 327.653 62.41 331.846 62.41zM145.791 62.501C150.805 62.501 153.744 65.757 153.744 70.402 153.744 75.107 150.949 78.125 145.618 78.125 144.667 78.125 143.586 78.046 142.938 77.945V62.681C143.622 62.567 144.782 62.501 145.791 62.501zM198.958 65.495 201.811 72.138H196.292L198.958 65.495z" id="Shape" fill="#c5112e"/><path d="M52.374 73.19 52.348 73.169H52.426 52.413 52.4C52.161 72.967 51.856 72.578 51.691 72.434 51.399 71.12 53.449 70.245 52.426 68.84 52.187 68.008 52.374 66.944 51.552 66.297 50.972 65.818 50.184 65.727 49.501 65.286 49.501 64.943 49.945 65.047 50.184 64.943 51.261 64.652 52.235 65.97 53.01 64.995 53.109 64.26 52.426 63.627 51.944 63.149 50.337 62.021 47.895 62.465 46.68 60.754L46.831 60.615C48.39 60.946 50.085 60.667 51.261 59.644 51.944 58.769 52.626 57.884 53.69 57.593 54.768 56.771 54.904 55.403 54.904 54.036 54.956 53.504 55.195 53.026 55.587 52.634 56.171 52.089 57.677 52.29 57.386 51.163 56.563 50.735 55.691 50.34 54.717 50.444 54.272 50.205 54.817 49.86 54.956 49.66 56.514 48.633 58.953 48.002 58.854 45.724 58.701 45.471 58.753 45.09 58.361 45.041 57.677 45.127 57.298 45.773 56.664 46.064 55.195 46.886 53.35 46.735 51.944 47.623 51.642 47.623 51.743 47.231 51.843 47.127 52.374 46.395 53.449 46.356 53.841 45.433 54.134 44.696 54.272 43.725 55.096 43.434 55.587 43.042 56.376 43.042 56.664 42.459 56.615 42.116 56.223 41.927 55.932 41.828 54.513 41.384 53.158 42.22 52.187 43.181 51.16 43.621 49.997 44.013 49.213 44.849 49.073 44.888 48.821 44.8 48.821 44.545 48.63 42.611 50.389 41.192 51.642 40.029 52.579 39.776 53.35 38.662 54.425 39.142 55.148 39.537 55.932 39.929 56.802 39.638 57.878 39.246 58.12 38.031 59.093 37.447 59.828 37.208 60.839 38.27 61.283 37.246 61.522 36.181 60.65 35.548 60.168 34.765 60.751 33.259 60.308 31.513 59.093 30.438 58.512 30.093 57.777 29.854 57.095 30.046 56.563 30.729 57.59 31.173 57.638 31.843 57.878 34.626 54.855 35.257 53.057 36.423 49.653 38.13 45.516 40.751 45.277 45.127 45.326 47.571 46.34 49.709 47.999 51.419 48.869 52.922 50.288 54.328 49.743 56.239 49.413 57.01 48.49 57.111 47.755 57.111 44.833 56.909 43.226 53.657 42.012 51.419 41.62 50.532 41.137 49.709 41.036 48.685 41.189 48.545 41.327 48.594 41.48 48.685 42.012 49.177 41.96 50.34 42.886 50.205 43.618 49.177 43.087 47.963 42.695 46.938 42.165 46.016 41.036 45.52 40.593 44.545 40.544 43.826 41.62 44.257 41.672 43.534 41.277 42.267 41.228 40.952 41.379 39.776 41.568 39.246 42.352 39.293 42.352 38.61 42.012 37.396 42.012 36.181 42.064 34.866 42.203 34.082 42.835 33.259 42.404 32.436 41.532 32.183 42.251 31.121 41.428 30.869 39.773 30.869 38.558 29.994 37.139 29.462 36.417 29.275 35.872 29.702 35.293 29.854 34.37 30.046 33.396 30.046 32.763 30.729 32.319 31.261 32.42 31.843 32.42 32.576 32.28 33.02 31.889 32.626 31.697 32.576 31.014 32.183 30.762 31.461 30.965 30.729 31.053 30.386 30.913 30.046 30.622 29.805 30.181 29.514 29.547 29.362 29.015 29.563 28.331 29.805 28.144 30.576 27.853 31.173 27.801 31.652 27.905 32.235 28.144 32.626 29.119 33.651 30.474 34.03 31.548 34.917 31.736 35.497 31.357 36.08 30.965 36.573 30.913 37.107 31.697 37.107 31.597 37.587 30.814 37.79 30.043 37.639 29.459 37.156 29.067 36.815 28.967 36.08 28.331 35.979 27.752 35.979 27.648 36.765 27.409 37.156 27.22 37.587 27.36 38.322 26.978 38.662L26.537 38.61C24.536 37.927 22.741 36.864 20.981 35.548 19.968 34.765 19.235 33.602 18.451 32.576 18.069 31.36 17.869 29.654 16.31 29.275 15.97 29.31 15.539 29.362 15.487 29.753L15.387 30.246C14.616 30.246 13.832 29.702 13.009 29.994 12.617 30.246 12.225 30.537 11.983 30.916 11.934 31.804 13.009 31.461 13.148 32.145 13.148 32.779 13.641 33.311 13.933 33.742L13.148 34.626 12.666 35.841C12.857 36.233 13.096 36.713 13.592 36.765 14.276 36.472 14.856 36.955 15.591 36.864 16.022 36.903 16.754 36.524 16.806 37.246 17.046 37.839 16.806 38.371 16.754 38.901 16.1518339 39.7831922 15.3273699 40.4907133 14.364 40.952 14.072 41.143 14.072 41.584 14.172 41.875 14.516 42.358 15.287 42.168 15.83 42.116 16.855 42.067 17.629 41.483 18.601 41.384 18.843 41.875 19.235 42.459 19.715 42.698 20.499 42.902 20.69 41.828 21.474 42.116 22.105 42.611 21.918 43.534 22.501 44.117 22.536 44.457 22.209 44.457 22.006 44.597 21.183 44.888 20.019 44.597 19.388 45.28 19.284 45.672 19.627 46.016 19.919 46.154 20.638 46.546 21.575 46.647 22.45 46.787 23.22 46.886 24.056 46.595 24.778 46.787L24.536 47.179 22.157 48.785C21.082 49.229 19.919 49.468 18.944 50 17.438 50.392 16.806 48.493 15.438 48.594 14.856 48.594 14.464 48.785 14.072 49.128 13.732 49.468 13.68 50 13.78 50.444 13.984 50.875 14.616 50.683 14.616 51.163 14.564 52.53 13.388 53.504 13.301 54.923 13.249 55.25 13.349 55.694 13.732 55.847 13.984 55.987 14.364 55.896 14.564 55.694 14.856 55.403 14.856 54.959 15.339 54.872 16.172 54.959 17.046 54.959 17.629 54.328 17.917 54.289 18.209 54.58 18.209 54.82 18.209 55.164 18.209 55.556 18.552 55.694 19.767 55.743 20.347 54.48 20.891 53.605 21.425 53.504 22.006 53.112 22.536 53.454 22.741 54.289 22.058 54.872 21.918 55.642 21.957 55.847 22.209 56.034 22.45 56.086 23.903 55.896 24.739 54.529 25.614 53.454 25.751 53.164 25.902 52.769 26.346 52.769 27.461 53.112 27.752 51.759 28.435 51.267H28.724C28.827 51.607 28.585 51.846 28.724 52.19 29.207 52.72 29.75 52.138 30.23 52.05L31.257 51.419C32.472 51.798 33.736 52.089 35.002 52.39 36.025 52.769 35.002 53.849 35.633 54.48 35.493 54.82 35.054 54.923 34.61 54.923 32.472 55.212 29.991 54.632 28.284 56.239L27.256 57.249C25.663 57.301 24.827 58.668 23.372 58.909 22.398 59.592 20.891 58.616 20.26 59.731 20.742 60.754 21.957 61.097 23.032 61.39 23.473 61.59 24.194 61.338 24.435 61.829 24.487 62.312 24.588 62.896 25.17 63.097 25.614 63.236 25.854 62.604 26.246 62.945 26.776 63.679 27.56 64.019 27.991 64.704 27.648 65.335 26.825 64.943 26.246 64.943L26.145 64.894C25.271 64.995 24.144 65.426 23.473 64.603 22.536 63.92 21.817 62.857 20.499 62.857 19.767 63.045 18.996 63.336 18.843 64.159 18.752 64.652 19.235 64.842 19.424 65.135 18.552 65.727 17.629 66.64 17.917 67.816 18.02 68.057 18.108 68.348 18.451 68.348 18.892 68.348 19.235 67.956 19.666 68.195 19.767 68.931 19.575 70.055 20.451 70.398 21.134 70.297 21.627 69.562 22.349 70.107 23.081 70.45 23.664 69.767 24.295 69.562 25.323 69.562 25.702 70.538 26.042 71.27 26.677 71.749 27.56 72.535 28.435 72.059 29.015 71.221 27.905 70.159 29.015 69.614 29.698 69.423 30.282 69.663 30.965 69.51 32.028 69.614 33.344 69.715 33.939 68.552L34.901 66.892 35.102 65.867C35.734 65.678 36.661 66.689 36.952 65.727 36.6063842 64.7592758 36.5063942 63.7208925 36.661 62.705 36.848 61.969 37.191 61.286 37.684 60.806L37.924 60.907C38.215 62.122 38.267 63.336 38.799 64.463 38.698 65.578 38.114 66.549 37.976 67.665 37.684 68.84 36.848 69.767 35.786 70.297 35.532 70.499 35.342 70.829 35.493 71.169 35.786 71.713 36.508 71.409 37.052 71.512 38.562308 71.315883 39.9553856 70.5943856 40.987 69.474 42.064 69.767 42.595 68.449 43.566 69.031 44.594 69.814 46.44 68.449 46.831 70.107 46.68 70.878 47.415 72.297 46.148 72.636 44.885 72.434 43.431 70.777 42.165 72.247 41.859 72.535 41.672 72.931 41.859 73.32 42.064 73.666 42.303 74.091 41.96 74.379 41.62 74.963 41.137 75.697 41.428 76.432 41.672 76.864 42.165 76.864 42.595 76.778 43.327 76.483 44.01 77.102 44.732 77.153 45.365 77.65 45.996 78.233 46.831 78.176 47.176 77.988 47.124 77.549 47.363 77.253 47.895 76.814 49.022 76.915 49.022 75.942 49.161 75.215 49.792 74.559 50.428 74.184 50.566 74.235 51.982 73.875 52.374 73.19v0z" id="Path" stroke="#000" stroke-width=".27" fill="#000"/><path d="M29.621 30.217C29.142 30.304 28.995 30.838 28.892 31.269 28.805 31.902 29.142 32.397 29.621 32.727 30.887 33.324 31.969 34.305 33.184 35.076H33.589C32.945 33.757 31.364 33.438 30.35 32.322 29.958 31.791 29.955 31.173 30.108 30.542 30.108 30.301 29.861 30.165 29.621 30.217zm6.965.0C35.714 30.848 34.411 30.477 33.589 31.108 33.097 31.539 33.897 32.093 33.266 32.485 33.165 32.815 33.318 33.054 33.508 33.295 34.331 34.027 35.387 34.886 35.047 36.048 34.463 37.505 33.602 35.776 32.779 35.724 32.488 35.776 32.293 36.031 32.293 36.371 32.381 36.563 32.592 36.534 32.779 36.534 32.971 36.635 33.233 36.809 33.184 37.1 33.132 37.733 32.654 38.338 31.969 38.478 31.183 38.821 30.191 38.626 29.459 38.234 29.028 38.096 28.87 37.453 28.325 37.505 27.642 38.177 28.255 39.051 28.406 39.773 26.748 41.431 25.423 43.66 23.385 44.875 22.854 45.166 22.209 45.241 21.765 45.685 21.957 45.824 22.232 45.928 22.575 45.928 24.334 45.879 26.13 45.584 27.596 44.714 28.18 44.421 28.546 43.813 29.216 43.66 30 44.003 29.278 44.83 29.621 45.361 30.062 45.5 30.22 45.067 30.513 44.875 30.765 44.727 31.089 44.613 31.24 44.956 31.873 46.751 31.377 48.695 30.755 50.301 31.134 50.402 31.193 49.987 31.484 49.896 32.698 48.137 34.136 46.479 34.481 44.389 35.504 43.91 35.468 45.469 36.1 45.848 36.632 45.469 36.648 44.564 36.747 43.985 36.887 43.793 37.081 43.845 37.234 43.985 37.764 44.869 38.416 45.837 39.339 46.333 39.931 46.52 40.489 46.951 41.121 46.899 41.072 46.077 40.188 45.915 39.744 45.28 39.505 44.701 39.178 44.153 39.178 43.417 39.329 42.977 39.858 42.99 40.149 42.851 40.201 42.22 39.996 41.623 40.149 40.988 40.237 40.204 39.663 38.626 40.878 38.234L40.959 36.29C40.907 35.999 40.473 35.854 40.473 35.561 40.473 35.018 40.972 34.902 41.121 34.51 41.26 34.027 41.397 33.534 41.444 33.051 41.444 32.899 41.26 32.727 41.121 32.727 40.528 32.678 40.665 32.047 40.473 31.756 39.106 31.416 38.091 30.253 36.586 30.217v0zM16.583 30.542C16.493 30.592 16.433 30.771 16.421 31.027 16.317 31.266 16.453 31.678 16.745 31.918 16.884 32.021 17.12 32.187 17.312 31.998 17.412 31.808 17.361 31.603 17.312 31.351 17.312 31.057 16.849 30.387 16.583 30.542v0zM14.072 30.946C13.78 31.237 14.172 31.879 14.072 32.322 14.172 33.054 15.057 32.763 15.449 33.295 16.032 34.269 14.655 34.318 14.315 34.914 13.871 35.597 14.885 35.342 15.124 35.886 15.708 36.178 16.081 35.514 16.663 35.561 17.247 35.805 17.646 36.466 17.797 37.1 18.378 38.517 17.218 39.682 16.583 40.746 17.558 40.897 18.27 39.955 19.092 39.612 19.826 39.802 19.167 40.676 19.66 41.068 20.143 41.413 20.558 40.774 21.036 40.826 22.543 40.878 22.432 42.581 23.304 43.417 23.457 43.518 23.68 43.547 23.872 43.499 24.742 42.711 25.385 41.701 26.22 40.826 26.511 40.538 26.807 40.165 26.706 39.773 24.176 39.09 21.993 37.551 19.904 35.805 18.98 34.681 17.979 33.373 16.663 32.727 15.98 32.005 15.248 30.859 14.072 30.946v0zM36.261 31.188C36.401 31.177 36.54 31.281 36.666 31.351 37.197 31.642 37.647 32.135 38.043 32.566 38.13 32.906 37.9 33.161 37.557 33.213 36.977 33.262 36.367 33.171 35.937 32.727 35.493 32.397 35.768 31.863 35.856 31.432 35.958 31.312 36.121 31.201 36.261 31.188v0zM58.693 31.675C58.607 31.915 58.561 32.08 58.612 32.322 58.46 34.713 56.087 35.963 54.239 36.939 50.887 38.545 46.695 40.816 46.303 44.956 45.875 49.333 51.473 51.542 50.838 55.969 50.689 56.893 49.851 57.464 49.218 57.995 46.89 58.678 44.612 57.22 43.145 55.322 41.246 53.081 40.265 50.411 39.582 47.628 39.089 47.045 38.292 46.855 37.8 46.17 36.738 45.64 36.79 47.304 35.775 47.304 35.231 47.356 35.415 46.634 34.885 46.738L33.588 48.601C33.261 49.284 32.381 49.772 32.293 50.545 32.672 51.28 33.826 50.952 34.561 51.192 35.671 51.396 36.388 52.362 37.314 52.893 38.97 54.399 39.517 56.495 39.177 58.723 38.684 60.635 39.406 62.41 39.987 64.068 40.291 64.79 39.811 65.467 39.419 66.012 39.2252868 67.0485298 38.8989379 68.0558086 38.448 69.009 38.308 69.401 37.932 69.801 38.124 70.141 39.539 69.889 40.376 68.555 40.958 67.388 41.246 67.048 41.609 67.392 41.848 67.632 42.154 67.784 42.257 67.44 42.497 67.388 42.801 67.25 43.054 67.444 43.306 67.632 43.942 68.267 44.942 67.959 45.818 68.199 46.74 68.302 47.684 68.895 47.923 69.819 47.783 70.541 48.175 71.249 48.084 72.088 47.505 73.831 45.387 74.084 43.792 74.271 43.488 74.473 43.025 74.638 43.064 75.085 43.216 75.424 43.53 75.539 43.874 75.726 44.606 76.122 44.891 75.107 45.574 75.243 46.106 75.445 45.675 75.957 45.979 76.295 46.41 76.396 46.701 76.18 47.194 76.216 47.777 76.13 48.117 75.596 48.166 74.999 48.419 74.285 49.364 74.112 49.704 73.378 49.996 73.19 50.466 73.457 50.757 73.219 50.222 72.196 50.653 71.156 51.325 70.385 51.4727856 69.7455945 51.3555558 69.0735976 51 68.522V67.388C50.656 66.513 49.626 66.596 48.894 66.256 48.159 65.672 47.009 65.306 46.87 64.23 46.921 64.091 47.041 63.858 47.194 63.907 48.156 64.299 49.296 64.126 50.271 63.988 50.562 64.04 51 64.165 51 63.825 50.897 63.635 50.705 63.469 50.515 63.42 48.956 62.924 47.287 62.896 46.06 61.72 45.58 60.897 44.783 60.334 44.684 59.371 45.52 58.448 46.3 59.796 47.274 59.695 48.642 59.848 50.015 59.556 50.838 58.481 51.32 58.05 51.237 57.227 51.972 57.023 54.489 56.582 52.979 53.644 54.483 52.326 54.686 51.885 55.565 51.885 55.373 51.354 54.538 51.251 53.876 51.671 53.106 51.759 52.8962666 51.6770706 52.7433186 51.4931553 52.701 51.272 53.232 49.666 54.738 48.326 56.345 47.791 56.533 47.742 56.837 47.457 56.749 47.304 54.852 47.405 52.898 47.613 51.647 49.167 51.343 49.359 50.939 49.782 50.596 49.491 50.256 49.151 50.3 48.558 50.352 48.114 50.44 47.244 51.126 46.51 51.81 45.928 52.734 45.636 53.139 44.646 53.43 43.822 53.378 43.621 53.206 43.741 53.106 43.741 52.47 44.133 51.764 44.392 51.081 44.633 49.916 44.885 49.537 46.029 49.057 46.899 48.853166 47.0030003 48.611834 47.0030003 48.408 46.899 47.625 46.029 47.563 44.817 47.842 43.741 48.486 40.92 51.039 39.267 53.43 38.153 54.353 37.762 54.994 38.568 55.778 38.72 57.628 38.772 57.901 36.342 59.746 36.29 59.798 35.86 59.222 35.711 59.017 35.319 58.83 34.596 59.575 34.147 59.422 33.376 59.373 32.74 59.378 31.915 58.693 31.675v0zM40.148 33.132C40.337 32.994 40.745 33.083 40.796 33.376 40.796 33.755 40.631 34.136 40.392 34.429 40.151 34.58 39.925 34.505 39.824 34.266 39.725 33.822 39.906 33.386 40.148 33.132zM37.233 36.615C37.423 36.566 37.618 36.705 37.719 36.858L37.638 37.668C36.805 38.594 36.798 40.051 35.532 40.583 35.192 40.635 34.924 40.437 34.885 40.097 34.833 39.566 34.693 38.847 34.885 38.315 35.428 38.024 35.578 39.132 36.019 38.639 36.209 37.865 36.841 37.25 37.233 36.615zM28.405 45.523C28.114 45.523 27.888 45.584 27.596 45.685 25.698 47.532 23.721 49.378 21.279 50.301 19.721 50.592 18.546 51.581 16.987 51.921 16.216 52.364 14.981 52.494 14.882 53.621 15.274 53.81 15.684 53.945 16.177 53.945 16.812 53.945 16.919 53.285 17.311 52.893 17.55 52.653 17.838 52.821 18.04 52.974 18.23 53.556 18.814 53.664 19.255 53.864 19.685 53.815 19.802 53.395 19.903 53.055 20.295 52.32 21.204 52.274 21.927 52.326 22.267 52.173 22.669 51.954 23.061 52.001 23.983 52.193 23.456 53.327 23.547 53.945 23.698 54.098 23.962 53.955 24.113 53.864 24.784 53.132 25.179 52.277 25.571 51.354 25.758 51.163 26.002 50.729 26.381 50.867 27.305 52.045 27.43 50.246 28.163 50.058 28.693 49.818 29.464 50.229 29.944 49.735 30.44 48.863 30.492 47.67 30.592 46.657 30.352 45.925 29.666 46.595 29.134 46.494 28.59 46.408 28.594 45.902 28.405 45.523zM15.611 49.735C15.544 49.771 15.487 49.892 15.448 49.977 15.497 50.418 15.323 50.901 15.611 51.192 16.154 51.432 16.88 51.241 17.311 50.95 17.311 50.366 16.598 50.239 16.258 49.896 16.078 49.782 15.807 49.625 15.611 49.735zM36.99 55.403 34.561 56.132C32.131 56.233 29.241 56.122 27.839 58.4L26.462 58.561C25.539 59.005 24.655 59.657 23.627 59.857 23.336 60.048 22.836 59.963 22.737 60.344 23.368 60.839 24.272 60.505 25.005 60.505 25.384 60.645 25.47 61.133 25.571 61.476 25.963 61.665 26.233 61.175 26.624 61.315 26.864 61.419 27.009 61.642 27.11 61.881 27.302 63.149 28.882 63.411 29.378 64.473 29.617 64.865 29.459 65.413 29.215 65.769 28.823 66.3 28.065 66.145 27.434 66.093 26.267 66.057 25.27 65.782 24.194 66.173 22.535 66.466 20.913 65.413 19.498 66.336 19.394 66.436 19.312 66.669 19.416 66.822L21.118 67.551C21.357 67.842 20.988 68.231 21.035 68.522L21.927 68.765C22.558 69.297 23.165 68.652 23.708 68.361 24.341 67.92 24.878 68.493 25.41 68.685 25.75 68.885 26.222 68.617 26.462 69.009 26.802 69.401 26.601 70.327 27.271 70.224 27.473 69.744 27.771 69.267 28.163 68.927 29.326 67.904 30.826 68.565 32.293 68.361 33.268 68.273 33.015 67.133 33.751 66.741 34.231 65.918 33.372 65.429 32.941 64.797 32.601 64.024 33.138 63.126 33.67 62.53 34.693 62.342 34.574 63.648 34.965 64.23 35.118 64.369 35.37 64.674 35.614 64.473 35.661 63.702 35.694 62.947 35.694 62.125 35.986 60.949 36.805 59.916 37.638 59.128 38.033 58.497 38.072 57.998 38.124 57.266 37.984 56.582 37.81 55.595 36.99 55.403v0zM21.279 64.068C21.0864713 64.0392208 20.889729 64.0673765 20.713 64.149 20.661 64.429 20.825 64.963 21.118 65.202 21.609 65.251 22.143 65.413 22.574 65.122 22.318 64.648 21.821 64.156 21.279 64.068v0zM43.792 72.816C43.7073949 72.8725192 43.6493072 72.9609136 43.631 73.061 43.719 73.154 43.75 73.27 43.955 73.219 44.056 73.219 44.396 73.313 44.36 73.061 44.282 72.917 43.968 72.708 43.792 72.816z" id="Shape" fill="#fff"/><path id="Path" stroke="#000" stroke-width=".27" fill="#000" d="M.496 21.721H74.792V26.831H.496L.493 21.721z"/><path d="M55.74 22.63h8.442V25.921H55.74V22.63zm-18.347.0H45.821V25.921H37.393V22.63zm-18.488.0h8.442V25.921H18.905V22.63zM1.38 22.63H9.048V25.921H1.38V22.63z" id="Shape" fill="#fff"/><path d="M12.666 3.751C15.134 2.689 17.908 3.447 20.626 3.294 21.321 3.447 22.385 2.941 22.842 3.699 22.842 4.496 22.842 5.257 22.893 6.067 23.146 6.621 23.955 6.168 24.396 6.472 24.651 6.621 24.954 6.761 25.006 7.065 25.157 7.418 25.058 7.826 24.853 8.179 24.347 8.737 23.703 8.532 23.045 8.685L22.842 8.989C22.941 10.443 22.536 11.759 22.842 13.164 22.79 13.469 22.689 13.874 23.045 14.076 23.751 14.076 24.448 14.076 24.954 14.532 25.157 14.885 25.157 15.329 25.058 15.734 24.752 17.253 22.437 15.529 22.689 17.302 22.689 17.959 22.842 18.859 22.588 19.466 19.868 19.466 17.098 19.264 14.529 19.417 14.0507046 19.8322785 13.4499708 20.0801559 12.818 20.123 12.261 20.023 11.856 19.718 11.403 19.417 8.934 19.313 6.518 19.313 4.15 19.264 3.392 18.607 3.949 17.554 3.696 16.596 3.291 16.139 2.682 16.492 2.242 16.24 1.885 16.191 1.785 15.835 1.584 15.581 1.584 15.037 1.584 14.58 1.989 14.227 2.394 13.923 2.938 13.975 3.444 13.923L3.696 13.67C3.544 12.012 3.949 10.443 3.596 8.685 3.34 8.332 2.886 8.636 2.582 8.38 2.128 8.28 1.685 8.127 1.532 7.622 1.432 7.217 1.328 6.812 1.733 6.472l2.015-.508L3.949 3.547C4.354 2.838 5.303 3.194 6.012 3.194 7.227 2.941 8.734 3.142 10.048 3.194 10.946 3.243 11.856 3.395 12.666 3.751v0z" id="Path" stroke="#000" stroke-width=".28" fill="#000"/><path d="M13.767 18.075C13.868 18.48 13.819 18.986 13.466 19.189 13.262 19.443 12.87 19.49 12.565 19.339 12.261 19.29 12.212 18.934 12.161 18.681 12.06 18.124 12.617 17.936 12.922 17.518 13.314 17.58 13.566 17.835 13.767 18.075M5.608 4.078C5.151 4.421 4.558 5.079 4.759 5.688L4.95 17.669 5.303 18.075C7.276 18.075 9.44 17.871 11.351 18.227 11.452 18.276 11.452 18.428 11.403 18.529 10.897 18.732 10.289 18.633 9.744 18.633L4.607 18.529C4.254 18.227 4.406 17.518 4.406 17.126 4.406 16.62 4.558 16.012 4.001 15.707 3.292 15.555 2.582 15.759 2.129 15.202 2.482 14.201 4.101 15.011 4.406 13.9 4.558 12.027 4.254 10.165 4.354 8.406 4.15 7.395 3.039 7.7 2.329 7.547 2.229 7.447 2.09 7.295 2.129 7.091 2.734 6.498 3.949 7.191 4.406 6.346 4.607 5.536 4.455 4.775 4.558 4.029 4.811 3.777 5.251 3.777 5.608 3.877V4.078zm16.523.0C22.284 4.878 21.931 5.94 22.437 6.737 22.941 7.042 23.703 6.89 24.207 6.99 24.409 7.191 24.36 7.495 24.259 7.699 23.703 8.256 22.536 7.547 22.235 8.457 22.235 10.42 22.131 12.328 22.284 14.354L22.588 14.606C23.246 14.71 24.056 14.458 24.5 14.949 24.549 15.254 24.5 15.555 24.207 15.659 23.55 15.81 22.588 15.455 22.235 16.163 22.084 16.973 22.336 17.783 22.084 18.581L21.726 18.732 14.629 18.633C14.477 18.529 14.629 18.428 14.678 18.328L15.387 18.075 21.134 18.124C21.726 17.975 21.726 17.227 21.778 16.77L21.726 8.762C21.679 7.395 21.931 6.093 21.627 4.774 21.575 4.473 21.134 4.269 21.082 3.929 21.386 3.777 21.931 3.777 22.131 4.078M20.577 17.326C20.425 17.632 19.968 17.479 19.666 17.58H18.056C16.741 17.518 15.438 17.43 14.276 17.671 14.072 17.632 13.868 17.479 13.868 17.227 14.02 16.77 14.577 16.921 14.982 16.77 16.541 16.822 18.412 16.721 19.919 16.77 20.172 16.874 20.425 17.074 20.577 17.326M21.134 4.978C21.082 9.066 21.183 13.09 21.03 16.77 20.93 16.973 20.729 16.721 20.577 16.62 20.324 16.012 20.525 15.254 20.525 14.658 20.373 11.379 20.525 8.052 20.525 4.726 20.729 4.473 21.03 4.774 21.134 4.978m-8.821-.609L12.517 4.826C12.617 8.204 12.617 11.635 12.617 15.164L12.517 16.469C11.655 16.516 10.793 16.064 9.844 16.163 8.882 16.064 7.82 16.264 6.974 16.012 6.466 14.862 6.822 13.696 6.718 12.445 6.77 9.912 6.822 6.838 6.822 4.117 6.822 3.916 7.074 3.826 7.227 3.777 8.986 3.916 10.897 3.472 12.313 4.37M19.816 4.117C19.816 8.205 19.816 12.089 19.767 16.064 17.755 16.264 15.487 15.911 13.466 16.469 13.022 16.064 13.362 15.406 13.275 14.862 13.174 13.544 13.275 12.089 13.21 10.722 13.275 8.762 13.122 6.546 13.275 4.622 13.566 4.029 14.276 3.825 14.934 3.825L19.666 3.877 19.816 4.117zM12.112 17.126C12.161 17.378 11.908 17.619 11.655 17.718 10.048 17.279 8.277 17.58 6.569 17.378L6.518 17.326C6.618 17.025 6.871 16.77 7.227 16.77 8.934 16.77 10.593 16.77 12.112 17.126M6.113 4.522C6.314 8.609 6.061 12.533 6.165 16.417 6.113 16.62 5.909 16.874 5.656 16.874 5.355 15.607 5.403 14.406 5.504 13.138 5.403 10.57 5.455 7.7 5.455 5.131 5.556 4.878 5.86 4.622 6.113 4.522" id="Shape" fill="#fff"/><path d="M46.693 3.194C46.997 3.142 47.301 3.395 47.555 3.547L47.755 6.216C48.416 6.472 49.364 6.268 49.717 7.065 49.87 7.418 49.87 8.027 49.618 8.332 49.109 8.989 47.96 8.38 47.607 9.142 47.503 10.949 47.454 12.216 47.607 13.923 48.111 14.432 49.022 14.027 49.465 14.684 49.717 14.986 49.818 15.329 49.717 15.734 49.313 16.391 48.464 16.391 47.755 16.544 47.454 16.796 47.755 17.253 47.607 17.606 47.35 18.251 47.96 19.061 47.202 19.466 45.137 19.77 43.175 19.365 41.049 19.518L39.038 19.567C38.48 19.923 37.836 20.48 37.127 20.075L35.864 19.518C34.357 19.567 32.939 19.466 31.432 19.518 30.422 19.466 29.015 19.923 28.357 18.96 28.357 18.15 28.51 17.354 28.309 16.544 27.547 16.292 26.294 16.645 25.889 15.682 25.789 15.391 25.889 14.986 25.993 14.684 26.55 13.874 27.801 14.58 28.357 13.923L28.309 11.711C28.458 10.648 28.258 9.786 28.258 8.785 27.5 8.484 26.194 8.889 26.042 7.722 25.941 7.117 26.294 6.621 26.851 6.521 27.347 6.369 28.053 6.621 28.309 6.168L28.458 3.8C29.067 2.789 30.521 3.395 31.432 3.243L36.012 3.294C36.721 3.395 37.38 4.091 38.088 3.647 40.81 2.536 43.871 3.499 46.693 3.194v0z" id="Path" stroke="#000" stroke-width=".28" fill="#000"/><path d="M46.997 4.116C46.997 5.027 46.945 5.837 47.15 6.737 47.755 7.295 49.465 6.497 49.109 7.851 48.565 8.204 47.807 7.952 47.202 8.052L47.049 8.256C46.797 10.268 47.202 12.341 47.049 14.152 47.098 14.354 47.202 14.71 47.503 14.746 48.059 14.811 48.921 14.406 49.109 15.115 49.022 16.316 47.454 15.215 47.049 16.163 46.896 17.074 47.301 17.871 46.945 18.732L46.693 18.885C44.124 18.833 41.607 18.833 39.191 18.784 39.09 18.732 39.139 18.581 39.243 18.529L39.695 18.276 46.048 18.075C46.353 18.024 46.592 17.783 46.54 17.479 46.54 13.646 46.592 9.659 46.592 5.383 46.491 4.774 45.896 4.421 45.795 3.877 46.148 3.877 46.797 3.673 46.997 4.116M30.269 3.929C30.168 4.369 29.776 4.521 29.573 4.878 29.268 5.688 29.625 6.497 29.472 7.343L29.524 17.518C29.524 17.783 29.711 18.075 29.965 18.124L35.368 18.227C35.659 18.276 36.012 18.379 36.217 18.581 36.116 18.885 35.711 18.784 35.459 18.833 33.443 18.784 31.283 18.934 29.32 18.681L29.119 18.529C29.067 17.632 29.168 16.669 28.763 15.859 28.157 15.607 27.409 15.859 26.751 15.659 26.446 15.506 26.55 15.102 26.751 14.91 27.409 14.557 28.662 15.102 29.015 14.201 28.967 12.228 29.119 10.368 29.015 8.357 28.458 7.547 27.308 8.305 26.802 7.547 27.004 6.394 28.611 7.395 29.067 6.446L29.22 4.078C29.524 3.776 29.929 3.877 30.269 3.929M38.28 18.53C38.28 18.933 38.228 19.444 37.784 19.444 37.431 19.491 36.874 19.444 36.874 18.933 36.975 18.582 37.279 18.276 37.632 18.075 37.989 17.975 38.176 18.328 38.28 18.53M31.027 4.622C31.18 8.105 30.827 11.231 31.027 14.709 30.726 15.507 31.383 16.67 30.217 16.873 30.017 13.391 30.168 9.66 30.064 5.889 29.965 5.283 30.321 4.726 30.827 4.422L31.027 4.622zM45.996 5.231C45.947 9.067 46.099 13.191 45.847 16.922 45.643 16.974 45.391 16.722 45.339 16.517 45.29 14.95 45.137 13.392 45.238 11.736 45.339 9.56 45.085 7.004 45.339 4.775 45.591 4.623 45.996 4.927 45.996 5.232M36.773 17.128C36.975 17.176 37.227 17.38 37.078 17.619L36.674 17.977C34.914 17.328 32.685 17.772 30.827 17.481 30.978 17.228 31.131 16.975 31.383 16.771 33.142 16.923 35.063 16.671 36.773 17.128M44.781 16.875C45.038 17.027 45.339 17.279 45.339 17.533L45.085 17.619C42.974 17.671 40.797 17.38 38.838 17.873 38.532 17.925 38.189 17.873 38.14 17.533 38.329 17.076 38.937 16.923 39.443 16.875 41.254 16.723 43.022 16.875 44.781 16.875M44.633 4.218C44.581 8.154 44.68 12.19 44.581 16.114L44.376 16.217C42.212 16.418 40.1 15.862 38.14 16.57 37.784 16.366 38.088 15.761 37.989 15.408V4.928C37.989 4.575 38.228 4.27 38.532 4.17 39.09 3.778 39.848 3.93 40.557 3.826L44.529 3.93 44.633 4.218zM37.279 12.19C37.483 10.166 37.331 7.902 37.38 5.99 37.38 5.384 37.431 4.675 36.975 4.27 35.506 3.625 33.547 3.978 31.889 3.878 31.788 3.93 31.585 3.813 31.636 4.03L31.585 15.66 31.684 16.114C32.89 16.318 34.105 16.217 35.368 16.217 36.012 16.318 36.674 16.519 37.279 16.622 37.331 15.255 37.431 14.202 37.331 12.887L37.279 12.191V12.19z" id="Shape" fill="#fff"/><path d="M71.418 3.369C72.027 4.13 71.622 5.193 71.775 6.09 72.431 6.648 73.836 6.041 73.987 7.305 74.088 7.813 73.785 8.166 73.533 8.458 73.079 8.912 72.279 8.458 71.876 8.964 71.723 10.482 71.876 12.142 71.876 13.861 72.33 14.153 72.935 14.102 73.432 14.354 73.684 14.658 73.936 14.963 73.936 15.368 73.886 15.773 73.634 16.074 73.23 16.227 72.834 16.417 72.128 16.227 71.926 16.783 71.723 17.58 71.977 18.49 71.824 19.339 71.267 19.606 70.608 19.606 70.003 19.606L64.068 19.544C63.512 19.845 62.903 20.402 62.145 20.101 60.891 19.3 59.171 19.544 57.716 19.492L53.285 19.44C52.475 18.747 53.083 17.532 52.831 16.684 52.527 16.178 51.717 16.365 51.212 16.126 50.755 15.926 50.654 15.417 50.706 15.011 50.755 14.506 51.212 14.253 51.665 14.153 52.021 13.949 52.678 14.305 52.831 13.761 52.831 12.19 52.73 10.683 52.779 9.216 52.678 8.319 51.464 8.863 50.959 8.507 50.503 8.218 50.464 7.661 50.555 7.152 50.959 6.294 51.969 6.495 52.73 6.242L52.831 5.99 52.919 3.369 53.184 3.168 60.081 3.32C60.891 3.32 61.587 3.673 62.345 3.926 63.813 2.828 65.976 3.369 67.735 3.068L71.418 3.369z" id="Path" stroke="#000" stroke-width=".28" fill="#000"/><path d="M61.587 17.279C61.74 17.378 61.74 17.632 61.587 17.671 60.978 18.379 60.233 17.518 59.423 17.671L55.335 17.518C55.691 16.417 57.246 17.074 58.107 16.874 59.272 17.025 60.573 16.669 61.587 17.279M68.989 17.025C69.242 17.175 69.494 17.43 69.546 17.671 67.483 17.923 65.472 17.43 63.499 17.975 63.194 17.923 63.093 17.58 63.194 17.378 63.598 16.921 64.257 17.025 64.865 16.921L68.989 17.025zM63.055 18.379C63.106 18.833 63.106 19.49 62.498 19.49 62.093 19.542 61.74 19.339 61.639 18.986 61.535 18.48 61.839 18.024 62.192 17.822 62.649 17.77 62.854 18.124 63.055 18.379M54.577 4.029C54.477 4.421 53.981 4.725 53.828 5.13 53.88 9.267 53.828 13.747 53.981 18.022L54.337 18.227C56.55 18.276 58.917 17.77 60.829 18.681 60.93 18.732 60.878 18.732 60.829 18.784 58.41 18.732 55.992 18.933 53.628 18.732L53.423 18.479C53.324 17.578 53.527 16.721 53.122 15.91 52.566 15.406 50.959 16.063 51.364 14.91 51.956 14.456 52.919 15.061 53.275 14.303 53.275 12.189 53.376 10.317 53.223 8.357 52.766 7.748 51.907 8.152 51.312 8 51.111 7.799 50.959 7.495 51.16 7.242 51.817 6.698 53.729 7.395 53.376 5.836 53.576 5.179 53.07 3.928 53.981 3.876 54.185 3.876 54.438 3.812 54.577 4.029M71.013 4.116C71.218 5.078 70.813 6.04 71.367 6.889 71.962 7.042 72.928 6.685 73.23 7.294 73.18 8.509 71.519 7.546 71.166 8.509 71.318 10.42 71.013 11.988 71.218 14.051 71.013 14.2 70.965 14.404 71.114 14.604 71.658 15.061 72.366 14.303 72.928 14.809 73.281 14.91 73.079 15.214 73.079 15.406 72.618 16.063 71.519 15.315 71.218 16.163L71.114 18.681 70.761 18.832 64.055 18.784C63.951 18.681 64.003 18.632 64.104 18.58L64.914 18.276H70.003C70.255 18.227 70.608 18.022 70.608 17.669 70.5475808 13.5232636 70.5145801 9.37717291 70.509 5.231L69.899 4.029C70.156 3.776 70.862 3.724 71.013 4.116M55.335 5.687V16.516C55.234 16.822 54.881 16.973 54.678 17.175L54.477 17.025C54.438 15.859 54.525 14.557 54.438 13.443V12.581C54.373 10.217 54.373 7.596 54.477 5.179 54.678 4.978 54.881 4.574 55.135 4.473 55.335 4.927 55.234 5.231 55.335 5.688M70.052 5.131C69.951 7.952 70.003 10.621 70.104 13.291 70.052 14.557 70.052 15.659 70.052 16.822 70.003 16.921 70.003 16.973 69.899 17.025 69.04 16.669 69.346 15.707 69.294 14.962 69.346 13.9 69.193 12.685 69.393 11.635L69.242 11.279 69.294 4.674C69.494 4.217 69.899 4.878 70.052 5.131M68.736 5.283C68.736 4.827 68.788 4.269 68.536 3.877L66.725 3.813C65.423 4.03 63.951 3.612 62.903 4.269 62.397 4.878 62.649 5.585 62.55 6.294 62.662 6.711 62.789 7.142 62.915 7.573L62.675 8.118 61.904 7.966 61.701 7.534C61.787 7.217 61.878 6.912 61.94 6.585 61.891 5.737 62.192 4.422 61.081 4.068 59.4392018 3.93300133 57.7923209 3.86927478 56.145 3.877 56.044 3.877 55.893 3.929 55.844 4.03L55.893 15.05C55.893 15.506 55.74 16.113 56.249 16.318 57.703 16.113 59.018 16.365 60.437 16.266 60.978 16.266 61.335 16.77 61.891 16.622 62.044 15.05 62.044 13.19 61.992 11.484 61.94 11.344 62.018 11.001 61.787 10.939V10.622L62.662 10.722 62.75 11.014 62.649 11.127 62.55 16.318C62.598 16.469 62.598 16.874 62.903 16.822 64.46 15.911 66.372 16.518 68.192 16.318L68.597 16.165C68.788 15.303 68.685 12.242 68.685 12.242 68.788 9.964 68.736 7.7 68.736 5.283M62.649 10.116C62.55 10.368 62.093 10.368 61.839 10.268L61.587 10.165C61.74 9.611 61.587 8.962 62.044 8.557 62.498 8.862 62.449 9.559 62.649 10.116" id="Shape" fill="#fff"/><path d="M36.773 12.04C36.165 11.531 36.012 10.773 35.506 10.165 35.711 9.863 36.064 9.812 36.316 9.559 36.721 9.167 37.127 8.609 36.926 8.001 36.874 7.495 36.622 6.99 36.116 6.737 35.063 6.345 33.7 6.497 32.633 6.598 32.433 6.698 32.381 6.89 32.533 7.042 32.939 7.191 33.09 7.495 33.142 7.851 33.09 9.215 33.09 10.57 32.939 11.936L32.381 12.533C32.939 13.038 33.7 12.646 34.509 12.785 34.71 12.432 34.154 12.176 34.053 11.784 34.154 11.379 34.053 10.825 34.305 10.469 35.063 11.126 35.319 12.176 36.217 12.785L37.405 12.873 37.367 12.228C37.217 12.328 36.926 12.089 36.773 12.04M35.202 9.559C34.862 9.559 34.305 9.812 34.205 9.368 34.253 8.71 33.952 7.851 34.205 7.243 34.658 6.89 35.368 7.042 35.711 7.495 35.911 7.851 35.911 8.305 35.911 8.71 35.711 9.066 35.607 9.471 35.202 9.559M62.903 10.974C63.106 11.278 63.245 11.583 63.207 11.975L62.802 12.533 63.055 12.733C63.65 12.685 64.46 12.886 65.018 12.633 64.865 12.328 64.509 12.228 64.309 12.027 63.598 10.178 63.106 8.217 62.55 6.306L61.94 6.598C61.587 8.305 60.878 9.863 60.473 11.635 60.385 11.975 60.029 12.027 59.776 12.228 59.423 12.328 59.272 11.923 59.119 11.735 59.07 10.217 59.272 8.962 59.171 7.343 59.119 7.09 59.423 6.786 59.676 7.042 60.081 7.243 60.029 7.748 60.181 8.104 60.285 8.256 60.538 8.256 60.573 8.001L60.829 6.446C60.625 5.94 60.181 6.497 59.776 6.446 59.018 6.394 57.956 6.598 57.246 6.141 56.654 6.345 56.802 7.191 56.703 7.748 56.654 7.851 56.703 7.952 56.754 8.001 57.246 7.699 57.499 6.89 58.208 7.09L58.26 8.609 58.107 11.888C57.904 12.141 57.411 12.228 57.45 12.581 58.309 12.837 59.371 12.581 60.233 12.685 60.725 12.733 61.283 12.837 61.688 12.685 61.787 12.581 61.74 12.432 61.639 12.328 61.335 12.176 60.978 11.923 61.081 11.531 61.234 11.278 61.283 10.773 61.74 10.925 61.852 10.925 61.891 10.987 61.927 11.065L62.649 11.152V11.126C62.75 11.026 62.75 10.974 62.903 10.974M61.839 10.268 61.587 10.165C61.74 9.611 61.587 8.962 62.044 8.557 62.498 8.862 62.449 9.559 62.649 10.116 62.55 10.368 62.093 10.368 61.839 10.268M67.496 6.838C67.496 7.204 67.761 7.861 67.447 8.126 67.091 7.812 67.042 7.508 66.471 7.356 66.167 7.356 65.863 7.407 65.801 7.76 65.698 8.849 66.786 8.849 67.395 9.559 67.966 10.129 68.218 11.052 67.966 11.771 67.725 12.354 67.447 12.698 66.889 12.698 66.372 12.798 66.002 12.445 65.597 12.646 65.497 12.646 65.296 12.746 65.179 12.594L65.244 10.595C65.2931438 10.5008861 65.3908308 10.4421967 65.497 10.443 65.801 11.1 65.597 11.875 66.52 11.923 66.824 11.875 67.078 11.836 67.13 11.431 67.242 9.633 64.878 10.077 64.927 8.23 64.979 7.812 65.028 7.456 65.244 7.103 65.649 6.433 66.572 6.838 67.192 6.433 67.447 6.332 67.447 6.685 67.496 6.838M42.212 6.737C41.708 6.99 41.15 7.395 41.302 8.104 41.15 9.319 41.202 10.57 41.254 11.888L42.064 12.581 42.012 12.685C41.15 12.685 40.353 12.837 39.495 12.685 39.139 12.293 39.949 12.089 40.1 11.784 40.253 10.368 40.405 8.914 40.253 7.343 40.1 6.89 39.342 7.09 39.544 6.598 40.304 6.497 41.302 6.497 42.064 6.598L42.212 6.737zM17.755 7.699C17.247 8.305 17.146 7.142 16.642 7.09 16.336 7.052 15.882 6.951 15.64 7.191 15.539 7.851 15.438 8.457 15.64 9.066 15.843 9.215 16.237 9.167 16.489 9.167 16.793 8.962 16.946 8.405 17.35 8.457 17.603 8.71 17.247 9.115 17.399 9.368 17.299 9.76 17.652 10.217 17.198 10.368 16.894 10.217 16.741 9.659 16.336 9.659L15.64 9.711C15.387 10.621 15.487 11.431 15.64 12.293 16.032 12.685 16.541 12.328 16.995 12.328 17.652 12.189 17.503 11.278 18.056 11.379 18.209 11.735 18.261 12.293 18.16 12.685L17.856 12.886 14.276 12.837C14.124 12.785 13.767 12.785 13.92 12.533 15.085 11.836 14.426 10.469 14.577 9.368 14.426 8.557 15.034 7.343 13.971 6.851 13.92 6.546 14.276 6.637 14.377 6.546 15.287 6.546 16.489 6.89 17.198 6.141 17.755 6.446 17.703 7.142 17.755 7.699M12.261 6.89C11.25 7.699 11.198 9.115 10.745 10.268 10.34 10.925 10.541 11.888 9.896 12.445 9.643 12.533 9.44 12.293 9.391 12.089 9.04201286 10.5279246 8.5852518 8.99291345 8.024 7.495 7.972 7.042 6.923 6.938 7.528 6.598 8.277 6.497 8.834 6.698 9.543 6.637 9.692 7.09 8.986 7.343 9.187 7.9 9.643 8.557 9.491 9.559 10.048 10.217L10.301 9.964C10.34 8.81 11.655 7.748 10.541 6.737 10.793 6.293 11.555 6.598 12.06 6.446 12.161 6.533 12.517 6.637 12.261 6.89" id="Shape" fill="#000"/></g></g></svg>