<svg width="500" height="204" viewBox="0 0 500 204" xmlns="http://www.w3.org/2000/svg" xmlns:xlink="http://www.w3.org/1999/xlink"><title>partners</title><g id="Portfolio" stroke="none" stroke-width="1" fill="none" fill-rule="evenodd"><g id="partners" fill="#008bb0" fill-rule="nonzero"><path d="M254.322 5.692C215.844 6.088 183.073 9.638 132.805 25.869 130.551 26.584 130.453 25.531 132.151 24.707 183.929 5.73 211.478-.278 254.322.01 297.154-.278 324.714 5.731 376.504 24.708 378.177 25.532 378.074 26.585 375.839 25.87 325.556 9.638 292.813 6.088 254.322 5.692M254.322 34.541C304.976 33.596 373.847 40.627 429.385 66.27 431.256 67.273 431.729 65.868 430.031 65.101 371.427 36.617 297.123 27.358 254.322 28.539 211.49 27.357 137.198 36.616 78.614 65.1 76.916 65.867 77.372 67.272 79.269 66.269 134.801 40.626 203.649 33.595 254.322 34.541M254.322 20.627C292.468 20.531 356.289 24.561 405.652 46.513 407.669 47.624 408.2 46.232 406.336 45.344 356.109 21.841 297.238 14.121 254.403 14.511 211.536 14.121 152.52 21.842 102.31 45.344 100.433 46.232 100.981 47.624 102.977 46.513 152.345 24.561 216.172 20.532 254.322 20.627" id="Shape"/><path d="M32.261 198.782C32.261 201.655 32.236 201.942 35.792 202.108V203.232C34.033 203.123 32.261 203.046 30.47 203.046 28.637 203.046 26.913 203.122 25.247 203.232V202.108C28.79 201.942 28.749 201.655 28.749 198.782V190.186H13.948V198.782C13.948 201.655 13.919 201.942 17.464 202.108V203.232C15.692 203.123 13.948 203.046 12.129 203.046 10.326 203.046 8.579 203.122 6.919 203.232V202.108C10.476 201.942 10.438 201.655 10.438 198.782V181.803C10.438 178.917 10.476 178.649 6.919 178.464V177.365C8.579 177.46 10.326 177.544 12.129 177.544 13.949 177.544 15.692 177.46 17.464 177.365V178.464C13.92 178.649 13.948 178.917 13.948 181.803V188.654H28.75V181.803C28.75 178.917 28.792 178.649 25.248 178.464V177.365C26.914 177.46 28.639 177.544 30.471 177.544 32.262 177.544 34.034 177.46 35.793 177.365V178.464C32.236 178.649 32.262 178.917 32.262 181.803V198.782M70.289 198.162V191.016C78.643 190.71 78.924 190.493 78.924 194.669H80.128V186.132H78.924C78.886 189.746 78.351 189.305 70.289 189.215V182.319C70.289 181.004 70.346 180.154 70.483 179.248 71.699 179.057 73.433 179.057 75.06 179.057 76.915 179.057 78.812 179.12 80.583 179.683 80.852 180.832 81.068 181.861 81.095 183.316H82.247C82.247 182.531 82.361 181.905 82.361 181.113 82.416 179.926 82.527 178.751 82.952 177.538 81.691 177.366 79.128 177.404 76.812 177.366 74.587 177.461 72.34 177.538 70.038 177.538 67.736 177.538 65.502 177.461 63.257 177.366V178.47C66.802 178.649 66.776 178.917 66.776 181.796V198.781C66.776 201.271 65.449 202.05 63.593 202.113v1.125C65.847 203.122 68.043 203.033 70.288 203.033 72.548 203.033 74.772 203.122 76.956 203.238 79.245 203.179 81.735 203.238 83.102 203.033V199.981C83.102 198.781 83.325 197.758 83.476 196.966H82.247L81.911 199.017C81.841 199.674 81.65 200.332 81.469 200.894 79.552 201.443 77.5 201.519 75.504 201.519 73.733 201.519 71.849 201.519 70.483 201.353 70.346 200.372 70.289 199.497 70.289 198.162M134.518 198.207 125.597 177.136H124.41C123.432 179.805 122.238 182.499 121.028 185.13L116.045 196.298 114.241 200.117C113.35 202.051 113.075 201.699 111.011 202.114V203.232C112.408 203.123 113.824 203.046 115.259 203.046 116.706 203.046 118.104 203.122 119.506 203.232V202.114C118.178 201.948 116.37 202.114 116.37 200.901 116.37 200.084 118.42 195.684 118.845 194.67H129.37L131.624 200.084C131.922 200.749 131.881 201.343 131.366 201.598 130.568 202.051 129.546 202.077 128.585 202.115V203.233C130.221 203.124 131.835 203.047 133.522 203.047 135.178 203.047 136.827 203.123 138.438 203.233V202.115C137.595 202.077 136.827 201.854 136.401 201.49 135.484 200.602 135.006 199.375 134.518 198.207M119.452 193.08 124.068 182.04 128.697 193.08H119.452zM172.793 199.975V181.796C172.793 178.923 172.765 178.654 176.314 178.47V177.366C174.517 177.455 172.793 177.545 170.986 177.545 169.163 177.545 167.435 177.455 165.751 177.366V178.47C169.301 178.655 169.275 178.923 169.275 181.796V197.791C169.275 200.754 169.013 201.807 167.272 202.113v1.125C169.437 203.122 171.503 203.04 173.642 203.04 175.8 203.04 177.916 203.122 179.976 203.238 182.16 203.179 184.535 203.238 185.717 203.04L186.121 199.164C186.281 198.168 186.384 197.197 186.495 196.668L185.298 196.598 184.468 199.707C184.33 200.16 184.235 200.55 184.082 200.9 182.159 201.45 180.138 201.519 178.121 201.519 176.349 201.519 174.459 201.519 172.9 201.347L172.793 199.975M219.767 182.946V198.775C219.767 201.655 219.805 201.942 216.254 202.108V203.225C217.937 203.122 219.642 203.04 221.481 203.04 223.286 203.04 225.018 203.122 226.809 203.225V202.108C223.246 201.942 223.286 201.655 223.286 198.775V182.946C223.33 181.522 223.33 180.353 223.441 179.249L229.202 179.422C229.993 179.466 230.447 179.575 230.517 180.526 230.64 181.42 230.864 182.384 230.909 183.38H232.026C232.026 182.671 232.026 182.026 232.052 181.323 232.093 180.008 232.118 178.712 232.249 177.371 228.651 177.467 225.136 177.537 221.544 177.537 217.937 177.537 214.406 177.467 210.899 177.371 210.999 178.712 211.031 180.008 211.062 181.323 211.11 182.025 211.11 182.671 211.11 183.38H212.228C212.26 182.384 212.477 181.419 212.608 180.526 212.691 179.575 213.144 179.465 213.926 179.422L219.621 179.249C219.728 180.353 219.728 181.522 219.767 182.946M284.78 198.782V181.803C284.78 178.917 284.736 178.649 288.292 178.464V177.365C286.537 177.46 284.78 177.544 282.967 177.544 281.148 177.544 279.411 177.46 277.751 177.365V178.464C281.288 178.649 281.262 178.917 281.262 181.803V188.654H266.443V181.803C266.443 178.917 266.405 178.649 269.954 178.464V177.365C268.192 177.46 266.443 177.544 264.642 177.544 262.828 177.544 261.073 177.46 259.415 177.365V178.464C262.975 178.649 262.924 178.917 262.924 181.803V198.782C262.924 201.655 262.975 201.942 259.415 202.108V203.232C261.072 203.123 262.827 203.046 264.642 203.046 266.443 203.046 268.192 203.122 269.954 203.232V202.108C266.405 201.942 266.443 201.655 266.443 198.782V190.186H281.262V198.782C281.262 201.655 281.288 201.942 277.751 202.108V203.232C279.411 203.123 281.147 203.046 282.967 203.046 284.78 203.046 286.537 203.122 288.292 203.232V202.108C284.736 201.942 284.78 201.655 284.78 198.782M338.978 201.597 339.706 199.943 339.381 199.574C337.134 201.036 334.522 201.891 331.872 201.891 324.42 201.891 319.613 196.777 319.613 189.375 319.613 182.671 323.82 178.342 329.943 178.342 332.593 178.342 334.369 178.98 335.901 179.721 338.059 180.781 337.503 181.63 337.587 184.025H338.686C338.897 182.154 339.107 180.309 339.49 178.47 336.381 177.575 333.125 176.783 329.843 176.783 322.532 176.783 315.629 181.604 315.629 190.185 315.629 198.971 322.442 203.780001 330.59 203.780001 332.95 203.781 336.66 202.924 338.978 201.597M390.641 198.207 381.714 177.136H380.526C379.568 179.805 378.348 182.499 377.162 185.13L372.175 196.298 370.362 200.117C369.473 202.051 369.226 201.699 367.125 202.114V203.232C368.543 203.123 369.947 203.046 371.384 203.046 372.853 203.046 374.251 203.122 375.65 203.232V202.114C374.335 201.948 372.496 202.114 372.496 200.901 372.496 200.084 374.539 195.684 374.992 194.67H385.514L387.743 200.084C388.069 200.749 388.017 201.343 387.508 201.598 386.684 202.051 385.682 202.077 384.737 202.115V203.233C386.358 203.124 387.956 203.047 389.666 203.047 391.314 203.047 392.955 203.123 394.551 203.233V202.115C393.735 202.077 392.955 201.854 392.528 201.49 391.61 200.602 391.146 199.375 390.641 198.207M375.578 193.08 380.207 182.04 384.836 193.08H375.578zM425.421 181.796V198.775C425.421 201.655 425.434 201.942 421.877 202.114v1.125C423.551 203.123 425.293 203.047 427.112 203.047 428.926 203.047 430.657 203.123 432.444 203.239v-1.125C428.894 201.942 428.926 201.655 428.926 198.775V181.796C428.926 180.64 428.926 179.874 429.136 179.248 430.145 178.942 431.563 178.75 432.833 178.75 435.586 178.75 438.535 179.926 438.535 183.948 438.535 186.668 436.332 188.679 433.733 189.114 432.616 189.304 431.472 189.349 430.323 189.26L430.157 189.827 438.982 201.162C439.518 201.774 439.92 202.437 440.508 203.237 441.368 203.121 442.187 203.045 443.004 203.045 443.853 203.045 444.729 203.121 445.539 203.237v-1.125C444.785 202.022 444.018 201.774 443.413 201.078L435.028 190.128C438.649 189.419 442.268 187.005 442.268 182.988 442.268 179.873 439.875 177.095 434.76 177.37 432.614 177.459 430.456 177.536 428.304 177.536 426.109 177.536 423.95 177.459 421.874 177.37V178.463C425.434 178.649 425.421 178.91 425.421 181.796M479.197 198.162V191.016C487.555 190.71 487.81 190.493 487.81 194.669H489.042V186.132H487.81C487.79 189.746 487.247 189.305 479.197 189.215V182.319C479.197 181.004 479.21 180.154 479.363 179.248 480.594 179.057 482.339 179.057 483.961 179.057 485.825 179.057 487.702 179.12 489.483 179.683 489.732 180.832 489.968 181.861 489.994 183.316H491.157C491.157 182.531 491.264 181.905 491.264 181.113 491.297 179.926 491.444 178.751 491.846 177.538 490.568 177.366 488.033 177.404 485.697 177.366 483.475 177.461 481.226 177.538 478.928 177.538 476.655 177.538 474.439 177.461 472.154 177.366V178.47C475.73 178.649 475.698 178.917 475.698 181.796V198.781C475.698 201.271 474.35 202.05 472.48 202.113v1.125C474.765 203.122 476.949 203.033 479.197 203.033 481.457 203.033 483.679 203.122 485.87 203.238 488.136 203.179 490.626 203.238 492 203.033V199.981C492 198.781 492.223 197.758 492.376 196.966H491.157L490.799 199.017C490.716 199.674 490.563 200.332 490.364 200.894 488.468 201.443 486.418 201.519 484.426 201.519 482.638 201.519 480.741 201.519 479.363 201.353 479.21 200.372 479.197 199.497 479.197 198.162" id="Shape"/><path d="M174.511 147.897C173.876 147.335 171.634 144.565 167.781 139.59L154.286 121.839C150.966 117.497 148.852 114.733 147.94 113.468 152.843 112.389 156.825 110.882 159.877 108.908 162.939 106.949 165.26 104.465 166.869 101.534 168.468 98.578 169.272 95.57 169.272 92.607 169.272 89.363 168.404 86.414 166.709 83.668 164.979 80.93 162.559 78.975 159.439 77.742 156.327 76.554 151.353 75.935 144.526 75.935 143.643 75.935 140.418 76.05 134.843 76.261 130.566 76.389 127.395 76.478 125.361 76.478L115.088 76.197C112.234 76.127 110.108 76.082 108.709 76.051V79.48C112.952 79.556 115.542 79.729 116.435 80.036 117.352 80.343 118.026 80.803 118.437 81.428 118.843 82.048 119.098 84.046 119.191 87.455 119.299 92.099 119.373 96.835 119.373 101.682V126.49C119.256 135.869 119.175 140.939 119.169 141.685 119.055 144.444 118.786 146.167 118.345 146.87 118 147.42 117.34 147.835 116.436 148.135 116.169 148.225 115.741 148.302 115.217 148.365 113.966 148.256 113.042 148.085 112.545 147.848 111.753 147.452 111.002 146.634 110.342 145.389 109.119 143.18 106.661 137.714 102.926 129.004L80.073 75.292H76.612C71.795 86.747 68.664 94.16 67.217 97.454L53.821 127.67C49.84 136.386 47.525 141.366 46.877 142.707 45.773 145.024 44.907 146.462 44.332 147.018 43.758 147.56 43.109 147.944 42.411 148.134 41.698 148.345 39.959 148.459 37.12 148.505V152.138C41.225 151.82 45.018 151.646 48.485 151.646 51.474 151.646 55.991 151.82 62.026 152.138V148.505C58.706 148.459 56.378 148.288 55.076 148.014 54.239 147.827 53.652 147.502 53.24 147.036 52.952 146.735 52.828 146.307 52.828 145.791 52.828 144.667 53.336 142.879 54.377 140.402L60.203 126.635H91.225L97.799 143.025C98.293 144.264 98.548 145.279 98.548 146.09 98.548 146.581 98.379 146.996 98.086 147.329 97.799 147.668 97.208 147.929 96.346 148.121 95.491 148.287 93.058 148.42 89.083 148.504V152.137H89.092L89.083 152.144H139.985L139.979 152.137V148.696C135.767 148.633 133.19 148.447 132.278 148.133 131.342 147.833 130.663 147.38 130.269 146.735 129.845 146.09 129.634 144.073 129.539 140.67 129.39 136.072 129.314 131.348 129.314 126.489V102.703C129.539 92.832 129.664 87.621 129.708 87.124 129.759 85.45 129.89 83.657 130.009 81.715 133.546 80.598 137.176 80.062 140.822 80.062 146.71 80.062 151.058 81.338 153.96 83.945 156.824 86.524 158.283 90.005 158.283 94.422 158.283 99.448 156.6 103.496 153.254 106.562 149.893 109.639 144.976 111.178 138.482 111.178 137.509 111.178 136.097 111.108 134.247 111.005L133.697 112.614C137.11 116.503 140.661 120.826 144.415 125.627 146.769 128.532 149.431 132.121 152.464 136.443 157.923 144.214 161.806 149.444 164.143 152.145 167.202 151.909 169.778 151.812 171.891 151.812 173.914 151.812 176.29 151.909 179.023 152.145V148.697C177.197 148.697 176.016 148.62 175.493 148.448 175.149 148.325 174.843 148.172 174.511 147.897zM62.026 122.101 75.665 89.811 89.084 122.101H62.026zM302.512 76.262C306.222 76.262 309.606 76.192 312.62 76.045V79.402C309.236 79.466 306.994 79.728 305.954 80.239 305.494 80.43 305.194 80.802 304.964 81.266 304.651 81.956 304.435 83.84 304.28 86.918 304.083 91.617 303.999 95.684 303.999 99.055V124.801C303.999 130.03 304.069 139.749 304.256 153.975L299.224 152.391 298.031 152.143C297.839 152.066 297.673 151.932 297.526 151.818 297.283 151.638 296.664 150.923 295.661 149.678 292.961 146.3 290.987 143.778 289.729 142.054L283.427 133.338 248.883 87.977V129.04C248.883 132.546 248.979 136.657 249.221 141.401 249.359 144.396 249.563 146.172 249.869 146.861 250.07 147.391 250.431 147.723 250.881 147.96 251.942 148.457 254.17 148.738 257.551 148.758V152.143C254.694 151.874 251.556 151.759 248.104 151.759 244.337 151.759 240.245 151.874 235.85 152.143V148.758C239.225 148.738 241.467 148.445 242.559 147.903 243.011 147.674 243.331 147.347 243.526 146.862 243.841 146.16 244.081 144.289 244.194 141.262 244.411 136.537 244.496 132.469 244.496 129.04V85.41C244.496 84.222 244.431 83.475 244.317 83.118 244.043 82.454 243.456 81.707 242.559 80.812 241.964 80.238 241.285 79.855 240.519 79.727 240.014 79.613 238.942 79.541 237.62 79.485 237.358 83.188 237.182 87.955 237.065 93.768H233.658L233.208 88.622C232.914 85.506 232.71 83.756 232.628 83.316 232.515 82.881 232.346 82.575 232.161 82.416 231.96 82.23 231.673 82.077 231.286 81.981 230.781 81.86 229.004 81.739 225.926 81.56 222.863 81.362 220.432 81.265 218.653 81.265H212.122C211.748 84.702 211.592 89.343 211.592 95.16V126.479C211.592 131.339 211.633 136.07 211.73 140.667 211.86 144.064 212.123 146.088 212.508 146.732 212.927 147.378 213.601 147.844 214.51 148.137 215.391 148.45 217.992 148.629 222.23 148.7V152.141C215.852 151.834 211.037 151.694 207.841 151.694 206.449 151.694 200.87 151.835 191.127 152.141V148.7C195.377 148.63 197.953 148.45 198.895 148.137 199.824 147.844 200.447 147.415 200.779 146.86 201.229 146.158 201.498 144.434 201.629 141.688 201.629 140.941 201.683 135.865 201.846 126.478V95.264C201.846 93.77 201.821 92.122 201.735 90.322L201.392 81.267H193.43C188.833 81.267 185.171 81.465 182.451 81.81 181.583 81.918 181.054 82.167 180.81 82.506 180.386 83.132 180.053 85.072 179.712 88.355L179.124 93.77H175.816C175.768 85.227 175.592 79.346 175.286 76.045 179.162 76.197 185.276 76.357 193.593 76.567 200.336 76.72 204.828 76.785 207.095 76.785 209.508 76.785 215.137 76.682 223.971 76.466 228.773 76.355 232.597 76.259 235.442 76.153V76.046C236.013 76.062 236.47 76.07 236.998 76.087 237.297 76.07 237.658 76.059 237.927 76.046 237.923 76.065 237.923 76.09 237.92 76.109 241.865 76.212 244.497 76.263 245.681 76.263 248.029 76.263 250.397 76.193 252.731 76.046 255.483 80.004 257.536 82.935 258.838 84.824L268.917 98.482 283.636 117.958C288.341 124.164 292.134 129.087 294.989 132.631 296.796 135.013 298.347 136.852 299.573 138.211V99.056C299.573 95.551 299.458 91.458 299.228 86.746 299.087 83.789 298.871 81.944 298.589 81.236 298.372 80.769 298.021 80.43 297.573 80.239 296.488 79.728 294.247 79.467 290.888 79.402V76.045C294.729 76.192 298.61 76.262 302.512 76.262zM368.835 133.487H372.372C371.428 140.701 370.935 146.678 370.935 151.428 367.896 151.889 364.122 152.144 359.761 152.144L327.79 151.703C327.343 151.703 322.663 151.831 313.787 152.144V148.759C317.522 148.739 319.98 148.446 321.168 147.904 321.66 147.675 322.024 147.348 322.234 146.863 322.611 146.161 322.835 144.29 322.994 141.263 323.212 136.538 323.313 132.47 323.313 129.041v-27.36C323.313 96.828 323.256 92.11 323.141 87.462 323.038 84.045 322.784 82.047 322.369 81.427 321.961 80.802 321.303 80.348 320.384 80.03 319.477 79.735 316.891 79.556 312.645 79.48V76.045L327.918 76.357 344.054 76.089C351.824 75.987 357.43 75.936 360.943 75.936 364.48 75.936 367.812 76.127 370.935 76.531 370.354 78.549 369.984 80.323 369.773 81.81 369.69 82.143 369.396 85.865 368.835 92.965H365.457C365.477 89.313 365.228 85.992 364.755 82.991 362.782 82.18 360.643 81.618 358.275 81.325 354.291 80.858 350.281 80.596 346.27 80.596 345.415 80.596 343.505 80.647 340.568 80.813 337.581 80.955 335.473 81.069 334.176 81.171 334.03 85.15 333.941 88.853 333.864 92.325L333.652 110.415C337.828 110.619 341.652 110.722 345.152 110.722 349.38 110.722 353.032 110.524 356.013 110.141 357.143 109.995 357.89 109.712 358.229 109.297 358.535 108.863 358.823 107.389 359.072 104.911L359.398 101.156H362.615V102.165L362.354 113.307 362.615 125.772H358.861L358.689 122.151C358.63 119.495 358.394 117.867 357.967 117.216 357.571 116.57 356.779 116.117 355.655 115.875 353.611 115.446 349.647 115.229 343.816 115.229 341.416 115.229 338 115.318 333.651 115.498 333.466 119.061 333.358 124.373 333.358 131.396 333.358 138.004 333.466 143.037 333.651 146.459 338.766 146.848 344.532 147.033 350.936 147.033 355.463 147.033 358.688 146.886 360.641 146.599 362.563 146.311 364.332 145.838 365.974 145.156 366.408 144.07 366.828 142.576 367.263 140.667 368.057 137.489 368.561 135.107 368.835 133.487zM443.944 148.447C444.462 148.619 445.661 148.696 447.488 148.696V152.144C444.749 151.908 442.392 151.811 440.363 151.811 438.236 151.811 435.657 151.908 432.585 152.144 430.254 149.443 426.366 144.213 420.92 136.442 417.887 132.12 415.198 128.531 412.86 125.626 409.119 120.825 405.563 116.502 402.166 112.613L402.709 111.004C404.573 111.107 405.979 111.177 406.942 111.177 413.429 111.177 418.378 109.638 421.704 106.561 425.063 103.496 426.762 99.448 426.762 94.421 426.762 90.004 425.3 86.524 422.414 83.944 419.515 81.338 415.134 80.061 409.292 80.061 405.594 80.061 401.986 80.597 398.481 81.714 398.335 83.656 398.212 85.449 398.156 87.123 398.117 87.62 398.003 92.831 397.779 102.702v23.786C397.779 131.346 397.849 136.071 398.003 140.669 398.093 144.072 398.316 146.09 398.736 146.734 399.139 147.38 399.791 147.833 400.735 148.132 401.641 148.445 404.215 148.631 408.436 148.695V152.143C403.391 151.836 398.711 151.708 394.465 151.708 391.048 151.708 385.264 151.836 377.161 152.143V148.695C381.374 148.632 383.968 148.446 384.868 148.132 385.799 147.832 386.45 147.417 386.821 146.867 387.236 146.165 387.505 144.441 387.626 141.682 387.639 140.936 387.709 135.866 387.817 126.487V101.679C387.817 96.832 387.779 92.096 387.657 87.452 387.562 84.043 387.294 82.045 386.897 81.425 386.458 80.8 385.812 80.34 384.879 80.033 383.991 79.726 381.412 79.554 377.16 79.477V76.048C378.552 76.079 380.69 76.124 383.532 76.194L393.818 76.475C395.875 76.475 399.015 76.386 403.306 76.258 408.862 76.047 412.105 75.932 412.986 75.932 419.825 75.932 424.774 76.551 427.883 77.739 431.011 78.971 433.419 80.927 435.161 83.665 436.86 86.411 437.722 89.36 437.722 92.604 437.722 95.567 436.918 98.575 435.316 101.531 433.7 104.462 431.382 106.946 428.331 108.905 425.298 110.879 421.3 112.385 416.409 113.465 417.309 114.73 419.423 117.494 422.743 121.836L436.217 139.587C440.067 144.562 442.34 147.332 442.979 147.894 443.299 148.172 443.632 148.325 443.944 148.447zM35.563 115.25C32.606 115.372 29.972 115.026 28.443 114.605L27.233 110.531C28.874 110.966 31.514 111.413 34.241 111.528 43.212 111.859 50.104 105.072 50.104 95.769 50.104 84.377 43.211 79.128 32.261 79.128 28.545 79.128 24.95 80.029 21.439 80.673 20.796 82.526 20.796 84.823 20.796 88.222V138.448C20.796 146.985 20.675 147.751 31.194 148.288V151.569C25.923 151.244 20.796 151.026 15.416 151.026 10.062 151.026 4.909 151.244-.001 151.569V148.288C10.499 147.751 10.381 146.985 10.381 138.448V88.222C10.381 79.697 10.499 78.924-.001 78.381V75.08C6.333 75.426 12.677 75.63 19.26 75.63 25.728 75.63 32.043 75.426 38.4 75.08 49.005 75.08 61.048 79.696 61.048 92.039 61.049 105.723 49.227 114.713 35.563 115.25zM5e2 126.214C5e2 144.921 483.252 153.894 466.957 153.894 460.374 153.894 454.25 152.264 448.229 149.749 448.669 145.579 448.892 140.337 449.027 136.091V133.001H452.711V138.147C452.711 140.561 452.953 142.642 454.25 143.849 458.637 147.655 465.623 148.873 471.235 148.873 481.068 148.873 490.684 143.076 490.684 132.227 490.684 105.76 447.36 130.491 447.36 98.648 447.36 83.668 460.053 74.134 474.184 74.134 481.597 74.134 488.506 76.554 495.414 79.185 495.069 80.929 494.629 82.671 494.52 84.421 494.31 87.696 493.863 90.876 493.741 94.158H490.012C490.012 90.002 490.012 87.146 488.953 85.416 485.971 80.812 478.22 79.044 473.059 79.044 464.114 79.044 456.439 85.296 456.439 94.707 456.44 118.449 5e2 98.769 5e2 126.214z" id="Shape"/></g></g></svg>