<svg width="642" height="138" viewBox="0 0 642 138" xmlns="http://www.w3.org/2000/svg" xmlns:xlink="http://www.w3.org/1999/xlink"><title>trellis</title><g id="Portfolio" stroke="none" stroke-width="1" fill="none" fill-rule="evenodd"><g id="Logos" transform="translate(-795.000000, -641.000000)" fill-rule="nonzero"><g id="trellis" transform="translate(795.000000, 641.000000)"><path d="M579 6H592.356386C596.67352 6 599.646106 7.11678623 601.557632 9.00487805 603.26816 10.7409655 604.174676 13.1039443 604.060436 15.5288379V15.6091822C604.207036 19.4236129 601.868208 22.9003497 598.261059 24.2301291L605 34H595.985047L590.315265 25.5156385H586.848598V34H579.016199L579 6zM592.032399 19.4496413C594.656698 19.4496413 596.228037 18.1721664 596.228037 16.1233859V16.0430416C596.228037 13.8014347 594.6081 12.6846485 591.9919 12.6846485H586.824299v6.7649928H592.032399z" id="Shape" fill="#394c6a"/><path id="Path" fill="#394c6a" d="M620.58042 17.4938776 623.797203 12H631.839161L624.705944 22.8571429 632 34H623.821329L620.451748 28.2857143 617.041958 34H609L616.358392 22.9469388 609.201049 12.0081633H617.371678z"/><path id="Rectangle" fill="#73be9f" transform="translate(119.854112, 120.059370) rotate(-135.000000) translate(-119.854112, -120.059370)" d="M107.751031 107.956288 131.959825 107.953657 131.957194 132.162451 107.7484 132.165082z"/><path id="Rectangle" fill="#73be9f" transform="translate(119.852584, 68.704038) rotate(-135.000000) translate(-119.852584, -68.704038)" d="M107.749502 56.6009564 131.958296 56.5983253 131.955665 80.8071192 107.746871 80.8097503z"/><path id="Rectangle" fill="#73be9f" transform="translate(17.121120, 120.054404) rotate(-135.000000) translate(-17.121120, -120.054404)" d="M5.01803859 107.951322 29.2268325 107.948691 29.2242014 132.157485 5.01540749 132.160116z"/><path id="Rectangle" fill="#73be9f" transform="translate(17.119591, 68.699072) rotate(-135.000000) translate(-17.119591, -68.699072)" d="M5.01650978 56.5959901 29.2253037 56.593359 29.2226726 80.8021529 5.01387868 80.804784z"/><path id="Rectangle" fill="#394c6a" transform="translate(68.486087, 68.697543) rotate(-135.000000) translate(-68.486087, -68.697543)" d="M56.383006 56.5944617 80.5917999 56.5918306 80.5891688 80.8006245 56.3803749 80.8032556z"/><path id="Rectangle" fill="#394c6a" transform="translate(68.487616, 120.060898) rotate(-135.000000) translate(-68.487616, -120.060898)" d="M56.3845348 107.957817 80.5933287 107.955186 80.5906976 132.16398 56.3819037 132.166611z"/><path id="Rectangle" fill="#394c6a" transform="translate(119.855352, 17.376502) rotate(-135.000000) translate(-119.855352, -17.376502)" d="M107.752271 5.27342076 131.961065 5.27078965 131.958434 29.4795835 107.74964 29.4822147z"/><path id="Rectangle" fill="#394c6a" transform="translate(68.488856, 17.378031) rotate(-135.000000) translate(-68.488856, -17.378031)" d="M56.3857748 5.27494924 80.5945687 5.27231813 80.5919376 29.481112 56.3831437 29.4837431z"/><path id="Rectangle" fill="#394c6a" transform="translate(17.122360, 17.379559) rotate(-135.000000) translate(-17.122360, -17.379559)" d="M5.01927863 5.27647772 29.2280725 5.27384662 29.2254414 29.4826405 5.01664752 29.4852716z"/><path d="M571 124.996606 581.155393 106.90075C590.728427 113.55458 599.376067 116.397071 608.031685 116.397071 613.129326 116.397071 615.60236 114.795668 615.60236 111.688945V111.360658C615.60236 107.789529 610.815843 106.332252 602.040562 103.729972 585.503146 99.1819865 572.372135 93.3208508 572.372135 75.8095069V75.4812192C572.372135 56.816865 586.596067 46.4237582 605.877753 46.0154004 622.814045 45.6550847 632.514719 51.6763607 638.697303 57.8817981L628.095169 76.4500682C619.439551 71.2535148 612.140112 67.874554 605.526742 67.874554 601.043371 67.874554 598.729888 69.6601186 598.729888 72.2543918V72.5906865C598.729888 76.0016753 603.675955 77.6190925 612.291685 80.381513 628.868989 85.2417717 642 91.2470337 642 108.285964V108.622258C642 127.935181 628.246742 138 607.848202 138 593.791798 137.991993 580.612921 134.677088 571 124.996606z" id="Path" fill="#394c6a"/><path id="Path" fill="#394c6a" d="M255 24.3110886H224.932865V136H196.099172V24.3110886H166V1h89z"/><path id="Path" fill="#394c6a" d="M455 136H426V1h29z"/><path id="Path" fill="#394c6a" d="M506 136H477V1h29z"/><path id="Path" fill="#394c6a" d="M556 136H528V46h28z"/><path d="M323 92.3464363V92.0240824C323 66.3244153 341.249659 46 367.084008 46 397.118738 46 411 68.2827154 411 94.1435595 411 96.0938008 410.591963 102.548938 410.591963 102.548938H351.642604C353.552654 111.943614 362.212175 118.35747 371.684426 117.393337 379.085099 116.796982 384.245568 114.717799 390.54214 108.528604L407.047641 120.665229C398.654878 131.399615 387.093827 137.999906 369.820256 137.999906 342.393763 138.048165 323 119.504755 323 92.3464363zM382.829439 83.8765868C381.717338 75.7532678 375.748795 68.4519512 367.348032 68.4519512 359.275298 68.4519512 353.050732 75.0037949 351.49059 83.8765868H382.829439z" id="Shape" fill="#394c6a"/><path d="M322 51.7688904C314.281254 46.6306966 303.508673 45.0195 294.523508 46.5585534 290.577895 47.242573 286.826641 48.7710755 283.526498 51.0394433V46.4543467H255V136H283.526498V85.8444944C284.151693 76.2254107 289.986841 72.3938091 294.170834 71.0551532 301.544922 68.6984777 310.025123 73.3236538 310.105276 73.3637333L310.001077 73.307622 322 51.7688904z" id="Path" fill="#394c6a"/><path id="Rectangle" fill="#73be9f" transform="translate(541.550324, 17.381797) rotate(-135.000000) translate(-541.550324, -17.381797)" d="M529.447242 5.27871586 553.656036 5.27608475 553.653405 29.4848786 529.444611 29.4875098z"/></g></g></g></svg>