<?xml version="1.0" encoding="UTF-8"?>
<svg width="562px" height="128px" viewBox="0 0 562 128" version="1.1" xmlns="http://www.w3.org/2000/svg" xmlns:xlink="http://www.w3.org/1999/xlink">
    <title>ubersense</title>
    <defs>
        <path d="M67.75,98.625 C70,98.625 72.2916667,98.5 74.625,98.25 C76.9583333,98 79.2291667,97.6458333 81.4375,97.1875 C83.6458333,96.7291667 85.7291667,96.25 87.6875,95.75 C89.6458333,95.25 91.3333333,94.75 92.75,94.25 L92.75,94.25 L92.75,32.625 C91,32.2083333 89.2083333,31.9166667 87.375,31.75 C85.5416667,31.5833333 83.8333333,31.5 82.25,31.5 C80.5833333,31.5 78.8541667,31.5833333 77.0625,31.75 C75.2708333,31.9166667 73.4583333,32.2083333 71.625,32.625 L71.625,32.625 L71.625,80 C71.2916667,80.0833333 70.75,80.1666667 70,80.25 C69.25,80.3333333 68.1666667,80.375 66.75,80.375 C63.3333333,80.375 60.7916667,79.4583333 59.125,77.625 C57.4583333,75.7916667 56.625,72.375 56.625,67.375 L56.625,67.375 L56.625,32.625 C54.875,32.2083333 53.0833333,31.9166667 51.25,31.75 C49.4166667,31.5833333 47.7083333,31.5 46.125,31.5 C44.4583333,31.5 42.7291667,31.5833333 40.9375,31.75 C39.1458333,31.9166667 37.3333333,32.2083333 35.5,32.625 L35.5,32.625 L35.5,69.125 C35.5,75.625 36.375,80.8125 38.125,84.6875 C39.875,88.5625 42.2291667,91.5208333 45.1875,93.5625 C48.1458333,95.6041667 51.5833333,96.9583333 55.5,97.625 C59.4166667,98.2916667 63.5,98.625 67.75,98.625 Z" id="path-1"></path>
        <filter x="-3.5%" y="-3.0%" width="114.0%" height="111.9%" filterUnits="objectBoundingBox" id="filter-2">
            <feOffset dx="4" dy="4" in="SourceAlpha" result="shadowOffsetOuter1"></feOffset>
            <feColorMatrix values="0 0 0 0 0   0 0 0 0 0   0 0 0 0 0  0 0 0 0.1 0" type="matrix" in="shadowOffsetOuter1"></feColorMatrix>
        </filter>
    </defs>
    <g id="Portfolio" stroke="none" stroke-width="1" fill="none" fill-rule="evenodd">
        <g id="Logos" transform="translate(-783.000000, -1085.000000)">
            <g id="ubersense" transform="translate(783.000000, 1085.000000)">
                <g id="Logo">
                    <rect id="BG" fill="#D0281E" x="0" y="0" width="128" height="128" rx="32"></rect>
                    <g id="u" fill-rule="nonzero">
                        <use fill="black" fill-opacity="1" filter="url(#filter-2)" xlink:href="#path-1"></use>
                        <use fill="#FFFFFF" xlink:href="#path-1"></use>
                    </g>
                </g>
                <path d="M193.756923,87.96 C196.796923,87.96 199.716923,87.68 202.516923,87.12 C205.316923,86.56 207.570256,85.9866667 209.276923,85.4 L209.276923,85.4 L209.276923,45.64 C207.356923,45.32 205.46359,45.16 203.596923,45.16 C201.78359,45.16 199.916923,45.32 197.996923,45.64 L197.996923,45.64 L197.996923,78.04 C196.66359,78.4133333 195.010256,78.6 193.036923,78.6 C191.596923,78.6 190.34359,78.4266667 189.276923,78.08 C188.210256,77.7333333 187.316923,77.1466667 186.596923,76.32 C185.876923,75.4933333 185.34359,74.3733333 184.996923,72.96 C184.650256,71.5466667 184.476923,69.7466667 184.476923,67.56 L184.476923,67.56 L184.476923,45.64 C182.556923,45.32 180.66359,45.16 178.796923,45.16 C176.930256,45.16 175.036923,45.32 173.116923,45.64 L173.116923,45.64 L173.116923,67.88 C173.116923,72.3066667 173.676923,75.8533333 174.796923,78.52 C175.916923,81.1866667 177.42359,83.2133333 179.316923,84.6 C181.210256,85.9866667 183.410256,86.8933333 185.916923,87.32 C188.42359,87.7466667 191.036923,87.96 193.756923,87.96 Z M235.855385,87.96 C239.535385,87.96 242.842051,87.44 245.775385,86.4 C248.708718,85.36 251.188718,83.88 253.215385,81.96 C255.242051,80.04 256.788718,77.7066667 257.855385,74.96 C258.922051,72.2133333 259.455385,69.1066667 259.455385,65.64 C259.455385,62.0666667 259.028718,58.9733333 258.175385,56.36 C257.322051,53.7466667 256.148718,51.5733333 254.655385,49.84 C253.162051,48.1066667 251.388718,46.8133333 249.335385,45.96 C247.282051,45.1066667 245.055385,44.68 242.655385,44.68 C240.255385,44.68 238.122051,45.1466667 236.255385,46.08 C234.388718,47.0133333 233.055385,48.2 232.255385,49.64 L232.255385,49.64 L232.255385,28.52 C230.335385,28.2 228.442051,28.04 226.575385,28.04 C224.762051,28.04 222.895385,28.2 220.975385,28.52 L220.975385,28.52 L220.975385,85.64 C221.988718,86.0133333 223.108718,86.3466667 224.335385,86.64 C225.562051,86.9333333 226.842051,87.1733333 228.175385,87.36 C229.508718,87.5466667 230.828718,87.6933333 232.135385,87.8 C233.442051,87.9066667 234.682051,87.96 235.855385,87.96 Z M236.495385,78.52 C235.748718,78.52 235.015385,78.4933333 234.295385,78.44 C233.575385,78.3866667 232.895385,78.2533333 232.255385,78.04 L232.255385,78.04 L232.255385,63 C232.255385,59.96 232.935385,57.7333333 234.295385,56.32 C235.655385,54.9066667 237.402051,54.2 239.535385,54.2 C242.468718,54.2 244.548718,55.2 245.775385,57.2 C247.002051,59.2 247.615385,62.12 247.615385,65.96 C247.615385,70.28 246.628718,73.4533333 244.655385,75.48 C242.682051,77.5066667 239.962051,78.52 236.495385,78.52 Z M289.393846,87.96 C294.620513,87.96 299.313846,87.16 303.473846,85.56 C303.420513,83.8533333 303.180513,82.2533333 302.753846,80.76 C302.327179,79.2666667 301.820513,77.9866667 301.233846,76.92 C299.527179,77.56 297.727179,78.0533333 295.833846,78.4 C293.940513,78.7466667 292.087179,78.92 290.273846,78.92 C286.967179,78.92 284.300513,78.2 282.273846,76.76 C280.247179,75.32 279.127179,73 278.913846,69.8 L278.913846,69.8 L305.473846,69.8 C305.580513,69.2133333 305.673846,68.4266667 305.753846,67.44 C305.833846,66.4533333 305.873846,65.4533333 305.873846,64.44 C305.873846,61.6666667 305.473846,59.0666667 304.673846,56.64 C303.873846,54.2133333 302.687179,52.12 301.113846,50.36 C299.540513,48.6 297.633846,47.2133333 295.393846,46.2 C293.153846,45.1866667 290.593846,44.68 287.713846,44.68 C284.407179,44.68 281.513846,45.2533333 279.033846,46.4 C276.553846,47.5466667 274.473846,49.1066667 272.793846,51.08 C271.113846,53.0533333 269.847179,55.3733333 268.993846,58.04 C268.140513,60.7066667 267.713846,63.56 267.713846,66.6 C267.713846,69.6933333 268.127179,72.5466667 268.953846,75.16 C269.780513,77.7733333 271.060513,80.0266667 272.793846,81.92 C274.527179,83.8133333 276.767179,85.2933333 279.513846,86.36 C282.260513,87.4266667 285.553846,87.96 289.393846,87.96 Z M295.153846,61.88 L278.993846,61.88 C279.260513,59.16 280.087179,57.0533333 281.473846,55.56 C282.860513,54.0666667 284.887179,53.32 287.553846,53.32 C289.900513,53.32 291.727179,54.1066667 293.033846,55.68 C294.340513,57.2533333 295.047179,59.32 295.153846,61.88 L295.153846,61.88 Z M322.052308,87.48 C322.958974,87.48 323.892308,87.4533333 324.852308,87.4 C325.812308,87.3466667 326.772308,87.24 327.732308,87.08 L327.732308,87.08 L327.732308,67.4 C327.732308,64.52 328.065641,62.28 328.732308,60.68 C329.398974,59.08 330.238974,57.88 331.252308,57.08 C332.265641,56.28 333.332308,55.7866667 334.452308,55.6 C335.572308,55.4133333 336.585641,55.32 337.492308,55.32 L337.492308,55.32 L338.812308,55.32 C339.532308,55.32 340.185641,55.3733333 340.772308,55.48 C340.985641,54.52 341.132308,53.5066667 341.212308,52.44 C341.292308,51.3733333 341.332308,50.3866667 341.332308,49.48 C341.332308,48.7333333 341.305641,48.0133333 341.252308,47.32 C341.198974,46.6266667 341.118974,46.0133333 341.012308,45.48 C340.692308,45.3733333 340.185641,45.2933333 339.492308,45.24 C338.798974,45.1866667 338.185641,45.16 337.652308,45.16 C335.092308,45.16 332.958974,45.8133333 331.252308,47.12 C329.545641,48.4266667 328.105641,49.9066667 326.932308,51.56 C326.878974,51.1866667 326.812308,50.72 326.732308,50.16 C326.652308,49.6 326.558974,49.04 326.452308,48.48 C326.345641,47.92 326.225641,47.3866667 326.092308,46.88 C325.958974,46.3733333 325.812308,45.9866667 325.652308,45.72 C324.905641,45.56 324.145641,45.4266667 323.372308,45.32 C322.598974,45.2133333 321.812308,45.16 321.012308,45.16 C320.158974,45.16 319.372308,45.2 318.652308,45.28 C317.932308,45.36 317.172308,45.48 316.372308,45.64 L316.372308,45.64 L316.372308,87.08 C317.385641,87.24 318.358974,87.3466667 319.292308,87.4 C320.225641,87.4533333 321.145641,87.48 322.052308,87.48 Z M359.430769,87.96 C362.257436,87.96 364.790769,87.6 367.030769,86.88 C369.270769,86.16 371.177436,85.1733333 372.750769,83.92 C374.324103,82.6666667 375.524103,81.1866667 376.350769,79.48 C377.177436,77.7733333 377.590769,75.9333333 377.590769,73.96 C377.590769,72.04 377.350769,70.4133333 376.870769,69.08 C376.390769,67.7466667 375.724103,66.6266667 374.870769,65.72 C374.017436,64.8133333 372.990769,64.0533333 371.790769,63.44 C370.590769,62.8266667 369.244103,62.3066667 367.750769,61.88 L367.750769,61.88 L363.190769,60.52 C361.857436,60.0933333 360.830769,59.64 360.110769,59.16 C359.390769,58.68 359.030769,57.8533333 359.030769,56.68 C359.030769,55.4533333 359.537436,54.56 360.550769,54 C361.564103,53.44 362.977436,53.16 364.790769,53.16 C366.497436,53.16 368.124103,53.36 369.670769,53.76 C371.217436,54.16 372.630769,54.6266667 373.910769,55.16 C374.497436,54.04 375.004103,52.7333333 375.430769,51.24 C375.857436,49.7466667 376.124103,48.3066667 376.230769,46.92 C374.150769,46.1733333 372.097436,45.6133333 370.070769,45.24 C368.044103,44.8666667 365.990769,44.68 363.910769,44.68 C358.897436,44.68 354.937436,45.8266667 352.030769,48.12 C349.124103,50.4133333 347.670769,53.5866667 347.670769,57.64 C347.670769,61 348.510769,63.52 350.190769,65.2 C351.870769,66.88 354.204103,68.1466667 357.190769,69 L357.190769,69 L362.150769,70.44 C363.537436,70.8666667 364.617436,71.36 365.390769,71.92 C366.164103,72.48 366.550769,73.4 366.550769,74.68 C366.550769,75.5866667 366.297436,76.32 365.790769,76.88 C365.284103,77.44 364.657436,77.8933333 363.910769,78.24 C363.164103,78.5866667 362.350769,78.8266667 361.470769,78.96 C360.590769,79.0933333 359.777436,79.16 359.030769,79.16 C357.324103,79.16 355.684103,78.9866667 354.110769,78.64 C352.537436,78.2933333 350.870769,77.7733333 349.110769,77.08 C348.470769,78.4666667 347.950769,79.8933333 347.550769,81.36 C347.150769,82.8266667 346.897436,84.28 346.790769,85.72 C347.910769,86.1466667 348.950769,86.4933333 349.910769,86.76 C350.870769,87.0266667 351.844103,87.2533333 352.830769,87.44 C353.817436,87.6266667 354.844103,87.76 355.910769,87.84 C356.977436,87.92 358.150769,87.96 359.430769,87.96 Z M407.049231,87.96 C412.275897,87.96 416.969231,87.16 421.129231,85.56 C421.075897,83.8533333 420.835897,82.2533333 420.409231,80.76 C419.982564,79.2666667 419.475897,77.9866667 418.889231,76.92 C417.182564,77.56 415.382564,78.0533333 413.489231,78.4 C411.595897,78.7466667 409.742564,78.92 407.929231,78.92 C404.622564,78.92 401.955897,78.2 399.929231,76.76 C397.902564,75.32 396.782564,73 396.569231,69.8 L396.569231,69.8 L423.129231,69.8 C423.235897,69.2133333 423.329231,68.4266667 423.409231,67.44 C423.489231,66.4533333 423.529231,65.4533333 423.529231,64.44 C423.529231,61.6666667 423.129231,59.0666667 422.329231,56.64 C421.529231,54.2133333 420.342564,52.12 418.769231,50.36 C417.195897,48.6 415.289231,47.2133333 413.049231,46.2 C410.809231,45.1866667 408.249231,44.68 405.369231,44.68 C402.062564,44.68 399.169231,45.2533333 396.689231,46.4 C394.209231,47.5466667 392.129231,49.1066667 390.449231,51.08 C388.769231,53.0533333 387.502564,55.3733333 386.649231,58.04 C385.795897,60.7066667 385.369231,63.56 385.369231,66.6 C385.369231,69.6933333 385.782564,72.5466667 386.609231,75.16 C387.435897,77.7733333 388.715897,80.0266667 390.449231,81.92 C392.182564,83.8133333 394.422564,85.2933333 397.169231,86.36 C399.915897,87.4266667 403.209231,87.96 407.049231,87.96 Z M412.809231,61.88 L396.649231,61.88 C396.915897,59.16 397.742564,57.0533333 399.129231,55.56 C400.515897,54.0666667 402.542564,53.32 405.209231,53.32 C407.555897,53.32 409.382564,54.1066667 410.689231,55.68 C411.995897,57.2533333 412.702564,59.32 412.809231,61.88 L412.809231,61.88 Z M464.987692,87.48 C466.854359,87.48 468.747692,87.32 470.667692,87 L470.667692,87 L470.667692,60.6 C470.667692,55.1066667 469.481026,51.08 467.107692,48.52 C464.734359,45.96 461.201026,44.68 456.507692,44.68 C455.014359,44.68 453.654359,44.88 452.427692,45.28 C451.201026,45.68 450.094359,46.2 449.107692,46.84 C448.121026,47.48 447.254359,48.2 446.507692,49 C445.761026,49.8 445.121026,50.6 444.587692,51.4 C444.534359,51.0266667 444.467692,50.5733333 444.387692,50.04 C444.307692,49.5066667 444.214359,48.96 444.107692,48.4 C444.001026,47.84 443.881026,47.3066667 443.747692,46.8 C443.614359,46.2933333 443.467692,45.9066667 443.307692,45.64 C442.561026,45.48 441.841026,45.36 441.147692,45.28 C440.454359,45.2 439.654359,45.16 438.747692,45.16 C437.841026,45.16 437.014359,45.2 436.267692,45.28 C435.521026,45.36 434.774359,45.48 434.027692,45.64 L434.027692,45.64 L434.027692,87 C435.947692,87.32 437.841026,87.48 439.707692,87.48 C441.574359,87.48 443.467692,87.32 445.387692,87 L445.387692,87 L445.387692,65.32 C445.387692,63.08 445.627692,61.2666667 446.107692,59.88 C446.587692,58.4933333 447.214359,57.4133333 447.987692,56.64 C448.761026,55.8666667 449.627692,55.3466667 450.587692,55.08 C451.547692,54.8133333 452.481026,54.68 453.387692,54.68 C455.574359,54.68 457.107692,55.4533333 457.987692,57 C458.867692,58.5466667 459.307692,60.76 459.307692,63.64 L459.307692,63.64 L459.307692,87 C461.227692,87.32 463.121026,87.48 464.987692,87.48 Z M492.766154,87.96 C495.592821,87.96 498.126154,87.6 500.366154,86.88 C502.606154,86.16 504.512821,85.1733333 506.086154,83.92 C507.659487,82.6666667 508.859487,81.1866667 509.686154,79.48 C510.512821,77.7733333 510.926154,75.9333333 510.926154,73.96 C510.926154,72.04 510.686154,70.4133333 510.206154,69.08 C509.726154,67.7466667 509.059487,66.6266667 508.206154,65.72 C507.352821,64.8133333 506.326154,64.0533333 505.126154,63.44 C503.926154,62.8266667 502.579487,62.3066667 501.086154,61.88 L501.086154,61.88 L496.526154,60.52 C495.192821,60.0933333 494.166154,59.64 493.446154,59.16 C492.726154,58.68 492.366154,57.8533333 492.366154,56.68 C492.366154,55.4533333 492.872821,54.56 493.886154,54 C494.899487,53.44 496.312821,53.16 498.126154,53.16 C499.832821,53.16 501.459487,53.36 503.006154,53.76 C504.552821,54.16 505.966154,54.6266667 507.246154,55.16 C507.832821,54.04 508.339487,52.7333333 508.766154,51.24 C509.192821,49.7466667 509.459487,48.3066667 509.566154,46.92 C507.486154,46.1733333 505.432821,45.6133333 503.406154,45.24 C501.379487,44.8666667 499.326154,44.68 497.246154,44.68 C492.232821,44.68 488.272821,45.8266667 485.366154,48.12 C482.459487,50.4133333 481.006154,53.5866667 481.006154,57.64 C481.006154,61 481.846154,63.52 483.526154,65.2 C485.206154,66.88 487.539487,68.1466667 490.526154,69 L490.526154,69 L495.486154,70.44 C496.872821,70.8666667 497.952821,71.36 498.726154,71.92 C499.499487,72.48 499.886154,73.4 499.886154,74.68 C499.886154,75.5866667 499.632821,76.32 499.126154,76.88 C498.619487,77.44 497.992821,77.8933333 497.246154,78.24 C496.499487,78.5866667 495.686154,78.8266667 494.806154,78.96 C493.926154,79.0933333 493.112821,79.16 492.366154,79.16 C490.659487,79.16 489.019487,78.9866667 487.446154,78.64 C485.872821,78.2933333 484.206154,77.7733333 482.446154,77.08 C481.806154,78.4666667 481.286154,79.8933333 480.886154,81.36 C480.486154,82.8266667 480.232821,84.28 480.126154,85.72 C481.246154,86.1466667 482.286154,86.4933333 483.246154,86.76 C484.206154,87.0266667 485.179487,87.2533333 486.166154,87.44 C487.152821,87.6266667 488.179487,87.76 489.246154,87.84 C490.312821,87.92 491.486154,87.96 492.766154,87.96 Z M540.384615,87.96 C545.611282,87.96 550.304615,87.16 554.464615,85.56 C554.411282,83.8533333 554.171282,82.2533333 553.744615,80.76 C553.317949,79.2666667 552.811282,77.9866667 552.224615,76.92 C550.517949,77.56 548.717949,78.0533333 546.824615,78.4 C544.931282,78.7466667 543.077949,78.92 541.264615,78.92 C537.957949,78.92 535.291282,78.2 533.264615,76.76 C531.237949,75.32 530.117949,73 529.904615,69.8 L529.904615,69.8 L556.464615,69.8 C556.571282,69.2133333 556.664615,68.4266667 556.744615,67.44 C556.824615,66.4533333 556.864615,65.4533333 556.864615,64.44 C556.864615,61.6666667 556.464615,59.0666667 555.664615,56.64 C554.864615,54.2133333 553.677949,52.12 552.104615,50.36 C550.531282,48.6 548.624615,47.2133333 546.384615,46.2 C544.144615,45.1866667 541.584615,44.68 538.704615,44.68 C535.397949,44.68 532.504615,45.2533333 530.024615,46.4 C527.544615,47.5466667 525.464615,49.1066667 523.784615,51.08 C522.104615,53.0533333 520.837949,55.3733333 519.984615,58.04 C519.131282,60.7066667 518.704615,63.56 518.704615,66.6 C518.704615,69.6933333 519.117949,72.5466667 519.944615,75.16 C520.771282,77.7733333 522.051282,80.0266667 523.784615,81.92 C525.517949,83.8133333 527.757949,85.2933333 530.504615,86.36 C533.251282,87.4266667 536.544615,87.96 540.384615,87.96 Z M546.144615,61.88 L529.984615,61.88 C530.251282,59.16 531.077949,57.0533333 532.464615,55.56 C533.851282,54.0666667 535.877949,53.32 538.544615,53.32 C540.891282,53.32 542.717949,54.1066667 544.024615,55.68 C545.331282,57.2533333 546.037949,59.32 546.144615,61.88 L546.144615,61.88 Z" fill="#D0281E" fill-rule="nonzero"></path>
            </g>
        </g>
    </g>
</svg>