<svg width="53" height="13" viewBox="0 0 53 13" xmlns="http://www.w3.org/2000/svg" xmlns:xlink="http://www.w3.org/1999/xlink"><title>accredo</title><g id="Portfolio" stroke="none" stroke-width="1" fill="none" fill-rule="evenodd"><g id="accredo" fill="#007d89" fill-rule="nonzero"><path d="M45.0008719.30732431C43.7800623.30732431 43.3566839 1.27504639 43.3566839 2.27623944 43.3566839 3.8945902 44.4348015 7.28337911 46.5205714 7.28337911 47.7407938 7.28337911 48.1659338 6.31506982 48.1659338 5.31387677 48.1659338 3.6949388 47.087229.30732431 45.0008719.30732431M39.970831 5.3802315 39.1405161 2.50936181C38.980795 1.90864598 37.6906946.45647565 36.469885.45647565 35.6748027.45647565 35.2156045 1.00786584 35.2156045 1.72484925 35.2156045 3.54461304 36.4875013 7.28337911 38.9455624 7.28337911 39.4047606 7.28337911 40.1475813 7.04966953 40.1475813 6.54936661 40.1475813 6.31506982 40.0777033 5.7971506 39.970831 5.3802315M46.9633277 7.58403063C44.2052024 7.58403063 42.0307637 4.86289949 42.0307637 2.45944896 42.0307637 2.20225098 42.0636475 1.95620999 42.1270662 1.72661088 41.6338098 1.12178458 40.9960997.45647565 40.5715469.45647565 40.2544535.45647565 40.2186337.72424341 40.2186337.97439487 40.2186337 1.44122682 40.3249187 1.97617513 40.4834654 2.54283278l2.5291134 9.08061542C43.1182766 12.0233382 43.2597943 12.3739026 43.2597943 12.4737283 43.2597943 12.5905831 43.1006603 12.657525 42.8880903 12.657525 41.9156706 12.657525 40.8904019 12.5576993 39.9355984 12.4907574L39.8299006 12.0732511C40.1651976 12.1067221 41.0847684 12.1572221 41.2797221 12.1572221 41.4735014 12.1572221 41.5974027 12.0403673 41.5974027 11.9405416 41.5974027 11.7397158 41.296164 10.7214937 41.0495358 9.68624243L40.3777676 6.91578565C39.9532147 7.45014675 39.2285976 7.58403063 38.6267074 7.58403063c-2.7052765000000036.0-4.7376103-2.90492787-4.7376103-5.25846555C33.8890971 1.02430772 34.436964.00608558 35.9044018.00608558 37.0888044.00608558 38.4147245.99083675 39.1046963 1.84229125H39.1581324C39.1046963 1.67434919 39.0688765 1.42478494 39.0688765 1.17463348 39.0688765.35664995 39.4581967.00608558 40.1475813.00608558 40.8945124.00608558 41.6549493.7177841 42.2345256 1.42361052 42.5956597.5709816 43.4195154.00608558 44.5587028.00608558 47.3168281.00608558 49.4912668 2.72721672 49.4912668 5.13066725 49.4912668 6.53233752 48.518847 7.58403063 46.9633277 7.58403063M32.0622868 7.28337911C32.6283572 7.28337911 32.9982995 6.99975668 32.9982995 6.44836649 32.9982995 5.22990574 31.4615709 4.29624184 30.5243838 3.84526456L28.844376 3.04372291C29.0915914 4.51233512 30.1174472 7.28337911 32.0622868 7.28337911M29.9759296.45647565C29.056946.45647565 28.7028584 1.24157542 28.7028584 2.17523932 28.7028584 2.32556508 28.7028584 2.60977472 28.8801958 2.71018763L31.4791872 3.94450305C32.5044559 4.42953851 34.1128241 5.19702198 34.1128241 6.38201176 34.1128241 7.23287905 32.9460378 7.58403063 32.2038044 7.58403063 29.4098592 7.58403063 27.3769382 4.46242227 27.3769382 2.37665235 27.3769382 1.02430772 28.2424857.00608558 29.7815631.00608558 31.4968035.00608558 33.0170902 1.37487209 33.6360096 2.72721672L33.3705906 2.86051339C32.7692876 1.80823307 31.4615709.45647565 29.9759296.45647565M28.5924629 6.56580849C28.5924629 7.13305335 28.0974448 7.58403063 27.3193916 7.58403063 25.7110234 7.58403063 24.6493477 5.84765066 24.0310156 4.62918991H23.9781667C24.1196843 5.22990574 24.3492834 6.26456976 24.3492834 6.79951807 24.3492834 7.29982099 24.1725332 7.58403063 23.7303641 7.58403063 22.7931769 7.58403063 21.6087743 5.66385393 21.1137563 4.94687052L21.3615589 4.81298664C21.5735417 5.11363816 22.7931769 6.94925662 23.1642936 6.94925662 23.3058112 6.94925662 23.3416311 6.78248898 23.3416311 6.64919231 23.3416311 6.31506982 23.235346 5.86467975 23.1120319 5.3802315L21.8037281.27326613H23.1472645L23.6064628 1.97617513C23.8190328 2.74307139 24.1725332 6.06491836 26.7533212 6.8658728 26.9835075 6.48183746 27.4256766 6.04788927 27.9911598 6.04788927 28.3975092 6.04788927 28.5924629 6.26456976 28.5924629 6.56580849m-9.1957086.71757062C19.8036908 7.28337911 19.8213071 6.88290189 19.8213071 6.73198892 19.8213071 6.08136024 19.9452084 5.26396392 20.5811568 5.26396392 21.0585586 5.26396392 21.3063612 5.78188314 21.3063612 6.14888939 21.3063612 7.06611141 20.3163251 7.58403063 19.4501904 7.58403063 16.6744487 7.58403063 14.340289 5.0631381 14.340289 2.55927466 14.340289 1.0407496 15.1711911.00608558 16.9040478.00608558 18.8136547.00608558 20.1753947 1.39131397 20.9176282 2.87695527L20.634593 3.01025194C20.0327027 1.95914604 18.6545208.45647565 17.2217284.45647565 16.090762.45647565 15.6667964.9409239 15.6667964 1.95914604 15.6667964 3.76129353 16.9921293 7.28337911 19.3967543 7.28337911M4.38649225 2.12532647C4.17392223 1.60858167 2.98951966.45647565 2.22908271.45647565 1.52208187.45647565 1.22143035.87398196 1.22143035 1.50875597 1.22143035 3.02669382 3.09580467 7.28337911 5.00482438 7.28337911 5.46460981 7.28337911 5.81811023 7.16652432 5.81811023 6.69910516 5.81811023 5.73079587 4.75760897 3.04372291 4.38649225 2.12532647M12.4688507 7.28337911C12.8752 7.28337911 12.8922291 6.88290189 12.8922291 6.73198892 12.8922291 6.08136024 13.0161304 5.26396392 13.6532533 5.26396392 14.130655 5.26396392 14.3778704 5.78188314 14.3778704 6.14888939 14.3778704 7.06611141 13.3878343 7.58403063 12.5216996 7.58403063 9.74595792 7.58403063 7.41179817 5.0631381 7.41179817 2.55927466 7.41179817 2.44065824 7.4194319 2.32556508 7.42941447 2.21340797 6.94672785 1.7219132 6.02245931.77415626 5.74764503.77415626 5.57089482.77415626 5.53507501.85754008 5.53507501 1.0407496 5.53507501 1.44122682 5.73061594 2.12532647 5.92439524 2.77654236L7.41003654 7.58403063C7.35660043 7.53411778 7.26793172 7.53411778 7.16223392 7.53411778 7.03833261 7.53411778 6.8791987 7.58403063 6.68483219 7.58403063 6.43702957 7.58403063 6.22504676 7.50064681 6.11934896 7.26693723 5.73061594 7.45014675 5.3230922 7.58403063 4.88151028 7.58403063 3.76757291 7.58403063 2.30072233 6.73198892 1.34474445 5.4976735.23139429 4.06253226.00179518 3.02669382.00179518 1.87517501c0-1.0511059.58309953-1.86908943 1.76808931-1.86908943C2.81335666.00608558 3.96193942 1.0407496 4.47457375 1.84229125H4.50980635C4.36828874 1.40834306 4.22735834.97439487 4.22735834.54044668 4.22735834.17344043 4.43875394.00608558 4.84627768.00608558 5.76819738.00608558 6.78700673 1.0583659 7.48108895 1.85638429 7.71068806.73128993 8.52632275.00608558 9.97555703.00608558 11.8857512.00608558 13.2463167 1.39131397 13.9885502 2.87695527L13.705515 3.01025194C13.1047991 1.95914604 11.72603.45647565 10.2938249.45647565 9.16227118.45647565 8.73830556.9409239 8.73830556 1.95914604 8.73830556 3.76129353 10.0636385 7.28337911 12.4688507 7.28337911" id="Shape" transform="translate(24.746531, 6.331805) scale(-1, 1) rotate(-180.000000) translate(-24.746531, -6.331805)"/><path d="M52.0239035 6.38964549C52.0121593 6.36322104 51.9939558 6.33855822 51.9657697 6.31683145 51.9405197 6.2962791 51.9082231 6.28218606 51.8677056 6.27337791 51.8283626 6.26515697 51.7813858 6.26045929 51.7267752 6.26045929H51.5600076V6.66974466H51.7561357C51.8019381 6.66974466 51.8412812 6.66680861 51.8712289 6.66269814 51.902351 6.65858767 51.9317115 6.64919231 51.9593104 6.63451206 51.9880837 6.61865739 52.0092233 6.59751783 52.0221419 6.57285501 52.0332989 6.54760498 52.0397582 6.52059332 52.0397582 6.48829677 52.0397582 6.4489537 52.0338861 6.41548273 52.0239035 6.38964549M51.9992407 6.15123823C52.0849733 6.18529641 52.1542641 6.231686 52.2035898 6.28864537 52.2535026 6.34619195 52.2787526 6.41841878 52.2787526 6.50415144 52.2787526 6.56933175 52.2640724 6.62335507 52.2394096 6.66680861 52.2129851 6.70908773 52.1718804 6.74725638 52.1178571 6.77661688 52.0650082 6.80480296 52.0115721 6.82241926 51.9563744 6.82829136 51.9035255 6.8365123 51.8348219 6.83944835 51.7526125 6.83944835H51.3380422V5.62274923H51.5600076V6.0907556H51.7743393L52.2129851 5.62274923H52.508939L51.9992407 6.15123823zM52.5841018 7.02207066C52.3592004 7.2475593 52.0873222 7.3591292 51.7690544 7.3591292 51.451961 7.3591292 51.1812572 7.2475593 50.9557685 7.02207066 50.7308671 6.79775644 50.61871 6.52587821 50.61871 6.20761039 50.61871 5.89051699 50.7308671 5.61981318 50.9557685 5.39315012 51.1812572 5.1688359 51.451961 5.05667879 51.7690544 5.05667879 52.0873222 5.05667879 52.3592004 5.1688359 52.5841018 5.39315012 52.8084161 5.61981318 52.9211604 5.89051699 52.9211604 6.20761039 52.9211604 6.52587821 52.8084161 6.79775644 52.5841018 7.02207066M52.4748808 5.50060955C52.2805143 5.30506862 52.0462175 5.20583013 51.7690544 5.20583013 51.4936529 5.20583013 51.2587689 5.30506862 51.0644024 5.50060955 50.8688614 5.6973249 50.772559 5.93279611 50.772559 6.20761039 50.772559 6.48242467 50.8688614 6.71848309 51.0644024 6.91519844 51.2587689 7.11191379 51.4936529 7.20997786 51.7690544 7.20997786 52.0462175 7.20997786 52.2805143 7.11191379 52.4748808 6.91519844 52.6704217 6.71848309 52.7684858 6.48242467 52.7684858 6.20761039 52.7684858 5.93279611 52.6704217 5.6973249 52.4748808 5.50060955" id="Shape" transform="translate(51.769935, 6.207904) scale(-1, 1) rotate(-180.000000) translate(-51.769935, -6.207904)"/></g></g></svg>