<svg width="361" height="281" viewBox="0 0 361 281" xmlns="http://www.w3.org/2000/svg" xmlns:xlink="http://www.w3.org/1999/xlink"><title>airforce-light</title><g id="Portfolio" stroke="none" stroke-width="1" fill="none" fill-rule="evenodd"><g id="airforce-light" fill="#fff" fill-rule="nonzero"><g id="Group" transform="translate(60.000000, 0.000000)"><path id="Path" d="M88.33 156.749 65.512 173.325 93.296 193.514 102.009 166.692z"/><path id="Path" d="M97.401 196.5 120.218 213.074 143.022 196.5 120.218 179.917z"/><path id="Path" d="M108.927 145.277 25.276 84.494 44.803 125.13 72.546 145.277z"/><path id="Path" d="M117.682 118.478.809 33.559 20.334 74.203l90.389 65.673z"/><path id="Path" d="M17.378.219 3.598 28.893 45.944 59.658z"/><path id="Path" d="M138.418 166.692 147.138 193.514 174.912 173.325 152.092 156.749z"/><path id="Path" d="M167.882 145.277 195.625 125.13 215.144 84.494 131.502 145.277z"/><path id="Path" d="M122.751 118.478 129.7 139.876 220.09 74.203 239.62 33.559z"/><path id="Path" d="M223.05.219 194.476 59.658 236.829 28.893z"/><path d="M107.542 160.748C107.542 153.751 113.218 148.071 120.224 148.071 127.214 148.071 132.901 153.751 132.901 160.748 132.901 167.753 127.214 173.428 120.224 173.428 113.218 173.427 107.542 167.753 107.542 160.748z" id="Path"/></g><g id="Group" transform="translate(0.000000, 253.000000)"><path d="M.15 1.258H9.323V15.854C9.323 17.457 9.469 18.622 10.051 19.604 11.216 21.605 13.545 22.152 15.402 22.152 17.804 22.152 19.187 21.315 19.806 20.732 21.37 19.277 21.408 16.947 21.408 15.709V1.259H30.58V14.726C30.58 17.747 30.509 20.914 29.089 23.099 26.286 27.466 19.516 27.867 15.439 27.867 9.724 27.867 6.485 27.066 4.556 25.904.552 23.936.152 19.86.152 17.785V1.258H.15z" id="Path"/><path id="Path" d="M33.031 20.259h8.372V26.956H33.031z"/><path d="M55.427 7.882C55.427 8.247 55.536 8.574 55.718 8.793 56.337 9.594 58.921 10.175 60.341 10.467 62.089 10.866 63.872 11.195 65.618 11.594 66.747 11.813 67.839 12.069 68.931 12.505 72.352 13.779 73.445 16.327 73.445 18.656 73.445 20.367 72.862 21.932 72.098 23.06 69.95 26.3 65.618 27.72 58.702 27.72 56.118 27.72 50.986 27.502 47.966 24.808 45.745 22.841 45.417 20.476 45.272 19.312L54.335 19.056C54.662 20.731 56.373 22.005 60.013 22.005 60.96 22.005 62.306 21.895 63.216 21.387 63.835 21.022 64.49 20.293 64.49 19.421 64.49 18.219 63.508 17.709 62.78 17.455 61.651 17.091 55.864 16.071 54.589 15.78 53.571 15.561 52.624 15.307 51.642 14.979 50.66 14.615 46.545 13.158 46.545 8.463 46.545 6.533 47.347 4.75 48.62 3.44 51.495.456 56.665.165 59.503.165 62.634.165 65.729.601 67.329 1.146 72.134 2.676 72.753 6.28 73.009 7.663L63.982 8.173C63.763 7.334 63.326 5.806 59.468 5.806 58.266 5.806 55.427 5.989 55.427 7.882z" id="Path"/><path id="Path" d="M76.436 20.259h8.372V26.956H76.436z"/><path d="M118.229 17.092H112.26L115.208 8.393 118.229 17.092zM98.865 26.956H108.948L110.331 22.769H120.159L121.542 26.956H131.553L120.413 1.258H109.931L98.865 26.956z" id="Shape"/><path id="Path" d="M144.174 1.258V26.956H134.964V1.258z"/><path d="M160.223 7.082H167.868C168.559 7.082 169.505 7.153 170.233 7.811 170.707 8.248 170.889 8.866 170.889 9.449 170.889 11.742 168.559 11.778 167.139 11.778H160.223V7.082zM151.014 26.956H160.223V17.602H165.137L170.414 26.956H180.607L174.164 16.691C175.256 16.4 177.003 16.035 178.459 14.289 179.516 13.016 180.098 11.23 180.098 9.411 180.098 6.826 178.933 4.316 177.076 2.895 174.929 1.329 172.162 1.292 169.906 1.257H151.014V26.956z" id="Shape"/><path id="Path" d="M194.343 1.258H219.531V7.045H203.552v4.914H218.22V17.71H203.552V26.956H194.342V1.258z"/><path d="M240.156 6.025C246.452 6.098 247.691 11.267 247.691 14.07 247.691 16.653 246.709 20.004 243.869 21.423 242.741 22.006 241.43 22.152 240.156 22.152 234.588 22.152 232.439 18.039 232.439 14.071 232.439 10.54 234.369 5.953 240.156 6.025zM239.61.31C235.059.383 228.945 1.221 225.342 6.318 223.702 8.645 222.974 11.486 222.974 14.362 222.974 17.31 223.666 19.785 225.413 22.114 227.306 24.699 230.983 27.865 239.937 27.865 244.595 27.865 248.745 27.212 252.24 24.444 253.476 23.497 254.496 22.334 255.298 20.985 256.571 18.874 257.155 16.4 257.155 13.998 257.155 9.594 255.08 4.205 249.181 1.805 246.235.601 242.812.275 239.61.31z" id="Shape"/><path d="M271.497 7.082H279.142C279.833 7.082 280.78 7.153 281.507 7.811 281.982 8.248 282.163 8.866 282.163 9.449 282.163 11.742 279.833 11.778 278.414 11.778H271.497V7.082v0zM262.287 26.956H271.497V17.602H276.411L281.689 26.956H291.881L285.437 16.691C286.53 16.4 288.277 16.035 289.733 14.289 290.79 13.016 291.371 11.23 291.371 9.411 291.371 6.826 290.207 4.316 288.35 2.895 286.203 1.329 283.437 1.292 281.181 1.257H262.287V26.956z" id="Shape"/><path d="M305.277 14.107C305.277 18.002 307.569 22.043 312.848 22.043 314.849 22.043 316.705 21.423 318.053 20.332 319.253 19.348 319.618 18.513 319.909 17.746L328.68 18.656C328.389 19.603 328.062 20.549 327.224 21.859 324.203 26.519 318.306 27.83 312.664 27.83 310.152 27.83 307.676 27.61 305.311 26.883 300.032 25.244 295.665 21.204 295.665 14.144 295.665 9.156 298.284.166 312.917.166 325.401.166 327.369 5.844 328.205 8.283L319.688 9.812C319.325 9.083 318.887 8.1 317.54 7.227 316.156 6.353 314.446 6.061 313.136 6.061 308.989 6.061 305.277 8.645 305.277 14.107z" id="Path"/><path id="Path" d="M359.787 1.258V7.045H341.914v4.186H358.44v5.824H341.877V21.132H360.149V26.956H332.705V1.258H359.787z"/></g></g></g></svg>