<?xml version="1.0"?>
<svg xmlns="http://www.w3.org/2000/svg" xmlns:xlink="http://www.w3.org/1999/xlink" viewBox="0 0 177 80"
	 style="enable-background:new 0 0 177 80;" xml:space="preserve">
<style type="text/css">
	.st0{fill:#006FCF;}
	.st1{fill:#FFFFFF;}
	.st2{fill:#00175A;}
</style>
		<path class="st0" d="M65.1144257,47.2399902v-4.1663818h2.7500916V16H17.8648071v19.2179871l2.024231-2.1869812
			l-0.5243225,7.2392883h-1.4999084v25.7296753h49.9997101V51.370697c-0.0762024,0.0447998-2.669693,0.0643311-2.7500916,0.1031799
			v-2.0626526V47.2399902L65.1144257,47.2399902z"/>
		<path class="st1" d="M67.8796234,51.3644104v-8.290802H37.2165222l-0.7996826,1.1363831l-0.8080139-1.1363831h-8.896698v8.7875061
			h8.8630981l0.7911072-1.161499l0.8164978,1.161499h5.5635986v-1.9359131h-0.168335
			c0.7331238,0,1.4051208-0.1386108,1.9947205-0.368988v2.3049011h4.023407v-1.0690308l0.808075,1.0690308h16.5645294
			C66.6927185,51.8611145,67.3408203,51.6842957,67.8796234,51.3644104L67.8796234,51.3644104z M61.7187195,40.2702942h3.7960968
			v-8.7874756h-4.1160126v1.2288818l-0.7826996-1.2288818h-3.5856628v1.5886841l-0.6985321-1.5886841h-5.7739868
			c-0.2532043,0-0.5024109,0.0164795-0.745697,0.0497742c-0.2431946,0.0332947-0.4804077,0.0835266-0.7095032,0.1510315
			c-0.1737061,0.051178-0.3427124,0.1122742-0.5061035,0.1834717c-0.1752014,0.076416-0.3439026,0.1643982-0.5048828,0.2641907
			v-0.2661743v-0.3822937H29.2461243l-0.5050049,1.4729919l-0.5050964-1.4729919H23.741333v1.5886841l-0.6985168-1.5886841
			h-3.577301l-1.6076965,3.770874v5.0166016h2.5166931l0.4883118-1.2709961h0.85849l0.4881897,1.2709961h19.6621094v-1.0689697
			l0.8080139,1.0689697h5.4121094V40.058197v-0.3902893c0.1500854,0.089386,0.3049927,0.1671753,0.462677,0.2344055
			c0.1577148,0.0670776,0.3182983,0.1237183,0.4798279,0.1707764c0.2229614,0.065033,0.4477539,0.1119385,0.6696777,0.1436157
			c0.260498,0.0372925,0.5169067,0.0535889,0.7614136,0.0535889h3.1982727l0.488327-1.2709961h0.85849l0.4881897,1.2709961
			h5.5131226v-1.0942993L61.7187195,40.2702942L61.7187195,40.2702942z"/>
		<path class="st0" d="M32.8818054,45.7164917v-1.1951904h-4.6462708v5.8919983h4.6462708v-1.1953125h-3.2994995v-1.1782837
			h3.2237244v-1.1699829h-3.2237244v-1.1532288H32.8818054L32.8818054,45.7164917z M37.864624,50.4132996h1.691803
			l-2.3568115-2.9713135l2.3399963-2.9206848h-1.6413879l-1.4813843,1.9190979l-1.4814453-1.9190979h-1.6917725l2.356781,2.9460144
			l-2.3483887,2.9459839h1.6413269l1.4814758-1.944397L37.864624,50.4132996L37.864624,50.4132996z M39.9351196,44.5213013
			v5.8919983h1.3466797v-1.969574h1.7928162c1.2794189,0,2.0706177-0.8333435,2.0706177-1.9612427
			c0-1.1615906-0.774292-1.9611816-2.0201111-1.9611816H39.9351196L39.9351196,44.5213013z M43.7901306,46.4909058
			c0,0.4208984-0.2694092,0.7575989-0.7828369,0.7575989h-1.7254944v-1.5320129h1.7254944
			C43.5207214,45.7164917,43.7901306,46.0615845,43.7901306,46.4909058L43.7901306,46.4909058z M47.367218,48.2669067h0.6818237
			l1.8096924,2.1463928h1.6917725l-1.9527893-2.1968994c1.001709-0.1851807,1.5908813-0.8922119,1.5908813-1.8096924
			c0-1.1194153-0.774353-1.8854065-2.0200806-1.8854065h-3.1480103v5.8919983h1.3467102V48.2669067L47.367218,48.2669067z
			 M49.0505981,45.7164917c0.5135193,0,0.7828369,0.3115234,0.7828369,0.6987c0,0.3786926-0.2693176,0.6986084-0.7828369,0.6986084
			H47.367218v-1.3973083H49.0505981L49.0505981,45.7164917z M56.6680298,45.7164917v-1.1951904h-4.6462097v5.8919983h4.6462097
			v-1.1953125h-3.2994995v-1.1782837h3.2238007v-1.1699829h-3.2238007v-1.1532288H56.6680298L56.6680298,45.7164917z
			 M60.548233,49.2179871H57.543335v1.1953125h2.929184c1.2709045,0,2.0284882-0.7660217,2.0284882-1.8518066
			c0-1.0690002-0.6985779-1.6917725-1.8264771-1.6917725h-1.3383179c-0.3535767,0-0.6060944-0.2273254-0.6060944-0.5808105
			c0-0.3450928,0.2525177-0.5724182,0.6060944-0.5724182h2.5251007l0.530304-1.1951904h-2.9796906
			c-1.2709961,0-2.0284882,0.7744141-2.0284882,1.8265076c0,1.0858154,0.7153625,1.7086792,1.8264771,1.7086792h1.3383179
			c0.3534851,0,0.6060028,0.2273254,0.6060028,0.5892029C61.1542358,48.9908142,60.9017181,49.2179871,60.548233,49.2179871
			L60.548233,49.2179871z M66.02771,49.2179871h-3.0048981v1.1953125h2.9292145
			c1.2708893,0,2.0285034-0.7660217,2.0285034-1.8518066c0-1.0690002-0.6986237-1.6917725-1.8265076-1.6917725h-1.3384094
			c-0.3535004,0-0.6059875-0.2273254-0.6059875-0.5808105c0-0.3450928,0.2524872-0.5724182,0.6059875-0.5724182h2.5252075
			l0.5301971-1.1951904h-2.9795837c-1.2710114,0-2.0285187,0.7744141-2.0285187,1.8265076
			c0,1.0858154,0.7153931,1.7086792,1.8265076,1.7086792H66.02771c0.3535156,0,0.6060028,0.2273254,0.6060028,0.5892029
			C66.6337128,48.9908142,66.3812256,49.2179871,66.02771,49.2179871L66.02771,49.2179871z"/>
		<path class="st0" d="M23.2362976,38.8223877h1.4898071l-2.5166626-5.8919067H20.416626l-2.525116,5.8919067h1.4561157
			l0.5050964-1.2709045h2.8786011L23.2362976,38.8223877L23.2362976,38.8223877z M20.8374329,35.0683899l0.4461975-1.2372742
			l0.4544983,1.2372742l0.5386963,1.3552246h-1.9779968L20.8374329,35.0683899L20.8374329,35.0683899z M28.1434326,38.8223877
			h1.1699829l1.7001953-4.7723694v4.7723694h1.329895V32.930481h-2.2220764l-1.3804016,3.9813232l-1.3804321-3.9813232h-2.2388916
			v5.8919067h1.3299255v-4.7723694L28.1434326,38.8223877L28.1434326,38.8223877z M38.2186279,34.1257019V32.930481h-4.6463318
			v5.8919067h4.6463318v-1.1951904h-3.2994995V36.448822h3.2236938v-1.1699219h-3.2236938v-1.1531982H38.2186279
			L38.2186279,34.1257019z M40.6426086,36.6760864h0.6817932l1.8096008,2.1463013h1.6918945l-1.9527588-2.1968079
			c1.0016785-0.1851807,1.5907898-0.8921814,1.5907898-1.8096924c0-1.1194763-0.774292-1.8854065-2.0201111-1.8854065H39.295929
			v5.8919067h1.3466797V36.6760864L40.6426086,36.6760864z M42.3260193,34.1257019
			c0.5133972,0,0.7828064,0.3114014,0.7828064,0.6986084c0,0.3787842-0.2694092,0.6986084-0.7828064,0.6986084h-1.6834106
			v-1.3972168H42.3260193L42.3260193,34.1257019z M45.2972107,38.8223877h1.3467102v-2.7281799V32.930481h-1.3467102v3.0627136
			V38.8223877L45.2972107,38.8223877z M50.3052979,38.8223877h0.0505066l0.5555115-1.2035828h-0.3871155
			c-0.9932556,0-1.5740051-0.6228943-1.5740051-1.691803v-0.1010132c0-0.9511719,0.5302429-1.6665955,1.5571289-1.6665955h1.4897766
			V32.930481h-1.5991821c-1.7927856,0-2.7944946,1.22052-2.7944946,2.8870239v0.1179199
			C47.6034241,37.6440125,48.6051331,38.805603,50.3052979,38.8223877L50.3052979,38.8223877z M56.5254211,38.8223877h1.4897919
			l-2.5166779-5.8919067h-1.7928314l-2.5251923,5.8919067h1.4562073l0.5049896-1.2709045h2.8787231L56.5254211,38.8223877
			L56.5254211,38.8223877z M54.1265259,35.0683899l0.446106-1.2372742l0.454483,1.2372742l0.5387115,1.3552246h-1.9780121
			L54.1265259,35.0683899L54.1265259,35.0683899z M60.0184174,35.2199097l2.3063202,3.602478h1.6665802V32.930481h-1.3384094
			v3.8887329l-0.3618927-0.5724182l-2.1378784-3.3163147h-1.7424164v5.8919067h1.3382874v-4.0232849L60.0184174,35.2199097
			L60.0184174,35.2199097z"/>
			<path class="st2" d="M86.0988312,31.4277954c1.8544922,0,2.9306946-1.1921997,3.195694-1.9207153h0.0330963v1.6889038h2.1690979
				V25.053009H86.79422v2.003479h2.1360016c-0.2484131,1.3577271-1.1755981,2.20224-2.5167999,2.20224
				c-1.3081207,0-2.9638977-0.8610229-2.9638977-4.2885132c0-3.4441223,1.8545074-4.0236206,2.8479919-4.0236206
				c1.2086945,0,1.986908,0.6622925,2.5001984,2.3677979l2.4672089-0.678894
				c-0.7781982-2.9970093-2.6327057-3.9241943-4.9508972-3.9241943c-3.4440155,0-5.5800171,2.4671021-5.5800171,6.3085938
				C80.7340088,28.7123108,82.3898163,31.4277954,86.0988312,31.4277954L86.0988312,31.4277954z"/>
			<polygon class="st2" points="101.8452148,31.1959839 101.8452148,29.0103149 96.4473267,29.0103149 96.4473267,18.9431152 
				93.7484131,18.9431152 93.7484131,31.1959839 101.8452148,31.1959839 			"/>
			<path class="st2" d="M107.6570129,31.4277954c2.9470062,0,5.7619934-2.0531921,5.7619934-6.3583069
				c0-4.3049927-2.8149872-6.3581848-5.7619934-6.3581848c-2.9639893,0-5.7786865,2.0531921-5.7786865,6.3581848
				C101.8783264,29.3746033,104.6930237,31.4277954,107.6570129,31.4277954L107.6570129,31.4277954z M107.6570129,29.258728
				c-1.9039917,0-3.0799866-1.6227417-3.0799866-4.1892395s1.1759949-4.1228943,3.0799866-4.1228943
				c1.8880157,0,3.0800171,1.5563965,3.0800171,4.1228943S109.5450287,29.258728,107.6570129,29.258728L107.6570129,29.258728z"/>
			<path class="st2" d="M120.3570251,31.1959839c2.2849884,0,4.4539948-0.910675,4.4539948-3.3778992
				c0-1.9537964-1.1759949-2.7319641-2.6660004-2.9968872v-0.0331726c1.2419891-0.2483215,2.3349915-1.0762329,2.3349915-2.8148193
				c0-2.4837036-2.1199951-3.0300903-4.3710022-3.0300903h-4.9019775v12.2528687H120.3570251L120.3570251,31.1959839z
				 M117.8570251,21.0293884h2.019989c1.4400024,0,2.0200195,0.5298157,2.0200195,1.4902344
				c0,0.9437866-0.6460114,1.4736938-2.053009,1.4736938h-1.9869995V21.0293884L117.8570251,21.0293884z M117.8570251,25.8973999
				h2.053009c1.4899902,0,2.2679749,0.5298767,2.2679749,1.6061096c0,1.0432129-0.6619873,1.6393127-2.1519928,1.6393127h-2.1689911
				V25.8973999L117.8570251,25.8973999z"/>
			<path class="st2" d="M130.9040375,22.3374939h0.0329742l1.4080048,4.1726074h-2.8809967L130.9040375,22.3374939
				L130.9040375,22.3374939z M127.858017,31.1959839l0.9430084-2.7320862h4.1729889l0.9110107,2.7320862h2.7319946
				l-4.3379974-12.3025818h-2.5670013l-4.3379974,12.3025818H127.858017L127.858017,31.1959839z"/>
			<polygon class="st2" points="146.0550232,31.1959839 146.0550232,29.0103149 140.6570129,29.0103149 140.6570129,18.9431152 
				137.9580231,18.9431152 137.9580231,31.1959839 146.0550232,31.1959839 			"/>
			<path class="st2" d="M87.0758209,47.1265869c2.2850037,0,4.4540863-0.9105835,4.4540863-3.3777771
				c0-1.9538269-1.1756897-2.7319946-2.6658936-2.9970093v-0.0330811c1.2419128-0.2484131,2.3347015-1.0763245,2.3347015-2.8148193
				c0-2.4837036-2.1194-3.0302124-4.3713074-3.0302124h-4.9011841v12.2528992H87.0758209L87.0758209,47.1265869z
				 M84.5755157,36.960022h2.0201111c1.4404907,0,2.0200958,0.5298767,2.0200958,1.4902954
				c0,0.9437866-0.6457977,1.4735718-2.0532074,1.4735718h-1.9869995V36.960022L84.5755157,36.960022z M84.5755157,41.8280945
				h2.0532074c1.4902039,0,2.2683868,0.5298157,2.2683868,1.6061096c0,1.0432129-0.6622772,1.6393127-2.1524963,1.6393127
				h-2.1690979V41.8280945L84.5755157,41.8280945z"/>
			<path class="st2" d="M98.1532135,47.3253174c3.4110107,0,4.9348145-1.8876038,4.9348145-4.901123v-7.5505066h-2.649826v7.500824
				c0,1.7882996-0.6622772,2.7651978-2.2517853,2.7651978c-1.6062012,0-2.2849884-0.9934998-2.2849884-2.7651978v-7.500824
				h-2.6990204v7.5670166C93.2024078,45.4377136,94.7423096,47.3253174,98.1532135,47.3253174L98.1532135,47.3253174z"/>
			<path class="st2" d="M109.57901,47.35849c3.4110107,0,4.9010162-1.755188,4.9010162-3.7255859
				c0-2.5333862-2.2850037-3.2121887-4.4380035-3.7918091c-1.6060028-0.446991-2.5169983-0.7947083-2.5169983-1.771698
				c0-0.7284851,0.6299896-1.2252808,1.7720032-1.2252808c1.1919861,0,2.3679962,0.6954651,3.0140076,1.7385864l1.8709869-1.4240112
				c-0.8610077-1.3080139-2.3509979-2.5167847-4.8679962-2.5167847c-2.6330109,0-4.42099,1.3742981-4.42099,3.6593018
				c0,2.5664673,2.2849731,3.1294861,4.469986,3.7420959c1.6070099,0.447113,2.4840088,0.8444824,2.4840088,1.771698
				c0,0.9439087-0.8940125,1.4075012-2.1360016,1.4075012c-1.4070129,0-2.6330109-0.7450867-3.3110046-2.0863037
				l-2.0370026,1.2087097C105.2740173,46.1000061,106.9290161,47.35849,109.57901,47.35849L109.57901,47.35849z"/>
			<polygon class="st2" points="119.0830231,47.1265869 119.0830231,41.0003967 119.0830231,34.8736877 117.7410278,34.8736877 
				116.4000244,34.8736877 116.4000244,41 116.4000244,47.1265869 117.5010223,47.1265869 119.0830231,47.1265869 			"/>
			<polygon class="st2" points="124.0490265,47.1265869 124.0490265,39.2449951 124.082016,39.2449951 129.4300232,47.1265869 
				131.914032,47.1265869 131.914032,34.8736877 129.4300232,34.8736877 129.4300232,42.6891174 129.3970337,42.6891174 
				124.2640076,34.8736877 121.5650177,34.8736877 121.5650177,47.1265869 124.0490265,47.1265869 			"/>
			<polygon class="st2" points="143.0400238,47.1265869 143.0400238,44.9410095 137.0960236,44.9410095 137.0960236,41.8943176 
				141.1860199,41.8943176 141.1860199,39.7583008 137.0960236,39.7583008 137.0960236,37.1256104 142.7420197,37.1256104 
				142.7420197,34.8736877 134.3970184,34.8736877 134.3970184,47.1265869 143.0400238,47.1265869 			"/>
			<path class="st2" d="M149.0510101,47.35849c3.4110107,0,4.901001-1.755188,4.901001-3.7255859
				c0-2.5333862-2.2849884-3.2121887-4.4379883-3.7918091c-1.6060028-0.446991-2.5160065-0.7947083-2.5160065-1.771698
				c0-0.7284851,0.6289978-1.2252808,1.7709961-1.2252808c1.1930237,0,2.3680115,0.6954651,3.0140076,1.7385864l1.8710022-1.4240112
				c-0.8610077-1.3080139-2.3509979-2.5167847-4.8680115-2.5167847c-2.6329803,0-4.42099,1.3742981-4.42099,3.6593018
				c0,2.5664673,2.2850189,3.1294861,4.470993,3.7420959c1.6060028,0.447113,2.4830017,0.8444824,2.4830017,1.771698
				c0,0.9439087-0.8939972,1.4075012-2.1360016,1.4075012c-1.4069977,0-2.6320038-0.7450867-3.3109894-2.0863037
				l-2.0370026,1.2087097C144.7460175,46.1000061,146.4020233,47.35849,149.0510101,47.35849L149.0510101,47.35849z"/>
			<path class="st2" d="M160.1780243,47.35849c3.4109955,0,4.9009857-1.755188,4.9009857-3.7255859
				c0-2.5333862-2.2849884-3.2121887-4.4379883-3.7918091c-1.6060028-0.446991-2.5169983-0.7947083-2.5169983-1.771698
				c0-0.7284851,0.6300049-1.2252808,1.7719879-1.2252808c1.1920013,0,2.3680115,0.6954651,3.0140076,1.7385864l1.8710022-1.4240112
				c-0.8610077-1.3080139-2.3509827-2.5167847-4.8680115-2.5167847c-2.6329803,0-4.42099,1.3742981-4.42099,3.6593018
				c0,2.5664673,2.2850037,3.1294861,4.4700012,3.7420959c1.6069946,0.447113,2.4839935,0.8444824,2.4839935,1.771698
				c0,0.9439087-0.8939972,1.4075012-2.1359863,1.4075012c-1.4070129,0-2.6329956-0.7450867-3.3110046-2.0863037
				l-2.0370026,1.2087097C155.8730316,46.1000061,157.5280151,47.35849,160.1780243,47.35849L160.1780243,47.35849z"/>
			<polygon class="st2" points="88.0195312,63.0572815 88.0195312,53.0563049 91.6788177,53.0563049 91.6788177,50.8044128 
				81.6778259,50.8044128 81.6778259,53.0563049 85.3206177,53.0563049 85.3206177,63.0572815 88.0195312,63.0572815 			"/>
			<path class="st2" d="M95.784729,53.0065918h1.8379059c1.5563965,0,2.3014832,0.447113,2.3014832,1.6557922
				c0,1.2419128-0.7450867,1.6889038-2.3014832,1.6889038H95.784729V53.0065918L95.784729,53.0065918z M95.784729,63.0572815
				v-4.6196594h1.5563965l2.5498962,4.6196594h2.8479919l-2.7320862-4.9674072
				c1.6392975-0.4966736,2.5500946-1.5563965,2.5500946-3.4936829c0-2.7154846-1.8049011-3.7917786-4.8184967-3.7917786h-4.6031189
				v12.2528687H95.784729L95.784729,63.0572815z"/>
			<path class="st2" d="M108.931015,54.1987915h0.0330048l1.4069977,4.1726074h-2.8809967L108.931015,54.1987915
				L108.931015,54.1987915z M105.8840332,63.0572815l0.943985-2.7320862h4.1730042l0.9099884,2.7320862h2.7320251
				l-4.3380127-12.3025818h-2.5660095l-4.3389893,12.3025818H105.8840332L105.8840332,63.0572815z"/>
			<polygon class="st2" points="120.4880219,63.1069946 124.710022,50.8044128 122.1770172,50.8044128 119.2790222,59.5635986 
				119.2460175,59.5635986 116.4480133,50.8044128 113.7160187,50.8044128 117.9380188,63.1069946 120.4880219,63.1069946 			"/>
			<polygon class="st2" points="134.6950378,63.0572815 134.6950378,60.8717041 128.7500153,60.8717041 128.7500153,57.8250122 
				132.8400116,57.8250122 132.8400116,55.6889954 128.7500153,55.6889954 128.7500153,53.0563049 134.3970184,53.0563049 
				134.3970184,50.8044128 126.0510254,50.8044128 126.0510254,63.0572815 134.6950378,63.0572815 			"/>
			<polygon class="st2" points="144.9270172,63.0572815 144.9270172,60.8717041 139.5290375,60.8717041 139.5290375,50.8044128 
				136.8300323,50.8044128 136.8300323,63.0572815 144.9270172,63.0572815 			"/>
</svg>