<svg width="178" height="58" viewBox="0 0 178 58" xmlns="http://www.w3.org/2000/svg" xmlns:xlink="http://www.w3.org/1999/xlink"><title>benchsentry-light</title><defs><path id="path-1" d="M.06.661H53.0703457V58H.06z"/><path id="path-3" d="M.681.133804297H19.177V26.23H.681z"/></defs><g id="Portfolio" stroke="none" stroke-width="1" fill="none" fill-rule="evenodd"><g id="Logos" transform="translate(-512.000000, -306.000000)"><g id="benchsentry-light" transform="translate(512.000000, 306.000000)"><path d="M26.498 8.734C20.602 8.734 15.805 13.531 15.805 19.427 15.805 22.837 17.456 26.073 20.222 28.083L20.894 28.571 17.516 43.592H35.48L32.101 28.571 32.773 28.083C35.539 26.073 37.191 22.837 37.191 19.427 37.191 13.531 32.394 8.734 26.498 8.734zm0 2.67C30.922 11.404 34.521 15.003 34.521 19.427 34.521 21.986 33.281 24.414 31.204 25.923L30.532 26.41 29.111 27.443 32.143 40.922H20.853L23.885 27.443 22.464 26.41 21.792 25.923C19.715 24.414 18.475 21.986 18.475 19.427 18.475 15.003 22.074 11.404 26.498 11.404v0z" id="Fill-1" fill="#fff"/><g id="Group-5"><mask id="mask-2" fill="#fff"><use xlink:href="#path-1"/></mask><g id="Clip-3"/><path d="M30.291 19.533 28.725 19.49C28.726 18.199 27.727 17.199 26.498 17.199V15.634C28.59 15.634 30.292 17.335 30.292 19.428L30.291 19.533zM26.498 13.671C23.319 13.671 20.741 16.248 20.741 19.427 20.741 22.606 23.319 25.183 26.498 25.183 29.677 25.183 32.255 22.606 32.255 19.427 32.255 16.248 29.677 13.671 26.498 13.671v0z" id="Fill-2" fill="#fff" mask="url(#mask-2)"/><path d="M3.133 12.746C3.013 18.062 4.049 39.248 26.535 54.264 49.019 39.25 50.056 18.065 49.937 12.746L43.565 12.075 26.535 4.118 9.506 12.075 3.133 12.746zM26.535 58 25.686 57.452C-2.66 39.159.052 11.435.082 11.157L.221 9.904 8.656 9.015 26.535.661 44.415 9.015 52.849 9.904 52.988 11.157C53.018 11.435 55.73 39.159 27.385 57.452L26.535 58v0z" id="Fill-4" fill="#fff" mask="url(#mask-2)"/></g><g id="Group-2" transform="translate(61.000000, 17.000000)"><path d="M6.826 17.358C6.826 14.753 5.835 13.542 3.816 13.542H1.358V24.074H3.816C5.835 24.074 6.826 22.863 6.826 20.258V17.358zM6.496 6.423C6.496 4 5.468 2.753 3.486 2.753H1.358v9.504H3.486C5.542 12.257 6.496 10.753 6.496 8.588V6.423zM3.89 25.395H-355271368e-21V1.469H3.56C6.459 1.469 7.853 3.12 7.853 6.349V8.661C7.853 10.9 6.826 12.257 5.542 12.808 7.009 13.175 8.184 14.423 8.184 17.285V20.331C8.184 23.451 6.899 25.395 3.89 25.395v0z" id="Fill-6" fill="#fff"/><path d="M17.357 11.23C17.357 8.845 16.294 7.524 14.532 7.524 12.771 7.524 11.706 8.845 11.706 11.23V14.789h5.651V11.23zM14.532 25.689C12.073 25.689 10.348 24.037 10.348 20.661V11.23C10.348 7.854 12.073 6.202 14.532 6.202 16.991 6.202 18.715 7.854 18.715 11.23v4.881H11.706V20.661C11.706 23.047 12.771 24.367 14.532 24.367 16.294 24.367 17.357 23.047 17.357 20.661V20.147H18.715V20.661C18.715 24.037 16.991 25.689 14.532 25.689v0z" id="Fill-7" fill="#fff"/><path d="M27.926 25.395V11.23C27.926 8.734 27.192 7.524 25.467 7.524 23.596 7.524 22.605 9.028 22.605 11.634V25.395H21.248V6.496H22.495V8.111C23.009 6.9 24.183 6.202 25.505 6.202 28.073 6.202 29.284 7.744 29.284 11.23V25.395H27.926" id="Fill-8" fill="#fff"/><path d="M35.706 25.689C33.284 25.689 31.706 24.001 31.706 20.661V11.23C31.706 7.891 33.284 6.202 35.706 6.202 38.092 6.202 39.706 7.854 39.706 11.23V11.56H38.349V11.23C38.349 8.845 37.395 7.524 35.706 7.524 33.982 7.524 33.065 8.845 33.065 11.23V20.661C33.065 23.047 33.982 24.367 35.706 24.367 37.395 24.367 38.349 23.047 38.349 20.661V20.331H39.706V20.661C39.706 24.037 38.092 25.689 35.706 25.689" id="Fill-9" fill="#fff"/><path d="M48.66 25.395V11.23C48.66 8.734 47.927 7.524 46.201 7.524 44.33 7.524 43.339 9.028 43.339 11.634V25.395H41.982V218491891e-21H43.339V8.037C43.817 6.9 44.954 6.202 46.238 6.202 48.807 6.202 50.019 7.744 50.019 11.23V25.395H48.66" id="Fill-10" fill="#fff"/><path d="M57.213 25.689C54.13 25.689 52.075 23.891 52.075 20.551V17.835H55.194v2.532C55.194 22.056 56.111 22.827 57.213 22.827 58.681 22.827 59.414 21.872 59.414 20.074 59.414 18.57 59.121 17.578 57.946 16.331L54.387 12.477C52.699 10.68 52.222 9.138 52.222 6.789 52.222 3.56 53.763 1.175 57.322 1.175 60.552 1.175 62.387 3.046 62.387 6.312V9.028H59.268V6.496C59.268 4.808 58.497 4.037 57.322 4.037 56.002 4.037 55.341 5.138 55.341 6.789 55.341 8.294 55.635 9.285 56.809 10.532L60.368 14.386C62.057 16.184 62.534 17.725 62.534 20.074 62.534 23.303 60.773 25.689 57.213 25.689" id="Fill-11" fill="#fff"/><path d="M71.268 11.524C71.268 9.835 70.534 9.028 69.359 9.028 68.186 9.028 67.451 9.835 67.451 11.524V14.312H71.268V11.524zM69.397 25.689C66.24 25.689 64.332 23.817 64.332 20.551V11.34C64.332 8.074 66.204 6.202 69.359 6.202 72.516 6.202 74.424 8.074 74.424 11.34v5.468H67.451V20.367C67.451 22.056 68.222 22.863 69.397 22.863 70.57 22.863 71.305 22.056 71.305 20.367V19.303H74.424V20.551C74.424 23.817 72.552 25.689 69.397 25.689v0z" id="Fill-12" fill="#fff"/><path d="M83.414 25.395V11.524C83.414 9.835 82.754 9.028 81.616 9.028 80.516 9.028 79.818 9.835 79.818 11.524V25.395H76.699V6.496H79.708V7.67C80.038 6.826 81.286 6.202 82.351 6.202 85.322 6.202 86.534 8.037 86.534 11.34V25.395H83.414" id="Fill-13" fill="#fff"/><path d="M89.506 20.404V9.469H88.038V6.496H89.506V2.019H92.625V6.496H95.194V9.469H92.625V20.037C92.625 21.762 93.286 22.606 95.194 22.459v2.936C91.121 25.725 89.506 23.597 89.506 20.404" id="Fill-14" fill="#fff"/><g id="Group-18" transform="translate(96.054000, 6.211000)"><mask id="mask-4" fill="#fff"><use xlink:href="#path-3"/></mask><g id="Clip-16"/><path d="M3.801 7.001V19.184H.681V.285H3.727V2.67C4.389.946 6.113.065 7.948.138V3.404C5.599 3.037 3.801 4.212 3.801 7.001" id="Fill-15" fill="#fff" mask="url(#mask-4)"/><path d="M15.03 21.459C14.48 24.212 12.938 26.23 10.186 26.23 9.599 26.23 9.305 26.156 8.865 26.047V23.074C9.232 23.184 9.562 23.184 9.856 23.184 11.251 23.184 11.764 22.083 12.021 20.836L12.351 19.184 8.608.285H11.911L13.379 10.67C13.636 12.395 13.856 15.331 13.856 15.331H13.93C13.93 15.331 14.186 12.359 14.407 10.67L15.875.285H19.178L15.03 21.459" id="Fill-17" fill="#fff" mask="url(#mask-4)"/></g></g></g></g></g></svg>