<svg width="366" height="84" viewBox="0 0 366 84" xmlns="http://www.w3.org/2000/svg" xmlns:xlink="http://www.w3.org/1999/xlink"><title>expressscripts</title><g id="Portfolio" stroke="none" stroke-width="1" fill="none" fill-rule="evenodd"><g id="expressscripts" fill-rule="nonzero"><path d="M81.3 42C81.3 63.9 63.6 81.6 41.7 81.6 19.8 81.6 2.1 63.9 2.1 42 2.1 20.1 19.8 2.4 41.7 2.4 63.5 2.4 81.3 20.1 81.3 42" id="XMLID_27_" fill="#1162a5"/><path d="M41.7 2.8C20.1 2.8 2.5 20.4 2.5 42c0 21.6 17.6 39.2 39.2 39.2C63.3 81.2 80.9 63.6 80.9 42 80.8 20.4 63.3 2.8 41.7 2.8m0 80.4C19 83.2.5 64.7.5 42 .5 19.3 19 .8 41.7.8 64.4.8 82.9 19.3 82.9 42 82.8 64.7 64.4 83.2 41.7 83.2" id="XMLID_30_" fill="#fff"/><path id="XMLID_31_" fill="#fff" d="M1.5 38.3h80.6v1.9H1.5z"/><path id="XMLID_32_" fill="#fff" d="M14 11.8h55.5v1.9H14z"/><path id="XMLID_33_" fill="#fff" d="M10.7 66.4h61.8v1.9H10.7z"/><path id="XMLID_34_" fill="#231f20" d="M95.4 48.8V30.3H105.7L105.3 32.8H98.5V37.9H104.2v2.5H98.5V46.2H105.9V48.8z"/><path id="XMLID_35_" fill="#231f20" d="M121.7 48.8 117.8 41.5 114.1 48.8H110.4L116 38.9 111.1 30.3H114.8L117.8 36 120.7 30.3H124.3L119.6 38.7 125.4 48.8z"/><path d="M139.3 33.7C138.7 33.1 137.9 32.8 136.7 32.8H134.3v6.5H136.7C139 39.3 140 38.2 140 36 140 35 139.8 34.2 139.3 33.7M137.4 41.7H134.3V48.8H131.2V30.3H136.1C138.8 30.3 139.8 30.6 140.8 31.2 142.4 32.2 143.3 33.8 143.3 35.9 143.4 39.5 140.8 41.7 137.4 41.7" id="XMLID_38_" fill="#231f20"/><path d="M154.8 32.8H153.1V38.7H154.7C156.3 38.7 157.2 38.5 157.7 37.9 158.2 37.4 158.5 36.6 158.5 35.7 158.6 33.7 157.6 32.8 154.8 32.8M159.1 48.8 157.5 45.9C156.2 43.6 155.4 42.3 154.3 41.3 154 41 153.7 40.8 153.1 40.7v8h-3V30.2H155.7C159.8 30.2 161.7 32.6 161.7 35.5 161.7 38.2 160 40.6 157.1 40.6 157.8 40.9 159 42.7 160 44.3L162.7 48.7H159.1V48.8z" id="XMLID_41_" fill="#231f20"/><path id="XMLID_42_" fill="#231f20" d="M169.5 48.8V30.3H179.8L179.4 32.8H172.6V37.9H178.3v2.5H172.6V46.2H180V48.8z"/><path d="M191.7 49.2C189.6 49.2 187.4 48.6 185.6 47.5L186.8 45.1C188.5 46.1 189.9 46.6 191.8 46.6 194.1 46.6 195.4 45.5 195.4 43.7 195.4 42.3 194.5 41.5 192.6 40.9L190.6 40.3C188.9 39.8 187.7 39.1 187 38.1 186.5 37.3 186.2 36.5 186.2 35.4 186.2 32.1 188.8 29.9 192.5 29.9 194.6 29.9 196.7 30.5 198.4 31.7L197 33.9C195.3 32.9 194.1 32.5 192.6 32.5 190.8 32.5 189.6 33.5 189.6 35 189.6 36.1 190.2 36.7 192.1 37.3L194.3 37.9C197 38.7 198.9 40.4 198.9 43.2 199 46.3 196.5 49.2 191.7 49.2" id="XMLID_43_" fill="#231f20"/><path d="M210.9 49.2C208.8 49.2 206.6 48.6 204.8 47.5L206 45.1C207.7 46.1 209.1 46.6 211 46.6 213.3 46.6 214.6 45.5 214.6 43.7 214.6 42.3 213.7 41.5 211.8 40.9L209.8 40.3C208.1 39.8 206.9 39.1 206.2 38.1 205.7 37.3 205.4 36.5 205.4 35.4 205.4 32.1 208 29.9 211.7 29.9 213.8 29.9 215.9 30.5 217.6 31.7L216.2 33.9C214.5 32.9 213.3 32.5 211.8 32.5 210 32.5 208.8 33.5 208.8 35 208.8 36.1 209.4 36.7 211.3 37.3L213.5 37.9C216.2 38.7 218.1 40.4 218.1 43.2 218.2 46.3 215.7 49.2 210.9 49.2" id="XMLID_44_" fill="#231f20"/><path d="M240.2 49.2C238.1 49.2 235.9 48.6 234.1 47.5L235.3 45.1C237 46.1 238.4 46.6 240.3 46.6 242.6 46.6 243.9 45.5 243.9 43.7 243.9 42.3 243 41.5 241.1 40.9L239.1 40.3C237.4 39.8 236.2 39.1 235.5 38.1 235 37.3 234.7 36.5 234.7 35.4 234.7 32.1 237.3 29.9 241 29.9 243.1 29.9 245.2 30.5 246.9 31.7L245.5 33.9C243.8 32.9 242.6 32.5 241.1 32.5 239.3 32.5 238.1 33.5 238.1 35 238.1 36.1 238.7 36.7 240.6 37.3L242.8 37.9C245.5 38.7 247.4 40.4 247.4 43.2 247.4 46.3 244.9 49.2 240.2 49.2" id="XMLID_45_" fill="#231f20"/><path d="M261.9 49.1C259.4 49.1 257.5 48.2 256 46.4 254.6 44.7 253.9 42.5 253.9 39.8 253.9 37.6 254.3 35.7 255.1 34.2 256.5 31.5 259 29.9 261.9 29.9 263.7 29.9 265.4 30.4 266.5 31.3L265.1 33.3C264.1 32.6 263.1 32.3 261.9 32.3 260.3 32.3 259 33.1 258.2 34.5 257.6 35.6 257.2 37.2 257.2 39.4 257.2 41.7 257.4 43 257.9 44 258.7 45.8 260.2 46.6 262 46.6 263.3 46.6 264.3 46.3 265.3 45.4L266.7 47.4C265.6 48.6 263.9 49.1 261.9 49.1" id="XMLID_46_" fill="#231f20"/><path d="M278.7 32.8H277V38.7H278.6C280.2 38.7 281.1 38.5 281.6 37.9 282.1 37.4 282.4 36.6 282.4 35.7 282.4 33.7 281.4 32.8 278.7 32.8M283 48.8 281.4 45.9C280.1 43.6 279.3 42.3 278.2 41.3 277.9 41 277.6 40.8 277 40.7v8h-3V30.2H279.7C283.9 30.2 285.7 32.6 285.7 35.5 285.7 38.2 284 40.6 281.1 40.6 281.8 40.9 283 42.7 284 44.3L286.7 48.7H283V48.8z" id="XMLID_49_" fill="#231f20"/><path id="XMLID_50_" fill="#231f20" d="M293.3 30.3h3.2v18.5H293.3z"/><path d="M312.8 33.7C312.2 33.1 311.4 32.8 310.2 32.8H307.8v6.5H310.2C312.5 39.3 313.5 38.2 313.5 36 313.6 35 313.3 34.2 312.8 33.7M311 41.7H307.9V48.8h-3V30.3H309.8C312.5 30.3 313.5 30.6 314.5 31.2 316.1 32.2 317 33.8 317 35.9 317 39.5 314.3 41.7 311 41.7" id="XMLID_53_" fill="#231f20"/><path id="XMLID_54_" fill="#231f20" d="M333.8 32.9H329.1V48.8h-3V32.9H321.4V30.3H334.2z"/><path d="M344.7 49.2C342.6 49.2 340.4 48.6 338.6 47.5L339.8 45.1C341.5 46.1 342.9 46.6 344.8 46.6 347.1 46.6 348.4 45.5 348.4 43.7 348.4 42.3 347.5 41.5 345.6 40.9L343.6 40.3C341.9 39.8 340.7 39.1 340 38.1 339.5 37.3 339.2 36.5 339.2 35.4 339.2 32.1 341.8 29.9 345.5 29.9 347.6 29.9 349.7 30.5 351.4 31.7L350 33.9C348.3 32.9 347.1 32.5 345.6 32.5 343.8 32.5 342.6 33.5 342.6 35 342.6 36.1 343.2 36.7 345.1 37.3L347.3 37.9C350 38.7 351.8 40.4 351.8 43.2 351.9 46.3 349.4 49.2 344.7 49.2" id="XMLID_55_" fill="#231f20"/><path d="M361.5 33.4C361.4 33.4 361.2 33.3 360.9 33.3H360.5V34.6H360.8C361.2 34.6 361.4 34.5 361.5 34.4 361.6 34.3 361.7 34.1 361.7 33.9 361.8 33.7 361.7 33.5 361.5 33.4M362 37.5C361.8 37.2 361.7 37 361.5 36.7 361 35.8 360.9 35.6 360.7 35.5H360.5V37.6h-1v-5H361.3C362.2 32.6 362.8 33.2 362.8 34 362.8 34.7 362.3 35.4 361.7 35.4 361.8 35.5 361.8 35.5 361.9 35.6 362.2 36 363.1 37.5 363.1 37.5H362zM361.1 31.5C359.2 31.5 357.7 33.1 357.7 35 357.7 37 359.2 38.6 361.1 38.6 363 38.6 364.5 37 364.5 35 364.5 33 363 31.5 361.1 31.5M361.1 39.4C358.7 39.4 356.7 37.5 356.7 35 356.7 32.5 358.7 30.6 361.1 30.6 363.5 30.6 365.5 32.6 365.5 35 365.5 37.5 363.5 39.4 361.1 39.4" id="XMLID_60_" fill="#231f20"/><path d="M33.7 23.2C36.8 16.5 34.5 15.7 30.2 15.3L31.4 12.7H68.4C68.4 12.7 72.7 16.2 74.3 18.4 73.5 20.6 72.9 22.4 72.3 24.3L69.3 24.6C70 21.1 69.5 18.8 68.6 17.5 67.5 16.1 64.9 15.3 58.6 15.3H50.9C49.3 15.3 48.6 15.5 47.5 17.8l-9 19.3H47.3C56.1 37.1 57.1 36.4 61 31.2H63.8L56.7 46.4H53.9C55 40.7 54.3 40.1 45.9 40.1H37L29.5 56.6C27.8 60.2 26.8 62.8 28 63.4 29.6 64.3 32.6 64.4 37.6 64.4 44.3 64.4 48.7 63.5 51.8 61.6 54.3 60 57.6 57.3 60.8 53.9L63.5 54.2C62.2 56.1 55.9 64.6 54.1 66.9H10C10 66.9 9.1 65.7 8.5 64.9 15.6 64.2 15.4 62.5 18.1 56.5L33.7 23.2z" id="XMLID_61_" fill="#fff"/><path d="M23.3 23.2 23.1 21.3C24.1 21.2 25.1 21.2 26.1 21.2 26.8 21.2 27.4 21.2 28.1 21.3L28 23.2C27.4 23.2 26.8 23.1 26.1 23.1 25.2 23.1 24.2 23.1 23.3 23.2M36.7 25C35.2 24.5 33.7 24 32.2 23.7L32.6 21.8C34.2 22.1 35.9 22.6 37.4 23.2L36.7 25zM14.6 25.3 13.9 23.5C15.4 22.9 17.1 22.4 18.7 22L19.1 23.9C17.6 24.3 16.1 24.7 14.6 25.3M44.5 29.2C43.2 28.3 41.9 27.4 40.5 26.7L41.4 25C42.9 25.8 44.3 26.7 45.6 27.7L44.5 29.2zM6.9 29.8 5.7 28.3C7 27.3 8.4 26.3 9.8 25.5L10.8 27.2C9.5 27.9 8.1 28.8 6.9 29.8M50.8 35.6C49.9 34.3 48.8 33.1 47.7 32L49.1 30.6C50.3 31.8 51.4 33 52.4 34.4L50.8 35.6zM55 43.4C54.5 41.9 53.8 40.5 53.1 39.1L54.8 38.2C55.6 39.7 56.3 41.2 56.9 42.8L55 43.4z" id="XMLID_69_" fill="#fff"/><path d="M56.7 53.6C56.7 52 56.5 50.5 56.2 48.9L58.1 48.5C58.4 50.2 58.6 51.8 58.6 53.5L56.7 53.6zM53.8 70.9 52.1 69.9C52.9 68.6 53.3 67.9 53.9 66.5H56C55.4 68 54.6 69.5 53.8 70.9M47.7 78.2 46.4 76.8C47.6 75.8 48.7 74.6 49.7 73.4L51.2 74.6C50.1 75.8 48.9 77.1 47.7 78.2" id="XMLID_73_" fill="#fff"/><path id="XMLID_74_" fill="#fff" d="M13.1 71.5 11.7 70.2 44 1.4 45.8 2.2 13.4 71.3z"/><path id="XMLID_75_" fill="#fff" transform="translate(36.353030, 39.498325) rotate(24.930011) translate(-36.353030, -39.498325)" d="M35.4030545-.80063706h1.89995106v80.5979241H35.4030545z"/><path d="M39.5 82.6 38.1 81.6C39.6 81 41 80.3 42.3 79.5L43.3 81.2C41.9 82 41.4 82.2 39.8 82.8L39.5 82.6z" id="XMLID_76_" fill="#fff"/></g></g></svg>