<svg width="89" height="29" viewBox="0 0 89 29" xmlns="http://www.w3.org/2000/svg" xmlns:xlink="http://www.w3.org/1999/xlink"><title>hudl-light</title><g id="Portfolio" stroke="none" stroke-width="1" fill="none" fill-rule="evenodd"><g id="Logos" transform="translate(-975.000000, -335.000000)" fill="#fff" fill-rule="nonzero"><g id="hudl-light" transform="translate(975.000000, 335.000000)"><path d="M41.2433929 9.4921346C40.3104954 9.4947517 39.38597 9.6682501 38.5155991 10.0040383V2.7555536H33V25.0692847H38.5146898v-11.08549C38.8837142 13.8294344 39.2803822 13.7520829 39.6803671 13.756484 40.8460443 13.756484 41.357051 14.3247608 41.357051 15.3767549v9.6925298H46.8717408V14.7793823C46.8717408 11.3715397 44.9395535 9.4921346 41.2433929 9.4921346v0zM57.4201195 20.834031C57.1928033 20.9194999 56.7663582 20.9758729 56.2544423 20.9758729 55.2315196 20.9758729 54.6914164 20.549438 54.6914164 19.5829127V9.7485411H49.1767266V19.4410708C49.1767266 23.7336068 51.5362682 25.4420743 56.2544423 25.4420743 58.8131129 25.4420743 61.4563451 24.9874528 62.9348093 24.3055206V9.7485411H57.4201195V20.834031v0zM74.0823934 9.8321914C73.5535157 9.6909519 73.0094103 9.6146202 72.4620839 9.6048807 67.6593482 9.6057899 65.2161542 12.6444798 65.2161542 17.394365 65.2161542 22.6525169 68.0303282 25.4384373 73.2604182 25.4384373 75.9609341 25.4384373 78.2913792 24.9556293 79.5989017 24.3018836V2.7528259H74.0833026V9.8303729L74.0823934 9.8321914zm0 11.2273319C73.8832644 21.1449921 73.514103 21.1731787 73.1440323 21.1731787 71.5810065 21.1731787 70.7281163 19.9511561 70.7281163 17.3361734 70.7281163 15.1194391 71.5528193 13.6691966 73.0876579 13.6691966 73.4859158 13.6691966 73.9123609 13.7546655 74.0823934 13.8401343v7.2202982V21.0595233zM82.5203689 2.7555536V25.0692847H88.0386958V2.7555536H82.5203689v0z" id="Shape"/><path d="M14.6188422 28.8744722C12.339885 28.8769434 10.3564696 27.3165684 9.8224714 25.1011082 9.8157345 25.0722752 9.7953796 25.0485284 9.7679156 25.0374612 9.1189743 24.7764285 8.4922577 24.4632298 7.8939212 24.1009409 7.8764629 24.090487 7.8630159 24.0744791 7.8557321 24.0554788 6.98227023 21.7902887 6.7582167 19.3262006 7.209245 16.9406528 7.2155336 16.9066633 7.2405517 16.8791792 7.2738027 16.8697318H7.291988C7.3195625 16.8666869 7.3470185 16.8763968 7.3665477 16.8960998 8.5712055 18.1982716 10.0308048 19.2387839 11.6546396 19.9529746 11.6664156 19.9579966 11.6791193 19.9604753 11.6919195 19.9602486 11.7111801 19.9603172 11.729965 19.9542679 11.7455661 19.9429729 13.8897848 18.4028393 16.8675735 18.8306931 18.4914002 20.9122259 18.5087609 20.934779 18.5356806 20.947902 18.5641413 20.9476864H18.5750525C19.0242292 20.8867671 19.4843171 20.800389 19.9316753 20.6930984 22.6145995 20.04157 25.0241759 18.5616278 26.8184454 16.4633002 26.8359274 16.4428592 26.8615627 16.4312071 26.8884588 16.4314677 26.9036913 16.4314677 26.9186989 16.4351523 26.9321035 16.4423876 26.9700059 16.4626063 26.9885866 16.5065921 26.9766575 16.5478598 25.8957541 20.3696116 23.1259963 23.4869803 19.4579485 25.0101839 19.4304844 25.0212511 19.4101295 25.0449979 19.4033926 25.0738309 18.8844662 27.2979157 16.9027135 28.8721325 14.6188422 28.8744722zM5.4234493 22.1171096C5.3988342 22.1171096 5.3752126 22.1072745 5.3579822 22.0896955 2.5722699 19.2584122 1.2562061 15.2958749 1.7945742 11.3606288 1.7986473 11.3312413 1.7881261 11.301715 1.766387 11.2815247.1025729 9.7217873-.2723334 7.2236208.8603538 5.2442251 1.9930409 3.2648295 4.3368292 2.3223316 6.5245687 2.966498 6.553165 2.9749384 6.5840824 2.968823 6.6073118 2.9501316 7.1577143 2.512874 7.7434746 2.1220723 8.3585554 1.7817544 8.3722302 1.7743696 8.3875696 1.7706131 8.4031094 1.77082434 10.8131339 2.1438279 13.0702365 3.185252 14.9179903 4.7768007 14.9441002 4.7991701 14.9553591 4.8343535 14.9470867 4.867725 14.939131 4.9018803 14.9122412 4.9284157 14.8779826 4.9359182 13.1433542 5.3270196 11.5080598 6.0717526 10.0743377 7.1235567 10.0477504 7.1426897 10.0335094 7.1746442 10.0370579 7.207207 10.0544884 7.3727253 10.0632899 7.5390388 10.0634266 7.7054722 10.0467424 10.1516549 8.2446946 12.2183764 5.8235257 12.5681034 5.790857 12.572331 5.7630297 12.5938966 5.7507845 12.6244765 5.5780243 13.0481837 5.4243585 13.4864388 5.2961522 13.9274216 4.5200055 16.5727542 4.5957139 19.3952116 5.5125572 21.9951343 5.5228786 22.0236069 5.5183455 22.0553495 5.500467 22.0797951 5.4825884 22.1042407 5.4537115 22.1181801 5.4234493 22.1171096v0zM21.5601682 17.5300515C21.5302641 17.5313292 21.5015446 17.5179995 21.4833771 17.4942006 21.4652096 17.4704018 21.4599231 17.4391847 21.4692418 17.4107314 21.9887605 15.7374676 22.1629213 13.9761041 21.9811577 12.233502 21.9779292 12.2013202 21.9578477 12.173276 21.9284204 12.1598534 20.1953896 11.3516184 19.0836195 9.616732 19.0733295 7.7045629 19.0696535 7.0608494 19.1932577 6.422758 19.4370354 5.8269763 19.4497842 5.7967547 19.4452672 5.7620094 19.4252149 5.736052 19.1311066 5.3506924 18.8169784 4.9810315 18.4841261 4.6285941 16.5827746 2.6318387 14.1016753 1.2834888 11.3918621.77431322 11.3477559.76670946 11.3157425.72814002 11.3163176.68338893 11.3151463.64059112 11.3439272.60272231 11.3854973.59246463 15.2661438-.40816553 19.3914602.46566738 22.5330813 2.9537686 22.5493223 2.9667984 22.5695433 2.9738595 22.590365 2.9737719 22.5994059 2.9751435 22.608602 2.9751435 22.617643 2.9737719 23.0635338 2.8392297 23.5267034 2.7706136 23.992451 2.7701015 26.0140355 2.7645997 27.8333967 3.9957848 28.5798692 5.8744664 29.3263418 7.753148 28.8480988 9.8972162 27.3740061 11.2806154 27.352267 11.3008057 27.3417459 11.3303321 27.3458189 11.3597196 27.4236171 11.930473 27.4631069 12.5057954 27.4640233 13.0818257 27.4640233 13.135471 27.4640233 13.1882071 27.4567492 13.2409432L27.4503843 13.3418692C27.4500624 13.3620658 27.4430242 13.3815802 27.4303805 13.397333 25.9066411 15.290342 23.8841259 16.7197998 21.5910832 17.5243867L21.5601682 17.5300515z" id="mark"/></g></g></g></svg>