<svg width="601" height="156" viewBox="0 0 601 156" fill="none" xmlns="http://www.w3.org/2000/svg">
<path d="M212.3 74.2C212.3 61 216.9 49.8 226.2 40.5C235.5 31.2 246.7 26.6 259.9 26.6V47C251.5 47 244.5 50.3 238.8 57C234.7 61.8 232.7 67.9 232.7 74.1V124.1H212.3V74.2Z" fill="#54565A"/>
<path d="M570.5 0.200012V124.3H550.1V0.200012H570.5Z" fill="#54565A"/>
<path d="M83.1 41.5C73.7 32.1 62.3 27.4 48.9 27.4C38.4 27.4 29.1 30.4 21 36.2V27.1H0.600006V75.7V124.3V155.7H21.3V115.4C29.3 121.1 38.5 123.9 48.9 123.9C62.3 123.9 73.7 119.2 83.1 109.8C92.5 100.4 97.2 89 97.2 75.6C97.2 62.2 92.5 50.9 83.1 41.5ZM65.7 97.6C61.9 100.7 57.3 102.6 52.4 103.1C42 104.2 33.5 100.7 26.9 92.5C23.8 88.7 21.9 84.1 21.4 79.2C20.3 68.8 23.8 60.3 32 53.7C35.8 50.6 40.4 48.7 45.3 48.2C55.7 47.1 64.2 50.6 70.8 58.8C73.9 62.6 75.8 67.2 76.3 72.1C77.4 82.5 73.8 91 65.7 97.6Z" fill="#54565A"/>
<path d="M201.1 75.4C201.1 62 196.4 50.6 187 41.1C177.6 31.7 166.2 27 152.8 27C139.4 27 128 31.7 118.6 41.1C109.2 50.5 104.5 62 104.5 75.4C104.5 88.8 109.2 100.2 118.6 109.7C128 119.1 139.5 123.8 152.9 123.8C163 123.8 172 121.1 179.8 115.7V124.1H201.3L201.1 79.3V75.4ZM179.8 81.8C178.8 85.9 176.2 91.2 172.4 95C167 100.4 160.3 103.2 152.6 103.1C145.2 103 138.1 100 133 94.7C127.5 89 124.9 82.1 125.2 74C125.5 67.7 128 61.7 132.2 57C137.7 51 144.4 47.9 152.3 47.8C159.7 47.7 166.9 50.5 172.2 55.7C176.2 59.6 179.6 65.2 180 68.8C181 72.7 181.1 77.3 179.8 81.8Z" fill="#54565A"/>
<path d="M579 113C579 110.9 579.5 109 580.4 107.3C581.3 105.5 582.7 104.2 584.3 103.1C586 102.1 587.8 101.6 589.8 101.6C591.7 101.6 593.6 102.1 595.2 103.1C596.9 104.1 598.2 105.5 599.1 107.3C600 109.1 600.5 111 600.5 113C600.5 115 600 117 599.1 118.7C598.2 120.5 596.8 121.8 595.2 122.9C593.6 124 591.7 124.4 589.7 124.4C587.7 124.4 585.9 123.9 584.2 122.9C582.5 121.9 581.2 120.5 580.3 118.7C579.4 117 579 115.1 579 113ZM598.8 113C598.8 111.3 598.4 109.7 597.7 108.3C596.9 106.9 595.9 105.7 594.5 104.8C593.1 103.9 591.6 103.5 589.9 103.5C588.3 103.5 586.8 103.9 585.4 104.8C584 105.6 582.9 106.8 582.1 108.2C581.3 109.7 580.9 111.3 580.9 113C580.9 114.7 581.3 116.3 582.1 117.8C582.9 119.3 584 120.4 585.4 121.3C586.8 122.2 588.3 122.6 589.9 122.6C591.5 122.6 593 122.2 594.4 121.3C595.8 120.4 596.9 119.3 597.7 117.8C598.4 116.3 598.8 114.7 598.8 113ZM587.6 114.2V119.3H585.3V106.3H589.6C591.2 106.3 592.4 106.6 593.2 107.3C594.1 108 594.5 109 594.5 110.2C594.5 111.4 593.9 112.3 592.7 113C593.4 113.3 593.8 113.7 594.1 114.3C594.4 114.9 594.5 115.6 594.5 116.4C594.5 117.2 594.5 117.8 594.6 118.2C594.6 118.5 594.7 118.8 594.8 119.1V119.4H592.4C592.3 119.1 592.2 118.1 592.2 116.4C592.2 115.6 592 115.1 591.7 114.7C591.4 114.4 590.8 114.2 590 114.2H587.6ZM587.6 112.1H589.8C590.5 112.1 591.1 111.9 591.6 111.6C592.1 111.3 592.3 110.8 592.3 110.3C592.3 109.6 592.1 109.1 591.8 108.8C591.4 108.5 590.8 108.4 589.8 108.3H587.7L587.6 112.1Z" fill="#54565A"/>
<path d="M416.1 75.5L378.5 30.6C374.4 25.8 367.1 25.3 362.4 29.4C357.6 33.5 357.1 40.8 361.2 45.5L387.3 75.6L361.2 105.7C357.1 110.5 357.7 117.7 362.4 121.8C367.2 125.9 374.4 125.3 378.5 120.6L416.1 75.5Z" fill="#881554"/>
<path d="M331.7 93.5C326.8 100.6 318.6 105 309.7 105C298 105 287.7 96.7 283.4 84.1H356.3L356.6 82.2C357.1 79 357.1 77.3 357.1 74.5C357.1 47.5 335.8 26.3 308.6 26.3C282.1 26.3 261.4 48.3 261.4 76.4C261.4 102.2 283.7 124.7 309.1 124.7C329 124.7 346.5 112.4 353.9 93.4L331.7 93.5ZM309 46.2C322 46.2 333.2 55.5 335.4 67.8H282.8C285.3 54.4 297.9 46.2 309 46.2Z" fill="#54565A"/>
<path d="M516.3 93.5C511.4 100.6 503.2 105 494.3 105C482.6 105 472.3 96.7 468 84.1H540.9L541.2 82.2C541.7 79 541.7 77.3 541.7 74.5C541.7 47.5 520.4 26.3 493.2 26.3C466.7 26.3 446 48.3 446 76.4C446 102.2 468.3 124.7 493.7 124.7C513.6 124.7 531.1 112.4 538.5 93.4L516.3 93.5ZM493.6 46.2C506.6 46.2 517.8 55.5 520 67.8H467.4C469.9 54.4 482.5 46.2 493.6 46.2Z" fill="#54565A"/>
<path d="M440.6 29.3C435.8 25.2 428.6 25.8 424.5 30.5L408.2 49.5L423.1 67.3L441.9 45.4C445.9 40.7 445.3 33.4 440.6 29.3Z" fill="#54565A"/>
<path d="M441.8 105.1L423.2 83.4L408.3 101.2L424.4 120C428.5 124.8 435.8 125.3 440.5 121.2C445.4 117.2 445.9 109.9 441.8 105.1Z" fill="#54565A"/>
</svg>
