<svg width="393" height="98" viewBox="0 0 393 98" xmlns="http://www.w3.org/2000/svg" xmlns:xlink="http://www.w3.org/1999/xlink"><title>pivotal</title><g id="Portfolio" stroke="none" stroke-width="1" fill="none" fill-rule="evenodd"><g id="pivotal" fill="#048371" fill-rule="nonzero"><path d="M92.0177965 95.4656125H77.3804641V25.276116H92.0177965V95.4656125zM91.9992768 14.9067926H77.3979444V.780127302H91.9992768V14.9067926" id="path30"/><path d="M176.453807 25.276116 156.071139 85.9057128C152.567139 95.8202834 146.320471 97.0921323 141.264469 97.0921323 133.755137 97.0921323 129.233801 93.6416124 126.569801 85.9229474L109.580465 35.5734393H102.8578V25.276116H120.393799L137.903134 81.6374543C138.66847 84.0426702 139.140469 85.4827836 141.264469 85.4827836 143.469804 85.4827836 143.905803 84.0202576 144.617802 81.6374543L162.483138 25.276116H176.453807" id="path32"/><path d="M212.495146 85.5401191C223.82448 85.5401191 230.845815 76.9723832 230.845815 66.6973213V55.6702467C230.845815 45.3858493 223.885811 36.8187937 212.495146 36.8187937 200.499144 36.8187937 194.153808 45.3858493 194.153808 55.6702467V66.6973213C194.153808 76.9723832 200.775144 85.5401191 212.495146 85.5401191m0-60.2640031C231.43648 25.276116 244.641813 37.7694583 244.641813 55.6702467V66.6973213C244.641813 84.5759993 231.43648 97.0921323 212.495146 97.0921323 193.563143 97.0921323 180.329807 84.5759993 180.329807 66.6973213V55.6702467C180.329807 37.7694583 193.563143 25.276116 212.495146 25.276116" id="path34"/><path d="M361.49116 27.5161287C354.199162 25.6401223 342.80316 24.2801348 334.387157 24.2801348 315.169823 24.2801348 303.244488 36.4001354 303.244488 55.9374593V63.6291762C303.244488 83.147867 315.169823 95.4521196 334.387157 95.4521196 334.831157 95.4521196 338.245824 95.4672377 339.801826 95.3134109V83.5306198C339.211157 83.5306198 334.821825 83.6867143 334.387157 83.6867143 323.933824 83.6867143 316.903157 75.6252461 316.903157 63.6289494V55.9372325C316.903157 43.9408224 323.933824 35.8838897 334.387157 35.8838897 339.117826 35.8838897 346.257826 36.2665669 348.721825 36.7865544L349.504493 36.9558772 349.521879 95.4653479H364.145881V29.9478768C364.145881 28.6985161 364.145881 28.2185161 361.491213 27.5158641" id="path36"/><path id="path38" d="M378.245829 95.4656125H392.878097V.780656435H378.245829z"/><path d="M26.4607235.779522577H.779520309V95.4521196H15.9992553V13.9414634h8.9234688C26.8164565 13.9565815 28.4305907 14.0348177 30.0492566 14.0654319 43.2417927 14.3201721 49.6977931 19.5534196 49.6977931 29.8107556 49.6977931 30.2240847 49.7246277 30.4947367 49.7246277 30.9214076 49.7246277 40.4103656 44.5126287 46.7067564 30.1296925 46.7067564 28.7551614 46.7067564 27.3416936 46.6765202 25.87916 46.6878588 25.8833175 50.3165078 25.8651758 57.0476956 25.8568608 59.413302 27.3417957 59.4847351 28.7292603 59.5467193 30.1521958 59.5467193 50.7913994 59.5467193 65.3660673 51.4321866 65.3660673 31.0635178 65.3660673 30.6635304 65.3449019 30.246195 65.3449019 29.8368343 65.3449019 8.72484582 49.4662327.779522577 26.4611657.779522577" id="path40"/><path d="M270.625818 10.1441341V25.276116H294.459154V36.613452H270.625818V77.5109281C270.625818 83.9265253 274.725818 84.1000056 280.665819 84.1000056H294.467154v11.352114H275.792485C261.98315 95.4521196 255.824483 89.9254673 255.824483 77.5109281V12.1761216L270.625818 10.1441341" id="path42"/></g></g></svg>