<svg width="562" height="128" viewBox="0 0 562 128" xmlns="http://www.w3.org/2000/svg" xmlns:xlink="http://www.w3.org/1999/xlink"><title>ubersense</title><defs><path d="M67.75 98.625C70 98.625 72.2916667 98.5 74.625 98.25 76.9583333 98 79.2291667 97.6458333 81.4375 97.1875 83.6458333 96.7291667 85.7291667 96.25 87.6875 95.75 89.6458333 95.25 91.3333333 94.75 92.75 94.25v0V32.625C91 32.2083333 89.2083333 31.9166667 87.375 31.75 85.5416667 31.5833333 83.8333333 31.5 82.25 31.5 80.5833333 31.5 78.8541667 31.5833333 77.0625 31.75 75.2708333 31.9166667 73.4583333 32.2083333 71.625 32.625v0V80C71.2916667 80.0833333 70.75 80.1666667 70 80.25 69.25 80.3333333 68.1666667 80.375 66.75 80.375 63.3333333 80.375 60.7916667 79.4583333 59.125 77.625 57.4583333 75.7916667 56.625 72.375 56.625 67.375v0-34.75C54.875 32.2083333 53.0833333 31.9166667 51.25 31.75 49.4166667 31.5833333 47.7083333 31.5 46.125 31.5 44.4583333 31.5 42.7291667 31.5833333 40.9375 31.75 39.1458333 31.9166667 37.3333333 32.2083333 35.5 32.625v0 36.5c0 6.5.875 11.6875 2.625 15.5625 1.75 3.875 4.1041667 6.833333300000007 7.0625 8.875C48.1458333 95.6041667 51.5833333 96.9583333 55.5 97.625 59.4166667 98.2916667 63.5 98.625 67.75 98.625z" id="path-1"/><filter x="-3.5%" y="-3%" width="114%" height="111.9%" filterUnits="objectBoundingBox" id="filter-2"><feOffset dx="4" dy="4" in="SourceAlpha" result="shadowOffsetOuter1"/><feColorMatrix values="0 0 0 0 0 0 0 0 0 0 0 0 0 0 0 0 0 0 0.1 0" type="matrix" in="shadowOffsetOuter1"/></filter></defs><g id="Portfolio" stroke="none" stroke-width="1" fill="none" fill-rule="evenodd"><g id="Logos" transform="translate(-783.000000, -430.000000)"><g id="ubersense" transform="translate(783.000000, 430.000000)"><g id="Logo"><rect id="BG" fill="#d0281e" x="0" y="0" width="128" height="128" rx="32"/><g id="u" fill-rule="nonzero"><use fill="#000" fill-opacity="1" filter="url(#filter-2)" xlink:href="#path-1"/><use fill="#fff" xlink:href="#path-1"/></g></g><text font-family="Aller-Bold, Aller" font-size="80" font-weight="bold" letter-spacing="1.53846154" fill="#d0281e"><tspan x="168.236923" y="87">ubersense</tspan></text></g></g></g></svg>