<svg id="Layer_1" xmlns="http://www.w3.org/2000/svg" xmlns:xlink="http://www.w3.org/1999/xlink" width="360" height="280.646" viewBox="-111.85 -99.781 360 280.646" enable-background="new -111.85 -99.781 360 280.646"><g><path fill="#00529b" d="M36.33 56.749 13.512 73.325 41.296 93.514 50.009 66.692z"/><path fill="#00529b" d="M45.401 96.5 68.218 113.074 91.022 96.5 68.218 79.917z"/><path fill="#00529b" d="M56.927 45.277-26.724-15.506-7.197 25.13 20.546 45.277z"/><path fill="#00529b" d="M65.682 18.478-51.191-66.441-31.666-25.797 58.723 39.876z"/><path fill="#00529b" d="M-34.622-99.781-48.402-71.107-6.056-40.342z"/><path fill="#00529b" d="M86.418 66.692 95.138 93.514 122.912 73.325 100.092 56.749z"/><path fill="#00529b" d="M115.882 45.277 143.625 25.13 163.144-15.506 79.502 45.277z"/><path fill="#00529b" d="M70.751 18.478 77.7 39.876l90.39-65.673L187.62-66.441z"/><path fill="#00529b" d="M171.05-99.781 142.476-40.342 184.829-71.107z"/><path fill="#00529b" d="M55.542 60.748c0-6.997 5.676-12.677 12.682-12.677 6.99.0 12.677 5.68 12.677 12.677.0 7.005-5.687 12.68-12.677 12.68C61.218 73.427 55.542 67.753 55.542 60.748z"/></g><g><path fill="#00529b" d="M-111.85 154.258h9.173v14.596c0 1.603.146 2.768.728 3.75 1.165 2.001 3.494 2.548 5.351 2.548 2.402.0 3.785-.837 4.404-1.42 1.564-1.455 1.602-3.785 1.602-5.023v-14.45h9.172v13.467c0 3.021-.071 6.188-1.491 8.373-2.803 4.367-9.573 4.768-13.65 4.768-5.715.0-8.954-.801-10.883-1.963-4.004-1.968-4.404-6.044-4.404-8.119V154.258z"/><path fill="#00529b" d="M-78.969 173.259h8.372v6.697h-8.372V173.259z"/><path fill="#00529b" d="M-56.573 160.882c0 .365.109.692.291.911.619.801 3.203 1.382 4.623 1.674 1.748.399 3.531.728 5.277 1.127 1.129.219 2.221.475 3.313.911 3.421 1.274 4.514 3.822 4.514 6.151.0 1.711-.583 3.276-1.347 4.404-2.148 3.24-6.48 4.66-13.396 4.66-2.584.0-7.716-.218-10.736-2.912-2.221-1.967-2.549-4.332-2.694-5.496l9.063-.256c.327 1.675 2.038 2.949 5.678 2.949.947.0 2.293-.11 3.203-.618.619-.365 1.274-1.094 1.274-1.966.0-1.202-.982-1.712-1.71-1.966-1.129-.364-6.916-1.384-8.191-1.675-1.018-.219-1.965-.473-2.947-.801-.982-.364-5.097-1.821-5.097-6.516.0-1.93.802-3.713 2.075-5.023 2.875-2.984 8.045-3.275 10.883-3.275 3.131.0 6.226.436 7.826.981 4.805 1.53 5.424 5.134 5.68 6.517l-9.027.51c-.219-.839-.656-2.367-4.514-2.367C-53.734 158.806-56.573 158.989-56.573 160.882z"/><path fill="#00529b" d="M-35.564 173.259h8.372v6.697h-8.372V173.259z"/><path fill="#00529b" d="M6.229 170.092H.26l2.948-8.699L6.229 170.092zM-13.135 179.956h10.083l1.383-4.187h9.828l1.383 4.187h10.011l-11.14-25.698H-2.069L-13.135 179.956z"/><path fill="#00529b" d="M32.174 154.258v25.698h-9.21v-25.698h9.21z"/><path fill="#00529b" d="M48.223 160.082h7.645c.691.0 1.637.071 2.365.729.474.437.656 1.055.656 1.638.0 2.293-2.33 2.329-3.75 2.329h-6.916V160.082zM39.014 179.956h9.209v-9.354h4.914l5.277 9.354h10.193l-6.443-10.265c1.092-.291 2.839-.656 4.295-2.402 1.057-1.273 1.639-3.059 1.639-4.878.0-2.585-1.165-5.095-3.022-6.516-2.147-1.566-4.914-1.603-7.17-1.638H39.014V179.956z"/><path fill="#00529b" d="M82.343 154.258h25.188v5.787H91.552v4.914h14.668v5.751H91.552v9.246h-9.21V154.258z"/><path fill="#00529b" d="M128.156 159.025c6.296.073 7.535 5.242 7.535 8.045.0 2.583-.982 5.934-3.822 7.353-1.128.583-2.439.729-3.713.729-5.568.0-7.717-4.113-7.717-8.081C120.439 163.54 122.369 158.953 128.156 159.025zM127.61 153.31c-4.551.073-10.665.911-14.268 6.008-1.64 2.327-2.368 5.168-2.368 8.044.0 2.948.692 5.423 2.439 7.752 1.893 2.585 5.57 5.751 14.524 5.751 4.658.0 8.808-.653 12.303-3.421 1.236-.947 2.256-2.11 3.058-3.459 1.273-2.111 1.857-4.585 1.857-6.987.0-4.404-2.075-9.793-7.974-12.193C134.235 153.601 130.812 153.275 127.61 153.31z"/><path fill="#00529b" d="M159.497 160.082h7.645c.691.0 1.638.071 2.365.729.475.437.656 1.055.656 1.638.0 2.293-2.33 2.329-3.749 2.329h-6.917V160.082zM150.287 179.956h9.21v-9.354h4.914l5.278 9.354h10.192l-6.444-10.265c1.093-.291 2.84-.656 4.296-2.402 1.057-1.273 1.638-3.059 1.638-4.878.0-2.585-1.164-5.095-3.021-6.516-2.147-1.566-4.913-1.603-7.169-1.638h-18.894V179.956z"/><path fill="#00529b" d="M193.277 167.107c0 3.895 2.292 7.936 7.571 7.936 2.001.0 3.857-.62 5.205-1.711 1.2-.984 1.565-1.819 1.856-2.586l8.771.91c-.291.947-.618 1.893-1.456 3.203-3.021 4.66-8.918 5.971-14.56 5.971-2.512.0-4.988-.22-7.353-.947-5.279-1.639-9.646-5.679-9.646-12.739.0-4.988 2.619-13.978 17.252-13.978 12.484.0 14.452 5.678 15.288 8.117l-8.517 1.529c-.363-.729-.801-1.712-2.148-2.585-1.384-.874-3.094-1.166-4.404-1.166C196.989 159.061 193.277 161.645 193.277 167.107z"/><path fill="#00529b" d="M247.787 154.258v5.787h-17.873v4.186h16.526v5.824h-16.563v4.077h18.272v5.824h-27.444v-25.698H247.787z"
		/></g></svg>