<svg width="601" height="262" viewBox="0 0 601 262" xmlns="http://www.w3.org/2000/svg" xmlns:xlink="http://www.w3.org/1999/xlink"><title>bostonscientific</title><g id="Portfolio" stroke="none" stroke-width="1" fill="none" fill-rule="evenodd"><g id="bostonscientific" fill="#14487c" fill-rule="nonzero"><path d="M399.6 171H388V174.6H422.7V171H413.4V110.5C410.5 113.5 405.9 113.8 401.3 113.8H389.8v3.5H399.6V171" id="Path"/><path d="M180 171H168.4V174.6H203.1V171H193.8V110.5C190.9 113.5 186.3 113.8 181.7 113.8H170.2v3.5H180V171" id="Path"/><path d="M439.7 171H428.6V174.6H463.9V171H453.7V117.3H478.6V171H469.3V174.6H503.6V171H492.4V110.5C489.5 113.5 484.5 113.8 479.8 113.8H453.6V93.6C453.6 80.1 458.6 69.3 474 69.3 480.1 69.3 484.6 71.8 484.6 74.4 484.6 76.1 483.1 76.7 481.9 77.4 480 78.4 478.2 80.3 478.2 83.1 478.2 86.9 481.9 89.5 485.1 89.5 489.8 89.5 493.2 85.8 493.2 80.3 493.2 73.8 486.5 65.7 472.5 65.7 448.2 65.7 439.4 85.4 439.4 104.1V113.9H426.8v3.5H439.4V171" id="Path"/><path d="M71.6 130.1C86.7 133.2 93.5 142.3 93.5 152.2 93.5 163.6 84.4 172.8 70.5 172.8 56.3 172.8 42.6 161.2 40.4 137.9H36.5V175.5H40.4C40.7 173 41.7 171.1 44.7 171.1 50.3 171.1 56.3 177 70.7 177 91.7 177 103.2 164.3 103.2 144.9 103.2 129.7 95.6 118.4 75.4 113.5L67.7 111.7C49.9 107.6 44.7 99.4 44.7 91.1 44.7 79.7 53.5 72 64.2 72 80.9 72 90.8 85.5 92.8 102.4H96.9V71.2H93.2C92.8 73.1 91.8 75 88.8 75 83.7 75 79.5 67.7 63.8 67.7 48.2 67.7 35.8 79.1 35.8 96.1 35.8 114.3 44.9 123.9 63.9 128.3L71.6 130.1" id="Path"/><path d="M352.4 163.1C352.4 173.3 359.4 177 368.6 177 379.7 177 383.4 170.9 385.1 167.2L382.3 165.3C380.5 168.4 377.7 172.2 372.9 172.2 369.2 172.2 366.2 170.3 366.2 164.5V117.3H382.4v-3.5H366.3V95.3H363.6C361.2 109.7 354.4 113.8 340.9 113.8v3.5H352.5v45.8" id="Path"/><path d="M308.4 171H318.7V125.9C318.7 118.7 314.8 115.7 309.7 115.7 300.6 115.7 293.8 124.4 290.8 128.6V171H301.4V174.6H266.1V171H277V117.3H266.1V113.7H277.5C284.4 113.7 287.8 113.7 290.4 110.4V122.5H290.7C293.7 118.9 300.8 110.4 313.1 110.4 326.2 110.4 332.6 118.9 332.6 129.1V171H343.5V174.6H308.4V171" id="Path"/><path d="M160.5 154.5C158.9 162.4 152.7 172.1 141.9 172.1 131.4 172.1 126.3 165.9 126.3 152.1v-14C126.3 124.6 131.3 114.9 142.7 114.9 149.5 114.9 153.3 118.2 153.3 120.8 153.3 122.2 152.4 123 151.5 124 150.6 125.1 149.7 126.4 149.7 128.4 149.7 131.5 152.1 134.6 156.5 134.6 160.6 134.6 163.9 131.4 163.9 126.4 163.9 119 155.2 111.3 141.6 111.3 124.5 111.3 111.2 124.4 111.2 144.2 111.2 162.3 120.5 177.1 140.5 177.1 154 177.1 162.7 166.2 164.5 154.4h-4" id="Path"/><path d="M553 154.3C551.5 162.2 545.2 171.9 534.4 171.9 523.9 171.9 518.8 165.7 518.8 151.9v-14C518.8 124.4 523.8 114.7 535.2 114.7 542 114.7 545.8 118 545.8 120.6 545.8 122 544.9 122.8 544 123.8 543.1 124.9 542.2 126.2 542.2 128.2 542.2 131.3 544.6 134.4 549 134.4 553 134.4 556.4 131.2 556.4 126.2 556.4 118.8 547.7 111.1 534.1 111.1 517 111.1 503.7 124.2 503.7 144 503.7 162.1 513 176.9 533 176.9 546.5 176.9 555.2 166 557 154.2h-4" id="Path"/><path d="M257.3 154.2C255.7 163 249.1 172.1 238.9 172.1 228.6 172.1 223.3 165.8 223.3 153.1V138.7H261C261.9 138.7 262.3 138.3 262.3 137.4 262.3 136.7 262.3 136 262.3 135.2 262.3 126 254 111.2 235.6 111.2 219.6 111.2 207.8 126.9 207.8 144.1 207.8 164.7 219.8 177 236.2 177 249.1 177 258.6 167.9 261.1 154.2H257.3v0zM248.6 133.9C248.6 134.5 248.3 134.9 247.6 134.9H223.9V130.3C223.9 120.6 228.9 114.7 236.4 114.7 244.1 114.7 248.6 120.2 248.6 130.3V133.9" id="Shape"/><path d="M127.8 3.5H131.5c14 0 21.5 7.9 21.5 17.7C153 35.2 143.5 40 132 40H127.9V3.5H127.8zM113.5 85.9H104V89.3H142.6C155.7 89.3 171.2 81.8 171.2 64.3 171.2 50.4 158.8 42.9 146.6 42.2V41.6C156.9 40.7 167.3 34.1 167.3 20.3 167.3 8.4 157.2.2 138.7.2H104V3.5H113.6V85.9H113.5zM127.8 43.4H134.5C148.7 43.4 156.3 52.7 156.3 64.2 156.3 76.8 148.7 85.9 135.7 85.9H127.7V43.4" id="Shape"/><path d="M177.1 62.5C177.1 78.3 188.2 91.4 204 91.4 219.7 91.4 230.9 78.2 230.9 62.5 230.9 46.8 219.8 33.6 204 33.6 188.2 33.7 177.1 46.7 177.1 62.5M217.3 65.8C217.3 76.8 216 87.6 204 87.6 191.9 87.6 190.7 76.8 190.7 65.8V59.3C190.7 48.3 191.7 37.5 204 37.5 216.7 37.5 217.3 48.3 217.3 59.3v6.5" id="Shape"/><path d="M315 62.6C315 78.4 326.1 91.5 341.9 91.5 357.6 91.5 368.8 78.3 368.8 62.6 368.8 46.9 357.7 33.7 341.9 33.7 326.1 33.7 315 46.7 315 62.6M355.2 65.8C355.2 76.8 353.9 87.6 341.9 87.6 329.8 87.6 328.5 76.8 328.5 65.8V59.3C328.5 48.3 329.5 37.5 341.9 37.5 354.5 37.5 355.2 48.3 355.2 59.3v6.5" id="Shape"/><path d="M407.2 85.9H414.8V48.1C414.8 41.7 410.7 39.2 406.3 39.2 400.6 39.2 394.7 44.7 392 50.6V86H401.3V89.4H368.9V86H379V39.4H369.1V36H378.7C384.5 36 389.4 36 391.6 33.1V43.4H391.8C396.8 37.3 403.6 33.1 411.5 33.1 423.8 33.1 428 41.8 428 49.1V85.9H435.3V89.3H407.1V85.9" id="Path"/><path d="M256.5 67.5C263.9 68.5 267 72.9 267 77.6 267 84.3 261.6 87.8 255.6 87.8 244.2 87.8 240.1 77.7 239.4 71H236.5L236.9 90.7H239.7C239.9 88.7 240.6 87.9 241.9 87.9 244.6 87.9 247.7 91.5 255.8 91.5 267.8 91.5 275.1 84 275.1 72.7 275.1 64.6 270.5 57.4 260.3 55.9L254.2 54.9C246.1 53.6 243.3 50.8 243.3 46 243.3 41.3 247.3 37.3 254.1 37.3 262 37.3 266.6 42.2 267.9 50H270.7L270.4 34.5h-2.5C267.8 35.7 267.3 36.8 266 36.8 263.7 36.8 260.6 33.7 253.9 33.7 244.4 33.7 237.1 40.3 237.1 49.7 237.1 61.6 244.9 65.9 253 67l3.5.5" id="Path"/><path d="M313.6 81C312.3 83.1 309.6 86.4 305.6 86.4 302.2 86.4 299.3 84.9 299.3 79.6V39.4H313.6V36H299.3V17.8H296.9C294.8 30.6 287.7 36 277.3 36V39.3H286.4V79.4C286.4 88.2 292.6 91.6 301.3 91.6 309.3 91.6 313.5 87.5 315.7 84.1L313.6 81" id="Path"/><path d="M12.3 235.8 5.6 249.8H.5C6.3 238.8 12.1 227.6 17.6 216.5H23.3C27 227.6 31.2 238.7 35.3 249.8H30.4C29 245.1 27.3 240.4 25.6 235.8H12.3zM24.6 232.5 20.1 219.8 13.7 232.5H24.6z" id="Shape"/><path d="M56.5 244.8 56.4 244.7C54.4 248.4 51.4 250.3 47 250.3 41.1 250.3 36.5 246.3 36.5 238.9 36.5 231.3 41.2 224.5 51.5 224.5 53.3 224.5 55.2 224.6 56.9 225 57 222.1 57 219.8 57 216.5H61.4C60.8 227.6 60.3 238.7 60.2 249.8H56.1L56.5 244.8zM51.4 227.6C43.6 227.6 40.8 234 40.8 238.7 40.8 243.5 43.3 247.2 48.3 247.2 52.7 247.2 55.3 243.9 56.1 239.9 56.8 236.1 56.6 232 56.8 228.3 55.3 227.9 53.8 227.6 51.4 227.6" id="Shape"/><path d="M90.1 225.1C86.3 233.3 82.5 241.5 79 249.8H74.2L65.3 225.1h4.5l7 21L85.5 225.1H90.1z" id="Path"/><path d="M107.3 249.8C107.8 246 108 240.2 108.2 235.3 105 238.5 94.1 237.8 94.1 243.7 94.1 246.8 97.2 247.7 99.7 247.7 101.4 247.7 103.2 247.3 104.8 246.8L104 249.8C102.4 250.1 100.8 250.3 99.1 250.3 95.5 250.3 90.1 249.6 90.1 243.8 90.1 233.4 108.2 237.4 108.2 230.7 108.2 227.7 104.8 227.2 102.5 227.2 99.4 227.2 96.3 227.9 93.4 229.1L93.9 225.9C96.9 225.1 1e2 224.6 103.1 224.6 111.3 224.6 112.5 227.8 112.5 231 112.5 234.7 111.8 244.4 111.8 249.9h-4.5V249.8z" id="Path"/><path d="M123.7 229.9 123.8 229.8C125.8 225.9 129.3 224.6 133.7 224.6 138.9 224.6 143 226.6 143 232.3 143 234 142.4 245.7 142.3 249.8H138C138.2 246.9 138.8 238.1 138.8 233.8 138.8 229.6 136.2 227.9 132.1 227.9 127.9 227.9 124.8 230.4 123.9 234.5 123 238.9 123 247.3 122.9 249.8H118.5C119.1 241.6 119.7 233.3 119.7 225.1H124L123.7 229.9z" id="Path"/><path d="M167 228.9C164.9 228.2 162.8 227.7 160 227.7 154.3 227.7 151.6 232.4 151.6 238.2 151.6 243.9 154.7 247.3 160.4 247.3 162.4 247.3 164.3 246.8 166.2 246.2L165.6 249.7C163.5 250.1 161.4 250.4 159.3 250.4 151.6 250.4 147.3 246 147.3 238.3 147.3 230.6 151.1 224.6 160 224.6 162.3 224.6 164.6 224.9 166.8 225.6L167 228.9z" id="Path"/><path d="M176.8 225.1C176.2 233.3 175.9 241.6 175.9 249.8H171.3C172 241.6 172.3 233.3 172.4 225.1H176.8zM172.4 219.9 172.5 216.5H177.2L177.1 219.9H172.4z" id="Shape"/><path d="M187.8 229.9 187.9 229.8C189.9 225.9 193.4 224.6 197.8 224.6 203 224.6 207.1 226.6 207.1 232.3 207.1 234 206.5 245.7 206.4 249.8H202.1C202.3 246.9 202.9 238.1 202.9 233.8 202.9 229.6 200.3 227.9 196.2 227.9 192 227.9 188.9 230.4 188 234.5 187.1 238.9 187.1 247.3 187 249.8H182.6C183.2 241.6 183.7 233.3 183.8 225.1H188.1L187.8 229.9z" id="Path"/><path d="M213.7 256.8C216.8 257.8 219.9 258.6 223.2 258.6 227.4 258.6 230 257.6 231 253.9 231.8 251.2 231.6 247.6 231.8 244.8L231.7 244.7C230 248.5 226.3 250.3 222.2 250.3 215.5 250.3 211.5 246.2 211.5 239.5 211.5 233.3 214.4 224.6 227.6 224.6 230.7 224.6 233.8 225 236.9 225.6 236.5 231.4 236.2 232.7 235.7 251.4 235.6 257.3 233.1 261.7 223.9 261.7 220.6 261.7 217.3 261.3 214 260.5L213.7 256.8zM227.3 227.6C216.3 227.6 215.7 237.1 215.7 238.7 215.7 243.7 218.1 247.1 223.4 247.1 227.3 247.1 230.1 244.6 231.3 240.9 232.4 237.7 232.2 231.6 232.4 228.1 230.8 227.8 229.1 227.6 227.3 227.6" id="Shape"/><path d="M257.7 245.7C259.9 246.6 262.2 247.3 264.7 247.3 266.8 247.3 269.7 246.7 269.7 244.1 269.7 239.5 259.5 236.7 259.5 230.8 259.5 227.2 262.2 224.6 267.9 224.6 269.9 224.6 271.9 224.9 273.9 225.2L274.1 228.7C272.4 228.1 270.6 227.7 268.4 227.7 266.3 227.7 263.8 228.2 263.8 230.5 263.8 235 274 237.9 274 244.1 274 248.7 269.3 250.4 265.4 250.4 263 250.4 260.5 250 258.2 249.4L257.7 245.7z" id="Path"/><path d="M297.9 228.9C295.8 228.2 293.7 227.7 290.9 227.7 285.2 227.7 282.5 232.4 282.5 238.2 282.5 243.9 285.6 247.3 291.3 247.3 293.3 247.3 295.2 246.8 297.1 246.2L296.5 249.7C294.4 250.1 292.3 250.4 290.2 250.4 282.5 250.4 278.2 246 278.2 238.3 278.2 230.6 282 224.6 290.9 224.6 293.2 224.6 295.5 224.9 297.7 225.6L297.9 228.9z" id="Path"/><path d="M308 225.1C307.4 233.3 307.1 241.6 307.1 249.8H302.5C303.2 241.6 303.5 233.3 303.6 225.1H308zM303.5 219.9 303.6 216.5H308.3L308.2 219.9H303.5z" id="Shape"/><path d="M317.1 236.9V238.3C317.1 244 320.7 247.2 326.3 247.2 328.8 247.2 331.5 246.4 333.9 245.6L333.2 249.2c-2.5.700000000000017-5 1-7.5 1C315.5 250.2 312.9 244 312.9 237.9 312.9 230.3 317.2 224.4 325.2 224.4 331.7 224.4 335.9 227.8 335.9 234.5 335.9 235.1 335.8 235.8 335.7 236.7H317.1V236.9zM331.9 234.3C331.9 230.2 330 227.1 325.6 227.1 321.1 227.1 318.2 230 317.4 234.3h14.5z" id="Shape"/><path d="M345.4 229.9 345.5 229.8C347.5 225.9 351 224.6 355.4 224.6 360.6 224.6 364.7 226.6 364.7 232.3 364.7 234 364.1 245.7 364 249.8H359.7C359.9 246.9 360.5 238.1 360.5 233.8 360.5 229.6 357.9 227.9 353.8 227.9 349.6 227.9 346.5 230.4 345.6 234.5 344.7 238.9 344.7 247.3 344.6 249.8H340.2C340.8 241.6 341.3 233.3 341.4 225.1H345.7L345.4 229.9z" id="Path"/><path d="M388.7 228.9C386.6 228.2 384.5 227.7 381.7 227.7 376 227.7 373.3 232.4 373.3 238.2 373.3 243.9 376.4 247.3 382.1 247.3 384.1 247.3 386 246.8 387.9 246.2L387.3 249.7C385.2 250.1 383.1 250.4 381 250.4 373.3 250.4 369 246 369 238.3 369 230.6 372.8 224.6 381.7 224.6 384 224.6 386.3 224.9 388.5 225.6L388.7 228.9z" id="Path"/><path d="M395.7 236.9V238.3C395.7 244 399.3 247.2 404.9 247.2 407.4 247.2 410.1 246.4 412.5 245.6L411.8 249.2c-2.5.700000000000017-5 1-7.5 1C394.1 250.2 391.5 244 391.5 237.9 391.5 230.3 395.8 224.4 403.8 224.4 410.3 224.4 414.5 227.8 414.5 234.5 414.5 235.1 414.4 235.8 414.3 236.7H395.7V236.9zM410.6 234.3C410.6 230.2 408.7 227.1 404.3 227.1 399.8 227.1 396.9 230 396.1 234.3h14.5z" id="Shape"/><path d="M434 228.2 434.1 225.1H437.3C437.2 219.3 437.7 215.6 444.6 215.6 446.2 215.6 447.8 215.8 449.3 216.2L449.5 219.4C448.2 219 446.7 218.7 444.9 218.7 441 218.7 441 221.6 441 225.1H447.8L447.6 228.2H441C440.8 237.3 440.5 242.3 440.4 249.8H436C436.5 242.6 436.7 235.4 436.9 228.2H434z" id="Path"/><path d="M473.8 236.7C473.8 243.1 470.5 250.4 460.8 250.4 453.3 250.4 448.5 245.7 448.5 238.1 448.5 230 453.3 224.6 461.6 224.6 469.1 224.5 473.8 229.1 473.8 236.7M452.6 238.2C452.6 243.3 455.1 247.2 460.8 247.2 467.1 247.2 469.5 242.3 469.5 236.6 469.5 231.1 466.9 227.6 461.2 227.6 455.4 227.6 452.6 232.2 452.6 238.2" id="Shape"/><path d="M482.8 229H482.9C484.5 226 486.7 224.5 490.3 224.5 491 224.5 491.6 224.6 492.3 224.7L492.4 228.3C491.5 228.1 490.6 227.9 489.6 227.9 485.5 227.9 483.4 231.1 482.8 234.8 482.3 238 482.3 243.6 482.3 249.7H478C478.4 242.6 478.9 235.4 478.8 225H482.9L482.8 229z" id="Path"/><path d="M518 216.5C517.2 227.3 516.8 238.7 516.6 249.8h-4.5C512.8 238.7 513.3 227.6 513.6 216.5H518z" id="Path"/><path d="M529 225.1C528.4 233.3 528.1 241.6 528.1 249.8H523.5C524.2 241.6 524.5 233.3 524.6 225.1H529zM524.6 219.9 524.7 216.5H529.4L529.3 219.9H524.6z" id="Shape"/><path d="M533.7 228.2 533.8 225.1H537C536.9 219.3 537.4 215.6 544.3 215.6 545.9 215.6 547.5 215.8 549 216.2L549.2 219.4C547.9 219 546.4 218.7 544.6 218.7 540.7 218.7 540.7 221.6 540.7 225.1H547.5L547.3 228.2H540.7C540.5 237.3 540.2 242.3 540.1 249.8H535.7C536.2 242.6 536.4 235.4 536.6 228.2H533.7z" id="Path"/><path d="M553.3 236.9V238.3C553.3 244 556.9 247.2 562.5 247.2 565 247.2 567.7 246.4 570.1 245.6L569.4 249.2c-2.5.700000000000017-5 1-7.5 1C551.7 250.2 549.1 244 549.1 237.9 549.1 230.3 553.4 224.4 561.4 224.4 567.9 224.4 572.1 227.8 572.1 234.5 572.1 235.1 572 235.8 571.9 236.7H553.3V236.9zM568.2 234.3C568.2 230.2 566.3 227.1 561.9 227.1 557.4 227.1 554.5 230 553.7 234.3h14.5z" id="Shape"/><path d="M578.8 227.9C579 224.5 579.1 221 579.2 217.6 577.9 217.6 576.7 217.6 575.5 217.7L575.6 216.1H585.4L585.3 217.7C584 217.7 582.8 217.6 581.5 217.6 581.4 221 581.2 224.5 581.2 227.9H578.8zm19.5.0C598.4 224.6 598.4 221.3 598.4 218.1H598.3C596.9 221.4 595.6 224.7 594.3 227.9H591.7C590.8 224.6 589.8 221.3 588.9 218.1H588.8C588.6 221.4 588.4 224.7 588.2 227.9h-2C586.5 223.9 586.8 220 587 216.1H590.6C591.3 219.3 592.3 222.4 593.3 225.6 594.7 222.4 596 219.3 597.2 216.1H600.5C600.4 220.1 600.3 224 600.3 227.9h-2z" id="Shape"/></g></g></svg>