<svg width="125" height="28" viewBox="0 0 125 28" fill="none" xmlns="http://www.w3.org/2000/svg">
<mask id="mask0_141_3607" style="mask-type:luminance" maskUnits="userSpaceOnUse" x="0" y="0" width="125" height="28">
<path d="M124.162 0H0V28H124.162V0Z" fill="white"/>
</mask>
<g mask="url(#mask0_141_3607)">
<path d="M49.4666 11.2374C49.1847 10.8182 48.8091 10.4703 48.3696 10.2212C47.8822 9.93943 47.3273 9.79571 46.7645 9.80552C46.1829 9.78073 45.6029 9.8832 45.065 10.1058C44.5786 10.3115 44.1416 10.6185 43.7833 11.0065C43.4218 11.4038 43.1465 11.8717 42.9749 12.3806C42.7863 12.9345 42.6926 13.5162 42.6978 14.1012C42.6926 14.6863 42.7863 15.268 42.9749 15.8218C43.1465 16.3308 43.4218 16.7987 43.7833 17.196C44.1416 17.5839 44.5786 17.891 45.065 18.0967C45.6023 18.319 46.1816 18.4215 46.7625 18.397C47.3254 18.4068 47.8803 18.263 48.3677 17.9812C48.8072 17.7321 49.1827 17.3842 49.4647 16.965L50.7118 17.912C50.2178 18.5101 49.5947 18.9885 48.8892 19.3111C48.2222 19.6086 47.5024 19.7695 46.7722 19.7846C45.9601 19.8114 45.151 19.6739 44.3934 19.3804C43.7131 19.114 43.0957 18.7089 42.5804 18.191C42.0748 17.6748 41.6851 17.0567 41.4372 16.378C41.1732 15.6491 41.0428 14.8784 41.0522 14.1032C41.0428 13.3279 41.1732 12.5573 41.4372 11.8283C41.6851 11.1496 42.0748 10.5315 42.5804 10.0153C43.0957 9.4974 43.7131 9.09235 44.3934 8.8259C45.151 8.53244 45.9601 8.39497 46.7722 8.42173C47.5024 8.43678 48.2222 8.59775 48.8892 8.89519C49.5952 9.21706 50.219 9.69479 50.7137 10.2924L49.4666 11.2374Z" fill="white"/>
<path d="M59.9212 12.8768V12.5997C59.9212 10.7367 58.9974 9.80517 57.1498 9.80517C55.9268 9.79001 54.7447 10.2447 53.8471 11.0754L52.9233 9.98994C53.9395 8.94295 55.4638 8.41946 57.4962 8.41946C58.0093 8.41788 58.5196 8.49579 59.0089 8.65041C59.4745 8.79281 59.9043 9.03297 60.2696 9.35482C60.6352 9.68645 60.9265 10.0918 61.1241 10.5442C61.352 11.0845 61.4622 11.6671 61.4474 12.2533V17.0802C61.4474 17.4959 61.4667 17.9309 61.5052 18.3851C61.5436 18.8393 61.586 19.2126 61.6322 19.5052H60.1541C60.1079 19.2486 60.0732 18.9637 60.0502 18.6507C60.0271 18.3376 60.0155 18.0373 60.0155 17.7499H59.9693C59.5941 18.4042 59.047 18.9433 58.3873 19.3089C57.6933 19.6436 56.9288 19.806 56.1586 19.7823C55.6899 19.7848 55.2232 19.7199 54.7729 19.5899C54.3419 19.4669 53.9383 19.2631 53.5835 18.9894C53.2385 18.7216 52.955 18.383 52.752 17.9963C52.5346 17.5695 52.4268 17.0952 52.4383 16.6164C52.4383 15.7387 52.6654 15.0497 53.1196 14.5493C53.5875 14.0399 54.1749 13.6549 54.8287 13.4292C55.5362 13.1781 56.2741 13.0228 57.0227 12.9673C57.8003 12.9057 58.5124 12.8749 59.1591 12.8749L59.9212 12.8768ZM59.136 14.124C58.751 14.124 58.2699 14.1432 57.6925 14.1817C57.1322 14.2181 56.577 14.3109 56.0354 14.4589C55.5384 14.5878 55.0741 14.8199 54.6728 15.1402C54.4862 15.2933 54.3378 15.4878 54.2396 15.7083C54.1413 15.9289 54.0959 16.1693 54.107 16.4104C54.0981 16.7286 54.1739 17.0433 54.3264 17.3227C54.4704 17.5743 54.6723 17.7881 54.9153 17.9463C55.1657 18.1098 55.4434 18.2271 55.7352 18.2927C56.0343 18.3619 56.3404 18.3967 56.6474 18.3966C57.1429 18.4082 57.635 18.3137 58.0909 18.1195C58.4832 17.9479 58.8333 17.6925 59.1166 17.3714C59.3998 17.0502 59.6094 16.671 59.7307 16.2603C59.862 15.8234 59.9269 15.3693 59.9231 14.9131V14.124H59.136Z" fill="white"/>
<path d="M70.2446 11.2608C70.0312 10.8344 69.7134 10.4689 69.3207 10.1984C68.9013 9.92966 68.4098 9.79537 67.9119 9.81351C67.6437 9.81426 67.3764 9.84524 67.1151 9.90589C66.8587 9.96229 66.613 10.0597 66.3876 10.1945C66.1791 10.3186 66.0015 10.4884 65.868 10.6911C65.7325 10.9131 65.6656 11.1702 65.6755 11.4301C65.6755 11.9434 65.8526 12.3129 66.2067 12.5387C66.7016 12.8245 67.2399 13.0274 67.8003 13.1392L69.34 13.5087C70.0556 13.6567 70.7109 14.0145 71.2223 14.5364C71.4694 14.791 71.6631 15.0924 71.792 15.4229C71.9209 15.7534 71.9824 16.1064 71.9729 16.461C71.9882 16.9837 71.8682 17.5015 71.6245 17.9642C71.3932 18.379 71.0691 18.7347 70.6776 19.0034C70.2683 19.2805 69.8117 19.4801 69.3304 19.5924C68.8266 19.7174 68.3097 19.782 67.7907 19.7848C66.9865 19.7941 66.1895 19.6327 65.4523 19.3114C64.6946 18.9593 64.0564 18.3933 63.6162 17.6832L64.9326 16.7824C65.2249 17.2612 65.6241 17.6657 66.099 17.9642C66.6042 18.2663 67.1849 18.4185 67.7734 18.403C68.0842 18.4026 68.394 18.3678 68.6972 18.299C68.9871 18.2334 69.2641 18.1202 69.5171 17.9642C69.7507 17.8228 69.9483 17.6291 70.0944 17.3983C70.244 17.1557 70.3202 16.8749 70.3138 16.59C70.3313 16.3591 70.2844 16.1278 70.1784 15.922C70.0724 15.7161 69.9115 15.5436 69.7134 15.4237C69.2592 15.1638 68.7688 14.9731 68.2584 14.8578L66.7803 14.5114C66.5955 14.4652 66.3453 14.3882 66.0297 14.2805C65.6995 14.1651 65.3883 14.0017 65.1059 13.7955C64.7963 13.5679 64.5347 13.2814 64.336 12.9525C64.1095 12.5643 63.9974 12.1199 64.0127 11.6707C64.0012 11.1654 64.1163 10.6652 64.3476 10.2157C64.5621 9.80979 64.871 9.46129 65.2483 9.19956C65.6388 8.93163 66.0724 8.73245 66.5301 8.61063C67.0119 8.48047 67.5091 8.41574 68.0082 8.41817C68.7321 8.41175 69.4489 8.56142 70.1098 8.85698C70.7718 9.16444 71.3036 9.69623 71.611 10.3581L70.2446 11.2608Z" fill="white"/>
<path d="M75.4177 14.5174C75.4583 15.0437 75.5885 15.5592 75.8026 16.0417C76.21 16.9655 76.9529 17.7002 77.8812 18.0972C78.3555 18.2999 78.8666 18.4021 79.3824 18.3974C80.128 18.4179 80.8635 18.2214 81.4995 17.8316C82.0404 17.5028 82.5008 17.0569 82.8467 16.5267L84.0245 17.489C83.4627 18.2362 82.7302 18.838 81.8882 19.2443C81.1024 19.6001 80.2488 19.7814 79.3862 19.7755C78.6223 19.7825 77.8647 19.6373 77.1575 19.3482C76.4931 19.0774 75.8917 18.6725 75.3908 18.1588C74.8902 17.6386 74.4942 17.027 74.2244 16.3574C73.9346 15.6384 73.7894 14.8692 73.7972 14.094C73.7894 13.3199 73.9305 12.5515 74.2129 11.8307C74.4757 11.1602 74.8681 10.548 75.3677 10.0293C75.8601 9.52134 76.449 9.11696 77.0998 8.83983C77.7789 8.55158 78.51 8.40615 79.2477 8.41256C80.0019 8.40273 80.7495 8.555 81.4398 8.85907C82.0575 9.13082 82.612 9.52799 83.068 10.0254C83.5138 10.5222 83.8554 11.1034 84.0727 11.7345C84.3065 12.4063 84.4237 13.1132 84.4191 13.8246V14.5174H75.4177ZM82.762 13.2703C82.762 12.2438 82.4541 11.4099 81.8382 10.7683C81.2223 10.1268 80.3601 9.80598 79.2515 9.80598C78.7597 9.80576 78.2729 9.90392 77.8196 10.0947C77.3726 10.2767 76.9619 10.5374 76.6071 10.8645C76.2657 11.1812 75.9841 11.5567 75.7757 11.9731C75.5742 12.3757 75.4707 12.8201 75.4735 13.2703H82.762Z" fill="white"/>
<path d="M92.6024 10.0827H89.4845V16.457C89.4759 16.788 89.5148 17.1186 89.6 17.4386C89.6534 17.6569 89.7591 17.8591 89.9079 18.0275C90.0454 18.1655 90.2166 18.265 90.4045 18.3162C90.6115 18.372 90.8252 18.3992 91.0396 18.397C91.313 18.3954 91.585 18.3565 91.8479 18.2815C92.1149 18.2102 92.373 18.1095 92.6178 17.9813L92.6871 19.3901C92.0376 19.665 91.3365 19.7963 90.6316 19.775C90.324 19.7731 90.0177 19.7344 89.7193 19.6596C89.401 19.5812 89.1048 19.4311 88.8533 19.2207C88.5737 18.9831 88.3519 18.685 88.2047 18.3489C88.0182 17.8873 87.9316 17.3914 87.9506 16.8939V10.0827H85.6738V8.69698H87.9603V5.64648H89.4845V8.69698H92.6024V10.0827Z" fill="white"/>
<path d="M95.4626 14.5177C95.5033 15.044 95.6334 15.5595 95.8475 16.042C96.2549 16.9658 96.9978 17.7004 97.9261 18.0975C98.4004 18.3002 98.9115 18.4024 99.4273 18.3977C100.173 18.4182 100.908 18.2216 101.544 17.8319C102.085 17.5031 102.546 17.0572 102.892 16.527L104.069 17.4893C103.508 18.2364 102.775 18.8383 101.933 19.2445C101.147 19.6004 100.294 19.7816 99.4312 19.7757C98.6672 19.7828 97.9096 19.6375 97.2025 19.3485C96.538 19.0776 95.9366 18.6727 95.4357 18.1591C94.9351 17.6388 94.5392 17.0273 94.2694 16.3576C93.9795 15.6386 93.8343 14.8695 93.8421 14.0943C93.8343 13.3202 93.9755 12.5518 94.2578 11.831C94.5206 11.1604 94.913 10.5483 95.4126 10.0295C95.905 9.52162 96.4939 9.11723 97.1447 8.8401C97.8238 8.55186 98.5549 8.40642 99.2926 8.41284C100.047 8.4003 100.795 8.54995 101.487 8.85165C102.104 9.12339 102.659 9.52056 103.115 10.018C103.561 10.5148 103.902 11.0959 104.119 11.727C104.353 12.3989 104.471 13.1058 104.466 13.8171V14.51L95.4626 14.5177ZM102.803 13.2706C102.803 12.2441 102.495 11.4101 101.879 10.7686C101.263 10.127 100.401 9.80625 99.2926 9.80625C98.8008 9.80604 98.314 9.90419 97.8607 10.095C97.4137 10.2769 97.003 10.5377 96.6482 10.8648C96.3068 11.1814 96.0251 11.557 95.8167 11.9734C95.6125 12.374 95.5057 12.8171 95.505 13.2667L102.803 13.2706Z" fill="white"/>
<path d="M109.435 13.7295L105.509 8.69482H107.587L110.59 12.7364L113.454 8.69482H115.347L111.585 13.7295L116.109 19.5034H114.031L110.405 14.7708L106.918 19.5034H104.978L109.435 13.7295Z" fill="white"/>
<path d="M123.824 10.0827H120.702V16.457C120.694 16.788 120.733 17.1186 120.818 17.4386C120.876 17.6584 120.987 17.8607 121.141 18.0275C121.279 18.1655 121.45 18.265 121.638 18.3162C121.845 18.372 122.058 18.3992 122.273 18.397C122.546 18.3954 122.818 18.3565 123.081 18.2815C123.348 18.2102 123.606 18.1095 123.851 17.9813L123.92 19.3901C123.271 19.665 122.57 19.7963 121.865 19.775C121.557 19.7731 121.251 19.7344 120.953 19.6596C120.634 19.5812 120.338 19.4311 120.087 19.2207C119.806 18.9833 119.584 18.6852 119.436 18.3489C119.249 17.8873 119.163 17.3914 119.182 16.8939V10.0827H116.896V8.69698H119.182V5.64648H120.702V8.69698H123.82L123.824 10.0827Z" fill="white"/>
<path d="M16.4577 25.8244L0.732422 16.7711L16.7037 7.48584L32.4262 16.5392L16.4577 25.8244Z" fill="#DEDDDD"/>
<path d="M16.4577 22.0773L0.732422 13.024L16.7037 3.75L32.4262 12.8034L16.4577 22.0773Z" fill="#DEDDDD"/>
<path d="M16.4577 18.3301L0.732422 9.27677L16.5934 0L32.4233 9.0703L16.4577 18.3301Z" fill="#DEDDDD"/>
<path d="M16.1467 18.1406L0.732518 9.26536C0.732518 9.26536 -0.282835 10.3967 0.732518 11.528L16.1353 20.3806C16.2252 20.4279 16.3251 20.4526 16.4267 20.4526C16.5282 20.4526 16.6282 20.4279 16.718 20.3806L32.4263 11.3301V9.06738L16.7293 18.1179C16.6434 18.1743 16.5438 18.2061 16.4411 18.2101C16.3385 18.2141 16.2367 18.19 16.1467 18.1406Z" fill="#84ACDB"/>
<path d="M16.1467 21.8829L0.732518 13.0106C0.732518 13.0106 -0.282835 14.1419 0.732518 15.2732L16.1353 24.1257C16.2254 24.1723 16.3253 24.1966 16.4267 24.1966C16.528 24.1966 16.6279 24.1723 16.718 24.1257L32.4263 15.0752V12.8154L16.7293 21.8659C16.6429 21.9213 16.543 21.9522 16.4403 21.9552C16.3377 21.9582 16.2362 21.9332 16.1467 21.8829Z" fill="#84ACDB"/>
<path d="M16.1467 25.6265L0.732518 16.7514C0.732518 16.7514 -0.282835 17.8827 0.732518 19.014L16.1353 27.8694C16.2254 27.916 16.3253 27.9403 16.4267 27.9403C16.528 27.9403 16.6279 27.916 16.718 27.8694L32.4263 18.8188V16.5562L16.7293 25.6067C16.6425 25.6609 16.5429 25.6913 16.4406 25.6947C16.3384 25.6982 16.237 25.6747 16.1467 25.6265Z" fill="#84ACDB"/>
<path d="M8.25337 11.3895L7.55762 11.0076L19.9625 3.75879L20.7233 4.20283L8.25337 11.3895Z" fill="#787979"/>
<path d="M5.44966 9.92817L4.75391 9.54635L17.1559 2.30029L17.9167 2.7415L5.44966 9.92817Z" fill="#787979"/>
<path d="M10.7045 12.8743L10.0088 12.4925L22.4136 5.24365L23.1744 5.68769L10.7045 12.8743Z" fill="#787979"/>
<path d="M13.228 14.3813L12.5322 13.9995L24.9343 6.75342L25.6951 7.19463L13.228 14.3813Z" fill="#787979"/>
<path d="M15.822 15.9035L15.0781 15.5104L25.5258 9.44092L26.2866 9.88213L15.822 15.9035Z" fill="#787979"/>
</g>
</svg>
