<svg width="600" height="196" viewBox="0 0 600 196" xmlns="http://www.w3.org/2000/svg" xmlns:xlink="http://www.w3.org/1999/xlink"><title>johnhancock</title><g id="Portfolio" stroke="none" stroke-width="1" fill="none" fill-rule="evenodd"><g id="johnhancock" fill="#231f20" fill-rule="nonzero"><path d="M159.17764 10.453557C159.73472 9.8964703 160.61951 10.682945 159.90949 11.327417 159.50534 11.174492 159.01378 10.628329 159.17764 10.453557M141.71134 81.869808C142.4869 76.124175 136.49003 75.676323 128.3522 88.467456 120.20346 100.14442 124.38707 110.72905 136.43542 97.599298 138.34699 95.05418 139.14438 94.060163 142.29029 88.325454 144.95555 82.164737 141.71134 84.185539 141.77688 82.667207L141.71134 81.869808zM295.28141 15.358099C294.98649 19.672786 292.78 27.646763 291.05411 32.758847 294.39664 32.584075 300.63381 35.424122 303.82341 38.122167 310.16981 29.252482 316.19945 22.283443 320.88553 17.477211 317.30269 20.688648 301.54044 24.424402 295.28141 15.358099v0zM559.08898 131.78909C564.46322 139.18414 565.42447 139.65384 569.10561 143.37866 571.66165 145.51963 576.31497 150.2057 579.42808 152.34666 597.96485 165.00672 605.31621 149.51753 587.18359 140.03614 580.62965 136.47516 573.606 133.79897 559.08898 131.78909v0zM98.214941 87.014662C60.496936 103.27939 37.001011 125.22421 15.449426 154.65146 7.0603646 167.92323-1.3177733 183.56533 7.0057483 190.07558 19.15241 196.88077 41.752627 187.93463 69.585086 138.4632 80.180645 119.46766 91.103901 101.07289 98.214941 87.014662zM539.01204 79.510386C534.40242 81.913502 531.46407 83.606607 525.92598 93.273689 533.44118 92.061208 539.85313 90.346256 543.8292 85.387098 548.73374 78.669295 543.30487 77.249272 539.01204 79.510386v0zM471.58278 82.667207C472.90449 75.162929 465.96821 76.790495 457.33885 89.35224 451.24367 98.058076 453.52663 112.40031 467.97809 95.917117 469.62751 93.361075 470.57783 92.23598 471.92139 89.527012 475.25299 83.125984 471.5937 84.972014 471.67017 83.464605L471.58278 82.667207zM345.30993 80.504401C339.59706 87.386054 339.91383 87.702829 336.42932 93.776159 333.74219 98.560545 334.36483 101.69552 336.29825 102.71138 338.08966 103.33401 340.14323 102.68948 343.94452 99.008399 348.54321 92.935068 348.84906 92.290597 353.43683 84.622471 358.51615 74.868002 349.42799 75.075543 345.30993 80.504401v0zM271.63257 77.161886 268.11527 72.552271C261.28824 80.242244 253.82765 89.363164 240.16266 99.303327 245.03443 102.06691 251.38084 103.20293 257.23572 102.25261 266.79357 100.29734 273.29289 90.706723 277.88066 83.038597L271.63257 77.161886zM309.1321 49.263888 291.58935 84.414928 290.64995 86.173572C295.11756 88.063296 301.97737 89.625322 305.33081 89.614455 314.36434 76.014943 315.10712 61.071928 309.1321 49.263888v0zM289.78702 35.795512C285.48325 47.636323 277.85882 60.634998 271.29394 68.554359L270.49654 69.832381C272.58289 73.655519 275.94725 77.784511 279.62838 80.001932 286.9142 68.324971 293.064 55.064137 302.26137 41.158831 300.00026 37.980164 292.37583 35.850129 289.78702 35.795512zM272.11318 42.087308C267.21956 48.96896 265.50461 57.740335 268.87991 66.500787 275.69602 58.330191 283.45152 45.30967 286.59743 35.489661 281.24503 35.533351 275.52124 37.59785 272.11318 42.087308zM569.24762 25.178107C562.49703 31.109436 559.25283 36.62568 554.82891 43.660256L561.65595 38.930487C566.07987 35.620741 568.34098 33.534399 571.26841 30.596042 580.70611 20.666802 573.21275 20.863421 569.24762 25.178107zM203.0236 26.925828C195.55209 35.566123 193.33466 38.919563 190.02492 44.992894 195.59578 42.26208 206.62827 31.535441 209.8834 27.209833 213.8376 22.895146 210.32032 18.525843 203.0236 26.925828zM344.64361.797398C328.91411 14.25485 322.02155 25.844426 310.6286 45.823062 314.13496 52.169474 317.23715 59.43344 317.34639 67.560343L323.51803 57.9588C334.92191 40.536205 351.4488 18.580459 374.47503 8.1596731 374.47503 8.1596731 374.91195 8.5092172 374.95566 8.4764474L374.80272 9.2738448C352.44282 24.828562 325.0036 78.931453 319.6512 87.637289 336.21086 81.345492 350.01785 67.41834 358.19937 77.904666L360.10002 74.868002C361.21419 74.857082 366.9489 74.835232 368.22692 74.824312L355.23917 97.861461C354.31069 100.72335 355.44671 105.18004 361.31251 98.298391L364.49117 94.453405C372.345 84.218314 374.71533 80.056552 378.92078 77.172813 381.30206 74.769697 389.58189 72.661508 391.19853 77.434971L392.15978 79.903627C397.57772 77.336661 402.73349 72.290116 408.56651 76.09141 410.36885 77.981134 412.89212 79.575929 409.57145 86.446657 406.09785 91.88644 406.72048 91.078119 403.23597 96.758212 400.38499 101.14936 401.46639 108.81748 413.76597 95.196186 421.40133 85.092173 428.64345 70.42224 444.68971 74.977238 447.16929 76.561111 448.11961 77.675282 447.50791 80.067476 446.86345 81.498423 444.43849 82.317667 442.89831 81.563962 440.6481 80.569945 441.62028 75.643556 435.84187 79.313771 431.16673 84.207389 426.66634 91.799053 424.92955 96.102816 423.66246 99.303331 424.15399 102.0123 427.50743 103.10462 431.73473 103.41048 434.98987 100.84351 438.00469 97.642996 448.49101 89.30855 456.54146 71.416257 472.74064 74.933545 480.80201 77.522357 475.74454 87.112976 485.4444 81.411036 493.86622 76.746806 497.05581 72.825356 507.72783 75.173857 509.7814 76.298952 511.58374 78.024827 511.4199 80.580869 511.02666 82.175664 510.46957 82.568902 509.01677 83.147834 504.30884 84.589704 507.49845 76.364492 500.95542 79.521313 496.97935 82.110125 494.23761 87.112976 491.23371 92.62922 486.47117 99.980573 488.66676 108.09655 500.58402 99.598259 506.94135 95.032338 509.07139 92.312447 511.7039 89.505169 534.80659 64.796763 536.18291 49.405893 561.09886 26.969525 570.54748 16.810896 585.04264 15.947959 576.57712 28.575244 575.39741 30.017113 575.14617 30.421274 571.81458 33.938563 564.73632 41.016834 560.20315 43.561952 551.31163 49.012658 544.97614 58.046191 541.07653 66.020168 534.99228 75.938485L533.11348 79.84901C538.26926 76.637573 543.29396 74.299996 545.19461 73.74291 557.85466 70.651629 557.19927 81.0178 555.29862 84.054464 549.26898 92.847686 538.59695 93.623238 529.51973 95.414651 540.38836 102.53661 545.60969 110.96937 554.67598 125.0276 567.1285 127.05931 575.75788 130.21615 580.38934 132.41172 586.29881 135.41561 589.80518 137.49102 593.65018 140.64786 610.62491 157.79737 590.51519 168.34922 569.16023 153.98514 559.5696 146.68842 556.67494 142.10064 547.85987 129.36412 511.08127 124.52512 466.68916 125.49729 436.10404 129.29862L435.44864 128.66507C458.69334 122.35144 508.35045 118.86692 543.35949 123.17067 539.18681 116.16888 530.01127 98.036273 524.59334 96.463323 522.00453 100.23185 520.3005 103.65083 518.43262 106.85134 518.46542 106.78584 507.26905 106.90594 507.26905 106.90594 510.58973 100.51583 515.73457 92.126773 518.4217 86.217291 512.22821 93.098943 507.22537 98.451338 501.09741 102.86433 490.7094 109.52752 485.75024 107.32102 482.21111 103.82558 479.01058 98.582417 481.99264 91.525993 483.72944 85.649282 480.4197 86.239138 480.95492 88.183478 477.05533 87.265923 473.72374 94.300501 472.1617 98.374875 466.76562 102.77695 457.69931 109.66953 450.3589 107.62687 447.3113 103.01726 446.10974 99.76213 445.77112 98.407645 447.18022 92.104926 439.97087 99.052117 431.24319 110.75093 419.57715 105.85731 416.38756 104.27343 415.6557 101.41154 415.36078 98.735343 415.38258 98.626109 415.62293 97.424552 416.03802 96.31038 407.3868 106.45809 398.23311 110.00814 393.03364 104.61205 389.34158 100.24275 397.27186 89.690888 399.08512 86.173598L399.95899 84.655266C403.37796 79.543181 396.59462 81.006898 395.48045 81.804295 391.34053 83.257089 387.77955 89.177493 384.63366 95.010513L378.13432 107.14625 367.53875 107.20085C372.05006 98.888253 376.63782 91.580592 380.90882 83.388152 381.14914 82.361365 381.28021 78.997001 377.47892 81.727816 375.88413 83.879697 373.75409 86.599588 369.78895 91.886445 366.73044 95.960819 358.22122 109.30904 350.09431 107.43024 346.41317 106.17406 346.14009 105.23466 345.60486 103.14832 345.39732 102.53662 345.87794 101.26952 345.43008 101.70645 341.62879 104.93973 337.33595 107.49578 331.9071 106.86223 328.95781 106.76393 326.25976 104.10957 325.73546 101.43337 324.79605 96.212054 327.39579 90.673963 330.54169 86.315583L329.41659 86.632358C326.24885 88.325463 321.46445 89.537943 317.95809 90.673963 314.63742 95.786047 311.89569 101.58629 308.62964 106.97146 308.62964 106.97146 296.70143 106.98236 296.65775 107.02606L304.40234 92.006583C299.46502 92.028433 292.44137 90.313479 289.24084 88.565758 283.23307 99.434399 274.49446 106.4799 263.18889 108.60993 253.45627 110.44504 243.87657 105.52958 236.842 101.38966 225.7112 110.20473 204.35622 110.93659 217.03813 93.819844 219.24462 90.313479 216.63396 94.387854 219.64879 89.592545 221.34188 86.883577 220.76295 88.150675 222.01913 85.747558 226.31198 79.991002 218.22876 75.643545 209.37 90.346249 205.4267 96.583428 203.90837 98.505921 198.92737 106.98237L189.54429 106.96047C194.26314 98.702486 199.01476 91.427597 203.60252 83.202385 205.1864 80.646343 203.88653 76.582892 198.74167 82.262985L197.86782 83.388082C194.86392 87.222145 188.27719 96.179214 183.99527 101.69546 175.56251 111.6247 163.83094 107.12432 169.68581 96.583374 172.20909 91.788065 172.37293 91.951914 173.32325 90.02942 174.60127 87.702768 175.13652 86.665058 175.52974 85.791198 181.31908 76.757665 169.28165 78.243226 160.11704 95.982595L153.79247 106.85123C153.78147 106.85123 143.90692 106.89493 143.87415 106.97139 151.66244 92.519923 156.08635 86.271821 161.63537 76.047651L159.55995 77.500446C156.00989 80.722807 152.09936 83.267925 147.35867 83.093153 145.29417 92.858544 140.36779 98.462176 136.87234 101.50976 128.13374 109.03589 121.43778 106.76385 118.89267 105.24552 116.43493 103.10456 115.49553 100.46113 115.35354 97.402618 115.67031 90.12773 119.82114 85.496269 124.11398 79.717866 120.92439 80.690037 116.78448 80.711882 112.96134 82.164676 108.28618 90.794 88.711708 135.67766 74.784556 155.98399 46.733633 195.32956 13.286621 201.05335 2.7893712 190.74179-4.8132154 181.20579 3.7069249 160.76838 21.282445 137.88416 38.737809 116.60566 67.334895 95.917007 100.36682 83.256953 113.6495 59.924877 129.58653 38.406061 149.58701 19.192052 139.40655 24.325982 120.43285 23.77982 112.58994 16.876322 115.04768 31.928569 102.68255 47.931141 88.984789 52.770143 101.71038 43.310603 112.80841 30.344697 109.55328 15.139524 107.60894 12.605328 106.35277 12.922103 105.22767 9.5686635 104.7252 5.275823 108.70127 5.887526 110.48176 10.988686 114.33767 16.548625 122.55195 19.716369 132.12073 20.142375 144.2237 19.847448 151.23643 16.384775 159.41795 10.213135L159.90949 11.327307C139.58131 30.388391 119.34051 68.42317 114.76367 78.964113 129.08407 74.59481 140.54256 71.995075 143.92877 76.44084 145.97141 77.94825 145.57819 79.160732 147.77376 80.416906 152.3943 81.989855 162.4 72.224464 168.58256 64.06479 179.68059 50.148562 184.70529 32.420115 207.53489 19.574367 211.48912 17.717413 217.10366 19.847448 212.88729 26.882025 208.944 33.27213 195.91255 44.17354 188.75782 48.990696 182.93572 52.901222 177.19009 66.893914 169.75135 77.926404 175.81376 75.272052 191.64156 69.460879 186.03793 83.759422 185.0876 85.987767 181.91986 91.908172 179.07981 96.386707 176.21791 99.740146 177.83456 104.67746 183.47096 97.391647 184.81452 95.796852 189.53337 89.177357 191.54325 86.686855 197.80227 78.920419 201.76742 72.519391 210.05817 75.359438 212.22097 76.550073 212.5159 79.663201 212.40666 81.968008 215.2904 79.641355 218.22876 77.555012 222.0519 75.949294 225.09949 74.900662 227.76477 73.928491 230.9762 75.4359 235.30181 78.439796 231.7299 84.58959 230.85604 85.954997L222.93668 98.582281C221.35281 102.09957 222.47791 104.96146 227.41522 103.49775 231.23836 102.05588 232.50546 101.09463 234.81027 99.565375 232.74577 97.260568 230.72497 95.272535 232.51639 94.595293 233.06254 94.846528 236.96214 98.036119 236.96214 98.036119 245.53691 91.624167 256.18708 82.17555 266.80448 69.373494 265.19876 64.916805 264.55428 63.966481 264.3686 60.929817 262.5881 52.649988 266.64063 32.234421 287.84268 32.289036 287.84268 32.289036 291.05411 22.501799 291.1415 21.911944 292.08091 17.444331 293.18414 14.090891 291.38182 7.2857025 290.9558 5.23213 290.84657 3.593642 292.49598 2.938246 296.58128 3.287791 295.09571 8.2687956 296.27544 10.813915 297.31314 13.610268 298.16515 15.620147 300.85227 16.614165 318.58072 24.031165 333.96067 2.599735 344.47976.0L344.64361.797398z" id="path1328"/></g></g></svg>