<svg width="128" height="128" viewBox="0 0 128 128" xmlns="http://www.w3.org/2000/svg" xmlns:xlink="http://www.w3.org/1999/xlink"><title>recipe</title><g id="Portfolio" stroke="none" stroke-width="1" fill="none" fill-rule="evenodd"><g id="recipe"><rect id="BG" fill="#e46d15" x="0" y="0" width="128" height="128" rx="32"/><path d="M83.1683511 64.2749177C87.7930642 64.2749177 92.8669205 61.7918502 97.455118 57.2821614 105.227484 49.6321226 106.700893 40.7953237 101.121294 35.2997111 98.9352258 33.1329735 95.9701352 31.9356217 92.8924815 31.9767825v0C88.262291 31.9767825 83.2158215 34.4415922 78.6823975 38.9147652 72.0529725 45.4328173 70.0099192 52.8089884 72.9768197 58.2863431L64.6987109 66.4293439 54.3812003 56.2779797 58.8525476 51.8595802C59.3681046 51.3586783 59.6590058 50.6704547 59.6590058 49.951635 59.6590058 49.2328153 59.3681046 48.5445917 58.8525476 48.0436898L42.3565808 31.794204C41.2772425 30.7352653 39.5488231 30.7352653 38.4694848 31.794204 37.9538003 32.2987675 37.6631384 32.9898111 37.6631384 33.7112782 37.6631384 34.4327453 37.9538003 35.1237888 38.4694848 35.6283523L53.0209905 49.9607639 50.4941042 52.4438314 35.0242286 37.2167852C33.9448903 36.1578465 32.2164709 36.1578465 31.1371325 37.2167852 30.6225089 37.7181926 30.3322591 38.4062273 30.3322591 39.1247305 30.3322591 39.8432337 30.6225089 40.5312683 31.1371325 41.0326757L46.6070081 56.2779797 44.078296 58.7610472 27.6937022 42.6211086C26.6137428 41.5619516 24.8847397 41.5619516 23.8047803 42.6211086 23.2900193 43.1261696 23 43.817027 23 44.5381827 23 45.2593385 23.2900193 45.9501959 23.8047803 46.4552569L42.1356609 64.4940119C43.2101217 65.5648202 44.9482961 65.5648202 46.022757 64.4940119L50.4941042 60.0938702 60.8116148 70.2634922 38.8364675 91.8990434C38.3209105 92.3999453 38.0300093 93.088169 38.0300093 93.8069887 38.0300093 94.5258084 38.3209105 95.214032 38.8364675 95.7149339 39.9109284 96.7857422 41.6491028 96.7857422 42.7235636 95.7149339L64.6987109 74.0793827 86.2429728 95.2950034C87.3280089 96.3416599 89.0468587 96.3416599 90.1318947 95.2950034 90.6466558 94.7899423 90.936675 94.0990849 90.936675 93.3779292 90.936675 92.6567735 90.6466558 91.9659161 90.1318947 91.460855L68.5876327 70.2634922 76.64117 62.3213278C78.5658736 63.6247939 80.8440229 64.3066456 83.1683511 64.2749177v0zM82.5694936 42.7306557C85.8869448 39.4625007 89.6736227 37.3993637 92.8906557 37.3993637 94.51428 37.3589846 96.0834926 37.9858778 97.2323723 39.1338594 100.810911 42.6576243 98.5761499 48.5183938 93.5661961 53.4480131 90.2213582 56.7526838 86.4018161 58.8705943 83.1592221 58.8705943 81.5664108 58.9047173 80.0277146 58.2921371 78.8941886 57.1726143 75.3266048 53.6488495 77.5613656 47.6602749 82.5731452 42.7306557H82.5694936z" id="Folk_and_spoon" fill="#fff" fill-rule="nonzero"/></g></g></svg>