<svg width="1600" height="800" viewBox="0 0 1600 800" xmlns="http://www.w3.org/2000/svg" xmlns:xlink="http://www.w3.org/1999/xlink"><title>process</title><g id="process" stroke="none" stroke-width="1" fill="none" fill-rule="evenodd"><text id="Stakeholder-intervie" font-family="Inter-Regular, Inter" font-size="18" font-weight="normal" fill="#000"><tspan x="227.47017" y="702">Stakeholder interviews</tspan><tspan x="264.646307" y="727">Journey Maps</tspan><tspan x="283.09375" y="752">Scenarios</tspan><tspan x="285.471591" y="777">Personas</tspan></text><text id="Problem-Prioritizati" font-family="Inter-Regular, Inter" font-size="18" font-weight="normal" fill="#000"><tspan x="592.196023" y="702">Problem Prioritization</tspan></text><text id="Low-fidleity-mockups" font-family="Inter-Regular, Inter" font-size="18" font-weight="normal" fill="#000"><tspan x="829.286932" y="702">Low-fidleity mockups</tspan><tspan x="872.088068" y="727">Wireframes</tspan><tspan x="875.629261" y="752">User flows</tspan><tspan x="852.362216" y="777">Usability testing</tspan></text><text id="High-fidelity-UI-Des" font-family="Inter-Regular, Inter" font-size="18" font-weight="normal" fill="#000"><tspan x="1150.41335" y="702">High-fidelity UI</tspan><tspan x="1157.50852" y="727">Design specs</tspan></text><path id="Line" d="M399.679687 489.976562 384.757629 512.277508 380.009551 503.934898C369.295795 513.128868 357.030949 527.246061 343.244853 546.274948 320.024014 578.32657 312.372668 616.126177 320.304046 659.804553L320.54916 661.12994 320.91922 663.095405 316.988289 663.835526 316.618229 661.87006C308.091632 616.583566 315.882883 577.224676 340.005615 543.928177 354.207963 524.324739 366.86081 509.817998 377.995573 500.395814L372.885696 491.419484 399.679687 489.976562z" fill="#c9c9c9" fill-rule="nonzero"/><path id="Line" d="M911.273437 507.839844 902.954666 533.350587 896.014151 526.50075C884.677432 541.361094 877.674644 559.192383 875.007252 580.031273 871.275624 609.184461 880.182462 635.602866 901.811938 659.424182L902.471271 660.145245 903.826026 661.616516 900.883484 664.326026 899.528729 662.854755C876.641521 637.999125 867.116236 610.174708 871.039623 579.523414 873.818149 557.816296 881.186191 539.185478 893.145252 523.668585L885.87358 516.491273 911.273437 507.839844z" fill="#c9c9c9" fill-rule="nonzero"/><path id="Line-2" d="M704 498.054688 730.289225 503.428389 723.994546 511.451732C744.109093 530.893988 752.820394 553.792809 750.033283 579.988938 746.55097 612.719278 731.879173 640.204845 706.077893 662.356512L705.29263 663.026142 703.766488 664.318771 701.181229 661.266488 702.70737 659.973858C728.219345 638.365426 742.648187 611.593341 746.055732 579.56575 748.695856 554.751162 740.545678 533.153444 721.511551 514.615879L715.474573 522.310288 704 498.054688z" fill="#c9c9c9" fill-rule="nonzero"/><path id="Line-2" d="M1175 510.054687 1200.74694 517.610808 1193.82614 525.052532C1211.95014 545.149659 1221.04451 567.415932 1221.04451 591.777344 1221.04451 622.558417 1213.78419 646.114142 1199.18953 662.360957L1198.74502 662.851048 1197.39431 664.326028 1194.44435 661.624595 1195.79506 660.149615C1209.93593 644.707817 1217.04451 621.945768 1217.04451 591.777344 1217.04451 568.543783 1208.41472 547.306781 1191.09131 527.993361L1184.40327 535.185914 1175 510.054687z" fill="#c9c9c9" fill-rule="nonzero"/><text id="Kickoff" font-family="Inter-Bold, Inter" font-size="24" font-weight="bold" fill="#000"><tspan x="200.193182" y="379">Kickoff</tspan></text><text id="Development-Starts" font-family="Inter-Bold, Inter" font-size="24" font-weight="bold" fill="#000"><tspan x="1315" y="379">Development Starts</tspan></text><g id="Left" transform="translate(303.000000, 130.000000)"><path fill="#d8d8d8" transform="translate(256.000000, 241.000000) rotate(45.000000) translate(-256.000000, -241.000000)" d="M86 71h340v340H86z"/><path id="Right" fill="#bdbdbd" transform="translate(256.000000, 241.000000) rotate(45.000000) translate(-256.000000, -241.000000)" d="M86 71H426V411z"/><text id="1-Diverge" font-family="Inter-Bold, Inter" font-size="18" font-weight="bold" fill="#000"><tspan x="106.065341" y="223">1 Diverge</tspan></text><text id="2-Converge" font-family="Inter-Bold, Inter" font-size="18" font-weight="bold" fill="#000"><tspan x="312.267756" y="223">2 Converge</tspan></text><text id="What-problems-do-use" font-family="Inter-Regular, Inter" font-size="18" font-weight="normal" fill="#000"><tspan x="68.9786932" y="251">What problems do</tspan><tspan x="97.9857955" y="276">users face?</tspan></text><text id="Which-problems-shoul" font-family="Inter-Regular, Inter" font-size="18" font-weight="normal" fill="#000"><tspan x="269.463068" y="251">Which problems should</tspan><tspan x="304.363636" y="276">we tackle first?</tspan></text><circle id="Oval" fill="#363d43" cx="15" cy="241" r="15"/></g><g id="Right" transform="translate(800.000000, 130.000000)"><path id="Left" fill="#d8d8d8" transform="translate(241.000000, 241.000000) rotate(45.000000) translate(-241.000000, -241.000000)" d="M71 71h340v340H71z"/><path fill="#bdbdbd" transform="translate(241.000000, 241.000000) rotate(45.000000) translate(-241.000000, -241.000000)" d="M71 71H411V411z"/><text id="3-Diverge" font-family="Inter-Bold, Inter" font-size="18" font-weight="bold" fill="#000"><tspan x="93.397017" y="223">3 Diverge</tspan></text><text id="4-Converge" font-family="Inter-Bold, Inter" font-size="18" font-weight="bold" fill="#000"><tspan x="298.836293" y="223">4 Converge</tspan></text><text id="Of-these-problems,-h" font-family="Inter-Regular, Inter" font-size="18" font-weight="normal" fill="#000"><tspan x="54.7443182" y="251">Of these problems,</tspan><tspan x="51.3565341" y="276">how might we solve</tspan><tspan x="109.77983" y="301">them?</tspan></text><text id="Which-ones-are-most" font-family="Inter-Regular, Inter" font-size="18" font-weight="normal" fill="#000"><tspan x="260.549716" y="251">Which ones are most</tspan><tspan x="276.491477" y="276">viable / valuable?</tspan></text><circle id="Oval" fill="#363d43" cx="482" cy="241" r="15"/></g><text id="UX-Process" font-family="Inter-Bold, Inter" font-size="38" font-weight="bold" fill="#000"><tspan x="692.187145" y="52">UX Process</tspan></text></g></svg>