<?xml version="1.0" encoding="UTF-8"?>
<svg width="269px" height="19px" viewBox="0 0 269 19" version="1.1" xmlns="http://www.w3.org/2000/svg" xmlns:xlink="http://www.w3.org/1999/xlink">
    <g stroke="none" stroke-width="1" fill="none" fill-rule="evenodd">
        <path d="M239.82941,6.237 C241.07341,6.236 242.31641,6.235 243.55941,6.235 C243.67241,6.511 243.84041,6.762 244.06141,6.964 C243.58041,6.997 243.09941,7.029 242.61841,7.047 C241.71141,7.08 240.80541,7.114 239.90041,7.148 C235.94441,7.297 231.98741,7.446 228.03341,7.593 C226.22241,7.661 224.41141,7.761 222.60041,7.789 C219.77141,7.833 216.94041,7.878 214.11041,7.924 C207.64441,8.026 201.17641,8.127 194.71141,8.231 C182.15741,8.434 169.60341,8.629 157.05041,8.827 C148.06141,8.97 139.07441,9.251 130.08741,9.488 C116.54641,9.847 103.00341,10.206 89.4624099,10.565 C86.7484099,10.637 84.0334099,10.81 81.3214099,10.94 C73.6344099,11.309 65.9484099,11.676 58.2634099,12.046 C50.7164099,12.407 43.1714099,12.769 35.6254099,13.13 C34.9264099,13.164 34.2294099,13.197 33.5304099,13.231 C35.5644099,13.068 37.5974099,12.905 39.6314099,12.75 C46.7334099,12.208 53.8354099,11.664 60.9374099,11.121 C63.4174099,10.931 65.8974099,10.742 68.3784099,10.553 C69.6574099,10.455 70.9404099,10.394 72.2204099,10.315 C79.6054099,9.868 86.9904099,9.421 94.3764099,8.973 C95.8194099,8.884 97.2644099,8.768 98.7094099,8.712 C100.78941,8.631 102.87041,8.551 104.95041,8.47 C112.56541,8.175 120.18041,7.879 127.79541,7.584 C129.47041,7.519 131.14541,7.454 132.82041,7.388 C133.26241,7.371 133.70341,7.37 134.14541,7.361 C135.32141,7.339 136.49841,7.314 137.67441,7.29 C145.30541,7.134 152.93641,6.978 160.56641,6.823 C164.08241,6.751 167.59741,6.668 171.11341,6.639 C182.45941,6.548 193.80341,6.43 205.14941,6.379 C216.71041,6.326 228.27041,6.246 239.82941,6.237 Z M5.82340994,9.446 C7.94940994,9.468 10.0754099,9.342 12.1994099,9.277 C13.0644099,9.249 13.9294099,9.202 14.7924099,9.159 C18.6014099,8.969 22.4094099,8.781 26.2194099,8.591 C30.7744099,8.365 35.3284099,8.122 39.8824099,7.869 C46.3884099,7.506 52.8944099,7.143 59.3974099,6.78 C60.8894099,6.697 62.3804099,6.64 63.8724099,6.571 C67.6624099,6.391 71.4514099,6.214 75.2424099,6.036 C79.0324099,5.858 82.8234099,5.68 86.6134099,5.503 C88.0964099,5.433 89.5824099,5.343 91.0654099,5.295 C97.1134099,5.103 103.16241,4.915 109.20941,4.723 C112.92741,4.608 116.64741,4.49 120.36541,4.372 C121.82141,4.327 123.27941,4.258 124.73641,4.237 C130.58241,4.153 136.42741,4.061 142.27441,3.973 C148.04341,3.887 153.81341,3.801 159.58241,3.714 C161.10541,3.692 162.62941,3.702 164.15141,3.696 C167.91841,3.682 171.68441,3.667 175.45041,3.653 C181.30641,3.63 187.16241,3.613 193.02041,3.585 C194.93541,3.575 196.85141,3.598 198.76641,3.604 C202.77541,3.618 206.78541,3.633 210.79641,3.646 C211.12841,3.648 211.45941,3.65 211.79141,3.652 C202.76441,3.773 193.73741,3.895 184.71041,4.03 C180.94141,4.086 177.17141,4.141 173.40141,4.197 C171.77641,4.221 170.14741,4.227 168.52241,4.269 C163.06841,4.411 157.61441,4.565 152.16241,4.713 C145.85841,4.883 139.55541,5.053 133.25141,5.223 C132.19241,5.252 131.13341,5.312 130.07541,5.362 C126.71941,5.517 123.36241,5.671 120.00541,5.826 C113.19741,6.139 106.38941,6.455 99.5794099,6.767 C98.5714099,6.814 97.5654099,6.885 96.5594099,6.954 C93.2334099,7.183 89.9074099,7.412 86.5824099,7.643 C80.6254099,8.054 74.6684099,8.462 68.7134099,8.877 C67.0704099,8.991 65.4304099,9.152 63.7894099,9.291 C59.9754099,9.612 56.1614099,9.933 52.3474099,10.254 C47.4994099,10.662 42.6494099,11.056 37.8024099,11.48 C31.0564099,12.068 24.3114099,12.656 17.5664099,13.247 C15.9484099,13.389 14.3304099,13.529 12.7124099,13.671 C9.81240994,13.924 6.92140994,14.29 4.02640994,14.609 C3.72040994,14.642 3.46040994,14.841 3.46040994,15.175 C3.46040994,15.495 3.71740994,15.728 4.02640994,15.742 C5.08440994,15.788 6.14240994,15.835 7.19940994,15.879 C7.06940994,16.154 6.99340994,16.454 6.99340994,16.762 C6.99340994,17.842 7.93740994,18.908 9.06740994,18.839 C17.3394099,18.323 25.6064099,17.763 33.8854099,17.368 C41.0714099,17.026 48.2594099,16.684 55.4454099,16.342 C63.3914099,15.964 71.3374099,15.585 79.2834099,15.206 C81.7854099,15.087 84.2864099,14.968 86.7874099,14.848 C87.5084099,14.815 88.2324099,14.768 88.9534099,14.75 C101.75341,14.409 114.55341,14.078 127.35341,13.742 C134.19441,13.563 141.03441,13.384 147.87441,13.204 C150.34641,13.139 152.81641,13.084 155.28841,13.044 C168.38041,12.84 181.47241,12.636 194.56441,12.43 C200.17341,12.341 205.78441,12.249 211.39341,12.16 C216.18241,12.083 220.97341,12.05 225.75941,11.871 C229.71441,11.721 233.67041,11.571 237.62741,11.422 C239.60041,11.348 241.57841,11.3 243.55041,11.176 C248.04141,10.893 252.53141,10.607 257.02141,10.306 C257.01741,10.312 257.01441,10.318 257.01041,10.323 C256.75741,10.756 256.68941,11.281 256.82241,11.764 C256.95041,12.231 257.26341,12.636 257.68141,12.88 C258.07441,13.111 258.67841,13.245 259.12141,13.069 C260.10041,12.679 261.07541,12.281 262.04541,11.875 C262.02541,11.884 262.00541,11.892 261.98541,11.901 C262.05741,11.87 262.12841,11.84 262.20141,11.81 C262.28441,11.775 262.36741,11.74 262.45041,11.705 C262.42041,11.717 262.39041,11.73 262.35941,11.743 C262.87841,11.525 263.39541,11.306 263.91241,11.088 C264.45441,10.862 264.99741,10.634 265.53641,10.397 C266.12441,10.141 266.68641,9.829 267.25241,9.527 C267.89241,9.186 268.28441,8.439 268.28441,7.728 C268.28241,7.351 268.18841,7.002 267.99941,6.676 C267.74941,6.247 267.26241,5.807 266.75441,5.718 C266.25341,5.631 265.75341,5.564 265.24841,5.499 C265.13841,5.486 265.02541,5.48 264.91041,5.48 C264.57041,5.48 264.21541,5.528 263.88941,5.551 C263.12741,5.605 262.36941,5.718 261.60741,5.774 C260.98441,5.819 260.36441,5.864 259.74241,5.908 C258.06641,6.03 256.39341,6.152 254.71941,6.272 C254.28641,6.303 253.85341,6.329 253.42041,6.358 C253.57741,6.179 253.69141,5.975 253.75641,5.743 C253.83541,5.559 253.87841,5.366 253.88941,5.166 C253.90741,5.024 253.92641,4.881 253.94641,4.739 C253.94541,4.554 253.91241,4.378 253.85341,4.209 C253.89641,4.189 253.94041,4.171 253.98341,4.151 C254.29841,3.964 254.55041,3.713 254.73741,3.396 C254.92841,3.068 255.02341,2.714 255.02441,2.334 C255.02341,1.954 254.92841,1.602 254.73741,1.274 C254.62841,1.132 254.51841,0.99 254.40841,0.847 C254.14641,0.587 253.83741,0.407 253.48041,0.306 C252.83441,0.059 252.15741,0 251.47441,0 C250.91541,0 250.35241,0.04 249.79841,0.046 C248.99441,0.053 248.18941,0.062 247.38341,0.07 C246.24441,0.082 245.10541,0.098 243.96641,0.104 C240.95841,0.119 237.94741,0.133 234.93941,0.15 C232.10841,0.166 229.27741,0.163 226.44641,0.162 C223.87341,0.158 221.30041,0.157 218.72841,0.168 C208.47141,0.213 198.21641,0.229 187.96141,0.333 C180.27041,0.41 172.58041,0.488 164.88941,0.566 C161.45141,0.602 158.01541,0.655 154.57741,0.727 C146.87141,0.889 139.16441,1.053 131.45841,1.216 C129.26041,1.263 127.06241,1.31 124.86541,1.356 C123.59141,1.384 122.31641,1.45 121.04241,1.498 C113.42641,1.787 105.80941,2.076 98.1934099,2.364 C95.8684099,2.453 93.5444099,2.541 91.2194099,2.63 C89.9164099,2.677 88.6134099,2.765 87.3104099,2.834 C79.7454099,3.241 72.1794099,3.648 64.6144099,4.053 C60.7084099,4.262 56.8064099,4.498 52.9024099,4.745 C46.2194099,5.167 39.5364099,5.59 32.8534099,6.01 C27.0634099,6.373 21.2714099,6.688 15.4794099,7.027 C14.5604099,7.08 13.6434099,7.134 12.7274099,7.187 C11.2444099,7.274 9.75940994,7.333 8.27440994,7.399 C6.95940994,7.458 5.63540994,7.494 4.31640994,7.46 C4.18340994,7.118 3.84940994,6.839 3.46940994,6.869 C2.61740994,6.937 1.76840994,7.029 0.918409945,7.12 C0.505409945,7.164 0.148409945,7.369 0.0314099448,7.796 C-0.0985900552,8.267 0.186409945,8.811 0.674409945,8.928 C1.04340994,9.017 1.41140994,9.109 1.78140994,9.194 C2.14540994,9.277 2.52840994,9.299 2.89640994,9.332 C3.87040994,9.418 4.84740994,9.438 5.82340994,9.446 L5.82340994,9.446 Z" id="Fill-12" fill="#151514"></path>
    </g>
</svg>
